G04*
G04 #@! TF.GenerationSoftware,Altium Limited,Altium Designer,20.1.14 (287)*
G04*
G04 Layer_Color=16711935*
%FSLAX25Y25*%
%MOIN*%
G70*
G04*
G04 #@! TF.SameCoordinates,4531C12C-93FC-4365-9EE7-7E3AE0C659AD*
G04*
G04*
G04 #@! TF.FilePolarity,Negative*
G04*
G01*
G75*
%ADD53C,0.05118*%
%ADD54R,0.05118X0.05118*%
%ADD55C,0.04134*%
%ADD56C,0.06890*%
%ADD57R,0.06890X0.06890*%
%ADD58R,0.05118X0.05118*%
%ADD59R,0.07874X0.07874*%
%ADD60C,0.07874*%
%ADD61R,0.06890X0.06890*%
%ADD62C,0.02953*%
D53*
X18437Y174500D02*
D03*
X10000Y193563D02*
D03*
X92000Y80000D02*
D03*
D54*
X10563Y174500D02*
D03*
D55*
X59000Y182500D02*
D03*
X41677D02*
D03*
D56*
X66000Y126500D02*
D03*
X56000D02*
D03*
X46000D02*
D03*
X19500Y96000D02*
D03*
Y106000D02*
D03*
Y116000D02*
D03*
D57*
X36000Y126500D02*
D03*
D58*
X10000Y201437D02*
D03*
X92000Y72126D02*
D03*
D59*
X82000Y36000D02*
D03*
D60*
Y56000D02*
D03*
D61*
X19500Y126000D02*
D03*
D62*
X71500Y50500D02*
D03*
X28500Y59500D02*
D03*
X25000Y62500D02*
D03*
X39500Y70000D02*
D03*
X26000Y69500D02*
D03*
X16000Y46500D02*
D03*
X15000Y62000D02*
D03*
X65827Y52000D02*
D03*
X62327Y52549D02*
D03*
X44000Y59500D02*
D03*
X68423Y62077D02*
D03*
X66500Y80500D02*
D03*
X61500Y81000D02*
D03*
X44000Y18500D02*
D03*
X51000Y111000D02*
D03*
X40000Y110000D02*
D03*
X96000Y41000D02*
D03*
X69500Y114500D02*
D03*
X60847Y60500D02*
D03*
X83500Y127000D02*
D03*
X83000Y122000D02*
D03*
X93000Y153000D02*
D03*
X38000Y154000D02*
D03*
X79000Y180000D02*
D03*
Y185500D02*
D03*
Y190500D02*
D03*
Y195500D02*
D03*
X51500Y84500D02*
D03*
X67000Y97000D02*
D03*
M02*
