G04*
G04 #@! TF.GenerationSoftware,Altium Limited,Altium Designer,20.1.14 (287)*
G04*
G04 Layer_Color=8421504*
%FSLAX25Y25*%
%MOIN*%
G70*
G04*
G04 #@! TF.SameCoordinates,4531C12C-93FC-4365-9EE7-7E3AE0C659AD*
G04*
G04*
G04 #@! TF.FilePolarity,Positive*
G04*
G01*
G75*
%ADD19R,0.02559X0.02362*%
%ADD20R,0.02362X0.02559*%
%ADD21R,0.05787X0.04567*%
%ADD22O,0.07087X0.01102*%
%ADD23O,0.01102X0.07087*%
G04:AMPARAMS|DCode=24|XSize=137.8mil|YSize=80.71mil|CornerRadius=20.18mil|HoleSize=0mil|Usage=FLASHONLY|Rotation=90.000|XOffset=0mil|YOffset=0mil|HoleType=Round|Shape=RoundedRectangle|*
%AMROUNDEDRECTD24*
21,1,0.13780,0.04035,0,0,90.0*
21,1,0.09744,0.08071,0,0,90.0*
1,1,0.04035,0.02018,0.04872*
1,1,0.04035,0.02018,-0.04872*
1,1,0.04035,-0.02018,-0.04872*
1,1,0.04035,-0.02018,0.04872*
%
%ADD24ROUNDEDRECTD24*%
G04:AMPARAMS|DCode=25|XSize=157.48mil|YSize=80.71mil|CornerRadius=20.18mil|HoleSize=0mil|Usage=FLASHONLY|Rotation=90.000|XOffset=0mil|YOffset=0mil|HoleType=Round|Shape=RoundedRectangle|*
%AMROUNDEDRECTD25*
21,1,0.15748,0.04035,0,0,90.0*
21,1,0.11713,0.08071,0,0,90.0*
1,1,0.04035,0.02018,0.05856*
1,1,0.04035,0.02018,-0.05856*
1,1,0.04035,-0.02018,-0.05856*
1,1,0.04035,-0.02018,0.05856*
%
%ADD25ROUNDEDRECTD25*%
G04:AMPARAMS|DCode=26|XSize=137.8mil|YSize=80.71mil|CornerRadius=20.18mil|HoleSize=0mil|Usage=FLASHONLY|Rotation=90.000|XOffset=0mil|YOffset=0mil|HoleType=Round|Shape=RoundedRectangle|*
%AMROUNDEDRECTD26*
21,1,0.13780,0.04036,0,0,90.0*
21,1,0.09744,0.08071,0,0,90.0*
1,1,0.04035,0.02018,0.04872*
1,1,0.04035,0.02018,-0.04872*
1,1,0.04035,-0.02018,-0.04872*
1,1,0.04035,-0.02018,0.04872*
%
%ADD26ROUNDEDRECTD26*%
G04:AMPARAMS|DCode=27|XSize=110.24mil|YSize=19.68mil|CornerRadius=4.92mil|HoleSize=0mil|Usage=FLASHONLY|Rotation=90.000|XOffset=0mil|YOffset=0mil|HoleType=Round|Shape=RoundedRectangle|*
%AMROUNDEDRECTD27*
21,1,0.11024,0.00984,0,0,90.0*
21,1,0.10039,0.01968,0,0,90.0*
1,1,0.00984,0.00492,0.05020*
1,1,0.00984,0.00492,-0.05020*
1,1,0.00984,-0.00492,-0.05020*
1,1,0.00984,-0.00492,0.05020*
%
%ADD27ROUNDEDRECTD27*%
%ADD28R,0.03858X0.03661*%
%ADD29R,0.03661X0.03858*%
%ADD30R,0.07480X0.09449*%
%ADD31R,0.07087X0.04449*%
%ADD32R,0.04449X0.07087*%
%ADD33R,0.07087X0.10236*%
%ADD34R,0.03937X0.08661*%
%ADD35R,0.13780X0.08661*%
D19*
X84000Y97327D02*
D03*
Y100673D02*
D03*
X92500Y96673D02*
D03*
Y93327D02*
D03*
X32000Y71327D02*
D03*
Y74673D02*
D03*
X51500Y39173D02*
D03*
Y35827D02*
D03*
X65000Y39173D02*
D03*
Y35827D02*
D03*
X90000Y127827D02*
D03*
Y131173D02*
D03*
X21500Y136327D02*
D03*
Y139673D02*
D03*
X72000Y55654D02*
D03*
Y59000D02*
D03*
X32000Y81327D02*
D03*
Y84673D02*
D03*
D20*
X44153Y114500D02*
D03*
X47500D02*
D03*
X37154Y64000D02*
D03*
X40500D02*
D03*
X77846Y114500D02*
D03*
X74500D02*
D03*
X13827Y57500D02*
D03*
X17173D02*
D03*
X13827Y51000D02*
D03*
X17173D02*
D03*
X46673Y154000D02*
D03*
X43327D02*
D03*
X50673Y64000D02*
D03*
X47327D02*
D03*
X59000Y64000D02*
D03*
X62347D02*
D03*
X63327Y47500D02*
D03*
X66673D02*
D03*
X65673Y56500D02*
D03*
X62327D02*
D03*
X49500Y144000D02*
D03*
X46154D02*
D03*
D21*
X65000Y25504D02*
D03*
Y18496D02*
D03*
X51500Y19492D02*
D03*
Y26500D02*
D03*
X108500Y47496D02*
D03*
Y54504D02*
D03*
X96000D02*
D03*
Y47496D02*
D03*
D22*
X42555Y78173D02*
D03*
Y80142D02*
D03*
Y82110D02*
D03*
Y84079D02*
D03*
Y86047D02*
D03*
Y88016D02*
D03*
Y89984D02*
D03*
Y91953D02*
D03*
Y93921D02*
D03*
Y95890D02*
D03*
Y97858D02*
D03*
Y99827D02*
D03*
X74445D02*
D03*
Y97858D02*
D03*
Y95890D02*
D03*
Y93921D02*
D03*
Y91953D02*
D03*
Y89984D02*
D03*
Y88016D02*
D03*
Y86047D02*
D03*
Y84079D02*
D03*
Y82110D02*
D03*
Y80142D02*
D03*
Y78173D02*
D03*
D23*
X47673Y104945D02*
D03*
X49642D02*
D03*
X51610D02*
D03*
X53579D02*
D03*
X55547D02*
D03*
X57516D02*
D03*
X59484D02*
D03*
X61453D02*
D03*
X63421D02*
D03*
X65390D02*
D03*
X67358D02*
D03*
X69327D02*
D03*
Y73055D02*
D03*
X67358D02*
D03*
X65390D02*
D03*
X63421D02*
D03*
X61453D02*
D03*
X59484D02*
D03*
X57516D02*
D03*
X55547D02*
D03*
X53579D02*
D03*
X51610D02*
D03*
X49642D02*
D03*
X47673D02*
D03*
D24*
X69728Y173248D02*
D03*
D25*
Y189980D02*
D03*
X30949D02*
D03*
D26*
Y173248D02*
D03*
D27*
X53488Y173347D02*
D03*
X56638D02*
D03*
X47189D02*
D03*
X44039D02*
D03*
X50339D02*
D03*
D28*
X77000Y122468D02*
D03*
Y128532D02*
D03*
X21500Y149969D02*
D03*
Y156032D02*
D03*
X58500Y157032D02*
D03*
Y150969D02*
D03*
D29*
X64531Y143000D02*
D03*
X58469D02*
D03*
D30*
X36929Y53000D02*
D03*
X53071D02*
D03*
D31*
X79750Y167142D02*
D03*
Y155409D02*
D03*
D32*
X88634Y193000D02*
D03*
X100366D02*
D03*
D33*
X88595Y179500D02*
D03*
X100406D02*
D03*
D34*
X92945Y142378D02*
D03*
X102000D02*
D03*
X111055D02*
D03*
D35*
X102000Y166000D02*
D03*
M02*
