M48
;Layer_Color=9474304
;FILE_FORMAT=2:5
INCH,LZ
;TYPE=PLATED
T1F00S00C0.01181
T2F00S00C0.03150
T3F00S00C0.04331
;TYPE=NON_PLATED
T4F00S00C0.03543
%
T01
X0044Y00185
Y00595
X00395Y007
X0026Y00695
X0025Y00625
X00285Y00595
X0015Y0062
X0016Y00465
X0062327Y0052549
X0065827Y0052
X00715Y00505
X0068423Y0062077
X0060847Y00605
X00615Y0081
X00665Y00805
X0067Y0097
X00695Y01145
X0083Y0122
X00835Y0127
X0093Y0153
X0038Y0154
X004Y011
X0051Y0111
X00515Y00845
X0096Y0041
X0079Y018
Y01855
Y01905
Y01955
T02
X0092Y0072126
Y008
X0018437Y01745
X0010563
X001Y0193563
Y0201437
T03
X00195Y0096
Y0106
Y0116
Y0126
X0036Y01265
X0046
X0056
X0066
X0082Y0056
Y0036
T04
X0041677Y01825
X0059
M30
