G04*
G04 #@! TF.GenerationSoftware,Altium Limited,Altium Designer,20.1.14 (287)*
G04*
G04 Layer_Color=65535*
%FSLAX25Y25*%
%MOIN*%
G70*
G04*
G04 #@! TF.SameCoordinates,4531C12C-93FC-4365-9EE7-7E3AE0C659AD*
G04*
G04*
G04 #@! TF.FilePolarity,Positive*
G04*
G01*
G75*
%ADD10C,0.00787*%
%ADD11C,0.01575*%
%ADD12C,0.01181*%
%ADD13C,0.00984*%
%ADD14C,0.01968*%
%ADD15C,0.01000*%
%ADD16R,0.06299X0.01181*%
%ADD17R,0.01181X0.04724*%
%ADD18R,0.04724X0.01181*%
D10*
X85398Y95161D02*
X86264Y96028D01*
X81736D02*
X82602Y95161D01*
X86264Y101972D02*
X85398Y102839D01*
X82602D02*
X81736Y101972D01*
X41988Y113102D02*
X42854Y112236D01*
Y116764D02*
X41988Y115898D01*
X48799Y112236D02*
X49665Y113102D01*
Y115898D02*
X48799Y116764D01*
X34988Y62602D02*
X35854Y61736D01*
Y66264D02*
X34988Y65398D01*
X41799Y61736D02*
X42665Y62602D01*
Y65398D02*
X41799Y66264D01*
X33398Y69161D02*
X34264Y70028D01*
X29736D02*
X30602Y69161D01*
X34264Y75972D02*
X33398Y76839D01*
X30602D02*
X29736Y75972D01*
X52839Y65398D02*
X51972Y66264D01*
Y61736D02*
X52839Y62602D01*
X46028Y66264D02*
X45161Y65398D01*
Y62602D02*
X46028Y61736D01*
X56835Y62602D02*
X57701Y61736D01*
Y66264D02*
X56835Y65398D01*
X63646Y61736D02*
X64512Y62602D01*
Y65398D02*
X63646Y66264D01*
X91398Y125661D02*
X92264Y126528D01*
X87736D02*
X88602Y125661D01*
X92264Y132472D02*
X91398Y133339D01*
X88602D02*
X87736Y132472D01*
X82900Y152004D02*
X84013Y152465D01*
X84474Y153579D01*
X75026D02*
X75487Y152465D01*
X76600Y152004D01*
Y170547D02*
X75487Y170086D01*
X75026Y168973D01*
X84474D02*
X84013Y170086D01*
X82900Y170547D01*
X103772Y196150D02*
X103310Y197263D01*
X102197Y197724D01*
Y188276D02*
X103310Y188737D01*
X103772Y189850D01*
X85228D02*
X85690Y188737D01*
X86803Y188276D01*
Y197724D02*
X85690Y197263D01*
X85228Y196150D01*
X67839Y57898D02*
X66972Y58764D01*
Y54236D02*
X67839Y55102D01*
X61028Y58764D02*
X60161Y57898D01*
Y55102D02*
X61028Y54236D01*
X73398Y53488D02*
X74264Y54354D01*
X69736D02*
X70602Y53488D01*
X74264Y60299D02*
X73398Y61165D01*
X70602D02*
X69736Y60299D01*
X82602Y95161D02*
X85398D01*
X86264Y96047D02*
Y97819D01*
X81736Y96047D02*
Y97819D01*
X86264Y100181D02*
Y101953D01*
X81736Y100181D02*
Y101953D01*
X82602Y102839D02*
X85398D01*
X90236Y91161D02*
Y93819D01*
Y96181D02*
Y98839D01*
X94764Y91161D02*
Y93819D01*
Y96181D02*
Y98839D01*
X90236Y91161D02*
X94764D01*
X90236Y98839D02*
X94764D01*
X41988Y113102D02*
Y115898D01*
X42874Y112236D02*
X44646D01*
X42874Y116764D02*
X44646D01*
X47008Y112236D02*
X48779D01*
X47008Y116764D02*
X48779D01*
X49665Y113102D02*
Y115898D01*
X34988Y62602D02*
Y65398D01*
X35874Y61736D02*
X37646D01*
X35874Y66264D02*
X37646D01*
X40008Y61736D02*
X41780D01*
X40008Y66264D02*
X41780D01*
X42665Y62602D02*
Y65398D01*
X30602Y69161D02*
X33398D01*
X34264Y70047D02*
Y71819D01*
X29736Y70047D02*
Y71819D01*
X34264Y74181D02*
Y75953D01*
X29736Y74181D02*
Y75953D01*
X30602Y76839D02*
X33398D01*
X72335Y116764D02*
X74992D01*
X77354D02*
X80012D01*
X72335Y112236D02*
X74992D01*
X77354D02*
X80012D01*
X72335D02*
Y116764D01*
X80012Y112236D02*
Y116764D01*
X49236Y33661D02*
Y36319D01*
Y38681D02*
Y41339D01*
X53764Y33661D02*
Y36319D01*
Y38681D02*
Y41339D01*
X49236Y33661D02*
X53764D01*
X49236Y41339D02*
X53764D01*
X62736Y33661D02*
Y36319D01*
Y38681D02*
Y41339D01*
X67264Y33661D02*
Y36319D01*
Y38681D02*
Y41339D01*
X62736Y33661D02*
X67264D01*
X62736Y41339D02*
X67264D01*
X16681Y55236D02*
X19339D01*
X11661D02*
X14319D01*
X16681Y59764D02*
X19339D01*
X11661D02*
X14319D01*
X19339Y55236D02*
Y59764D01*
X11661Y55236D02*
Y59764D01*
X16681Y48736D02*
X19339D01*
X11661D02*
X14319D01*
X16681Y53264D02*
X19339D01*
X11661D02*
X14319D01*
X19339Y48736D02*
Y53264D01*
X11661Y48736D02*
Y53264D01*
X5937Y170169D02*
Y178831D01*
Y170169D02*
X23063D01*
Y178831D01*
X5937D02*
X23063D01*
X60925Y23772D02*
Y28043D01*
X61850Y28969D01*
X68150D02*
X69075Y28102D01*
Y23772D02*
Y28102D01*
Y15032D02*
Y20228D01*
X60925Y15032D02*
Y20228D01*
X61850Y28969D02*
X68150D01*
X60925Y15032D02*
X69075D01*
X55575Y16953D02*
Y21224D01*
X54650Y16028D02*
X55575Y16953D01*
X47425Y16894D02*
X48350Y16028D01*
X47425Y16894D02*
Y21224D01*
Y24768D02*
Y29965D01*
X55575Y24768D02*
Y29965D01*
X48350Y16028D02*
X54650D01*
X47425Y29965D02*
X55575D01*
X41161Y156264D02*
X43819D01*
X46181D02*
X48839D01*
X41161Y151736D02*
X43819D01*
X46181D02*
X48839D01*
X41161D02*
Y156264D01*
X48839Y151736D02*
Y156264D01*
X52839Y62602D02*
Y65398D01*
X50181Y66264D02*
X51953D01*
X50181Y61736D02*
X51953D01*
X46047Y66264D02*
X47819D01*
X46047Y61736D02*
X47819D01*
X45161Y62602D02*
Y65398D01*
X69327Y78173D02*
Y99827D01*
X47673Y78173D02*
Y99827D01*
X69327D01*
X47673Y78173D02*
X69327D01*
X56835Y62602D02*
Y65398D01*
X57721Y61736D02*
X59492D01*
X57721Y66264D02*
X59492D01*
X61854Y61736D02*
X63626D01*
X61854Y66264D02*
X63626D01*
X64512Y62602D02*
Y65398D01*
X71591Y121205D02*
Y131795D01*
X30409D02*
X71591D01*
X30409Y121205D02*
Y131795D01*
Y121205D02*
X71591D01*
X73890Y119457D02*
Y123925D01*
Y131543D02*
X80110D01*
X73890Y119457D02*
X80110D01*
X73890Y127075D02*
Y131543D01*
X80110Y119457D02*
Y123925D01*
Y127075D02*
Y131543D01*
X66618Y146110D02*
X67405Y145350D01*
X66618Y139890D02*
X67405Y140650D01*
X63075Y139890D02*
X66618D01*
X55457D02*
Y146110D01*
X67405Y140650D02*
Y145350D01*
X55457Y139890D02*
X59925D01*
X63075Y146110D02*
X66618D01*
X55457D02*
X59925D01*
X88602Y125661D02*
X91398D01*
X92264Y126547D02*
Y128319D01*
X87736Y126547D02*
Y128319D01*
X92264Y130681D02*
Y132453D01*
X87736Y130681D02*
Y132453D01*
X88602Y133339D02*
X91398D01*
X66181Y45236D02*
X68839D01*
X61161D02*
X63819D01*
X66181Y49764D02*
X68839D01*
X61161D02*
X63819D01*
X68839Y45236D02*
Y49764D01*
X61161Y45236D02*
Y49764D01*
X5669Y206063D02*
X14331D01*
X5669Y188937D02*
Y206063D01*
Y188937D02*
X14331D01*
Y206063D01*
X23764Y139181D02*
Y141839D01*
Y134161D02*
Y136819D01*
X19236Y139181D02*
Y141839D01*
Y134161D02*
Y136819D01*
Y141839D02*
X23764D01*
X19236Y134161D02*
X23764D01*
X23850Y147095D02*
X24610Y147882D01*
X18390D02*
X19150Y147095D01*
X18390Y147882D02*
Y151425D01*
Y159043D02*
X24610D01*
X19150Y147095D02*
X23850D01*
X18390Y154575D02*
Y159043D01*
X24610Y147882D02*
Y151425D01*
Y154575D02*
Y159043D01*
X75026Y165213D02*
Y168972D01*
Y153579D02*
Y157339D01*
X84474Y153579D02*
Y157339D01*
Y165213D02*
Y168972D01*
X76600Y152004D02*
X82900D01*
X76600Y170547D02*
X82900D01*
X55390Y160043D02*
X61610D01*
X55390Y147957D02*
Y160043D01*
Y147957D02*
X61610D01*
Y160043D01*
X86803Y188276D02*
X90563D01*
X98437D02*
X102197D01*
X98437Y197724D02*
X102197D01*
X86803D02*
X90563D01*
X103772Y189850D02*
Y196150D01*
X85228Y189850D02*
Y196150D01*
X77000Y29150D02*
Y62850D01*
X87000D01*
Y29150D02*
Y62850D01*
X77000Y29150D02*
X87000D01*
X67839Y55102D02*
Y57898D01*
X65181Y58764D02*
X66953D01*
X65181Y54236D02*
X66953D01*
X61047Y58764D02*
X62819D01*
X61047Y54236D02*
X62819D01*
X60161Y55102D02*
Y57898D01*
X70602Y53488D02*
X73398D01*
X74264Y54374D02*
Y56146D01*
X69736Y54374D02*
Y56146D01*
X74264Y58508D02*
Y60280D01*
X69736Y58508D02*
Y60280D01*
X70602Y61165D02*
X73398D01*
X112575Y52772D02*
Y57968D01*
Y44032D02*
Y49228D01*
X104425Y44032D02*
Y49228D01*
Y52772D02*
Y57968D01*
X112575D01*
X104425Y44032D02*
X112575D01*
X91925D02*
Y49228D01*
Y52772D02*
Y57968D01*
X100075Y52772D02*
Y57968D01*
Y44032D02*
Y49228D01*
X91925Y44032D02*
X100075D01*
X91925Y57968D02*
X100075D01*
X34264Y84181D02*
Y86839D01*
Y79161D02*
Y81819D01*
X29736Y84181D02*
Y86839D01*
Y79161D02*
Y81819D01*
Y86839D02*
X34264D01*
X29736Y79161D02*
X34264D01*
X14205Y90409D02*
X24795D01*
Y131591D01*
X14205D02*
X24795D01*
X14205Y90409D02*
Y131591D01*
X43988Y146264D02*
X46646D01*
X49008D02*
X51665D01*
X43988Y141736D02*
X46646D01*
X49008D02*
X51665D01*
X43988D02*
Y146264D01*
X51665Y141736D02*
Y146264D01*
X87669Y67500D02*
X96331D01*
Y84626D01*
X87669D02*
X96331D01*
X87669Y67500D02*
Y84626D01*
D11*
X51315Y81028D02*
X50771Y81776D01*
X49891Y81490D01*
Y80565D01*
X50771Y80279D01*
X51315Y81028D01*
D12*
X45508Y72169D02*
X44917Y72760D01*
X44327Y72169D01*
X44917Y71579D01*
X45508Y72169D01*
D13*
X82496Y27256D02*
X81758Y27682D01*
Y26830D01*
X82496Y27256D01*
D14*
X37543Y165472D02*
Y205827D01*
Y165472D02*
X63134D01*
Y205827D01*
X37543D02*
X63134D01*
D15*
X31909Y59299D02*
X58091Y59299D01*
X31909Y55756D02*
Y59299D01*
X58091Y55756D02*
Y59299D01*
X31909Y46701D02*
Y50244D01*
X58091Y46701D02*
Y50244D01*
X31909Y46701D02*
X58091Y46701D01*
X105236Y185996D02*
X106953Y184224D01*
X105236Y173004D02*
X106953Y174776D01*
Y184224D01*
X97650Y173004D02*
X105236D01*
X83764D02*
Y185996D01*
X97650D02*
X105236D01*
X83764Y173004D02*
X91350D01*
X83764Y185996D02*
X91350D01*
X105236Y173004D02*
Y185996D01*
X90189Y148677D02*
X113811D01*
X90189D02*
Y159701D01*
X113811D01*
Y148677D02*
Y159701D01*
X6500Y167624D02*
X7025Y168149D01*
X8074D01*
X8599Y167624D01*
Y167099D01*
X8074Y166574D01*
X7549D01*
X8074D01*
X8599Y166050D01*
Y165525D01*
X8074Y165000D01*
X7025D01*
X6500Y165525D01*
X9649Y168149D02*
Y166050D01*
X10698Y165000D01*
X11748Y166050D01*
Y168149D01*
X12797Y167624D02*
X13322Y168149D01*
X14371D01*
X14896Y167624D01*
Y167099D01*
X14371Y166574D01*
X13847D01*
X14371D01*
X14896Y166050D01*
Y165525D01*
X14371Y165000D01*
X13322D01*
X12797Y165525D01*
X26000Y137936D02*
X28624D01*
X27312D01*
Y134000D01*
X29936D02*
Y136624D01*
X31248Y137936D01*
X32560Y136624D01*
Y134000D01*
Y135968D01*
X29936D01*
X33871Y134000D02*
Y137936D01*
X35839D01*
X36495Y137280D01*
Y135968D01*
X35839Y135312D01*
X33871D01*
X35183D02*
X36495Y134000D01*
X40431Y137280D02*
X39775Y137936D01*
X38463D01*
X37807Y137280D01*
Y134656D01*
X38463Y134000D01*
X39775D01*
X40431Y134656D01*
Y135968D01*
X39119D01*
X44367Y137936D02*
X41743D01*
Y134000D01*
X44367D01*
X41743Y135968D02*
X43055D01*
X45679Y137936D02*
X48303D01*
X46991D01*
Y134000D01*
X53550Y137936D02*
Y134000D01*
Y135968D01*
X56174D01*
Y137936D01*
Y134000D01*
X60110Y137936D02*
X57486D01*
Y134000D01*
X60110D01*
X57486Y135968D02*
X58798D01*
X61422Y134000D02*
Y136624D01*
X62734Y137936D01*
X64046Y136624D01*
Y134000D01*
Y135968D01*
X61422D01*
X65357Y137936D02*
Y134000D01*
X67325D01*
X67981Y134656D01*
Y137280D01*
X67325Y137936D01*
X65357D01*
X71917D02*
X69293D01*
Y134000D01*
X71917D01*
X69293Y135968D02*
X70605D01*
X73229Y134000D02*
Y137936D01*
X75197D01*
X75853Y137280D01*
Y135968D01*
X75197Y135312D01*
X73229D01*
X74541D02*
X75853Y134000D01*
X6624Y116936D02*
X4000D01*
Y114968D01*
X5312D01*
X4000D01*
Y113000D01*
X7936Y116936D02*
Y113000D01*
X9248Y114312D01*
X10560Y113000D01*
Y116936D01*
X21344Y182500D02*
X17408D01*
Y184468D01*
X18064Y185124D01*
X19376D01*
X20032Y184468D01*
Y182500D01*
Y183812D02*
X21344Y185124D01*
X17408Y189060D02*
Y186436D01*
X21344D01*
Y189060D01*
X19376Y186436D02*
Y187748D01*
X18064Y192995D02*
X17408Y192339D01*
Y191027D01*
X18064Y190372D01*
X20688D01*
X21344Y191027D01*
Y192339D01*
X20688Y192995D01*
X19376D01*
Y191683D01*
X22000Y194307D02*
Y196931D01*
X17408Y200867D02*
Y198243D01*
X21344D01*
Y200867D01*
X19376Y198243D02*
Y199555D01*
X21344Y202179D02*
X17408D01*
X21344Y204802D01*
X17408D01*
X80500Y73649D02*
X82599D01*
X81550D01*
Y70500D01*
X83649Y73649D02*
X85748Y70500D01*
Y73649D02*
X83649Y70500D01*
X80500Y80000D02*
Y83149D01*
X82074D01*
X82599Y82624D01*
Y81574D01*
X82074Y81050D01*
X80500D01*
X81550D02*
X82599Y80000D01*
X83649Y83149D02*
X85748Y80000D01*
Y83149D02*
X83649Y80000D01*
X23901Y55074D02*
Y54549D01*
X24950Y53500D01*
X26000Y54549D01*
Y55074D01*
X24950Y53500D02*
Y51926D01*
X27049D02*
X28099D01*
X27574D01*
Y55074D01*
X27049Y54549D01*
X82237Y112926D02*
Y116074D01*
X83812D01*
X84337Y115550D01*
Y114500D01*
X83812Y113975D01*
X82237D01*
X83287D02*
X84337Y112926D01*
X85386D02*
X86436D01*
X85911D01*
Y116074D01*
X85386Y115550D01*
X89584Y112926D02*
Y116074D01*
X88010Y114500D01*
X90109D01*
X9064Y136752D02*
Y139901D01*
X10639D01*
X11163Y139376D01*
Y138327D01*
X10639Y137802D01*
X9064D01*
X10114D02*
X11163Y136752D01*
X12213D02*
X13262D01*
X12738D01*
Y139901D01*
X12213Y139376D01*
X14837D02*
X15361Y139901D01*
X16411D01*
X16936Y139376D01*
Y138851D01*
X16411Y138327D01*
X15886D01*
X16411D01*
X16936Y137802D01*
Y137277D01*
X16411Y136752D01*
X15361D01*
X14837Y137277D01*
X41589Y158426D02*
Y161574D01*
X43163D01*
X43688Y161049D01*
Y160000D01*
X43163Y159475D01*
X41589D01*
X42639D02*
X43688Y158426D01*
X44738D02*
X45787D01*
X45262D01*
Y161574D01*
X44738Y161049D01*
X47361Y158426D02*
X48411D01*
X47886D01*
Y161574D01*
X47361Y161049D01*
X3876Y49426D02*
Y52574D01*
X5451D01*
X5975Y52049D01*
Y51000D01*
X5451Y50475D01*
X3876D01*
X4926D02*
X5975Y49426D01*
X7025Y49951D02*
X7549Y49426D01*
X8599D01*
X9124Y49951D01*
Y52049D01*
X8599Y52574D01*
X7549D01*
X7025Y52049D01*
Y51525D01*
X7549Y51000D01*
X9124D01*
X4376Y55926D02*
Y59074D01*
X5951D01*
X6475Y58549D01*
Y57500D01*
X5951Y56975D01*
X4376D01*
X5426D02*
X6475Y55926D01*
X7525Y58549D02*
X8049Y59074D01*
X9099D01*
X9624Y58549D01*
Y58025D01*
X9099Y57500D01*
X9624Y56975D01*
Y56450D01*
X9099Y55926D01*
X8049D01*
X7525Y56450D01*
Y56975D01*
X8049Y57500D01*
X7525Y58025D01*
Y58549D01*
X8049Y57500D02*
X9099D01*
X97376Y93926D02*
Y97074D01*
X98950D01*
X99475Y96549D01*
Y95500D01*
X98950Y94975D01*
X97376D01*
X98426D02*
X99475Y93926D01*
X100525Y97074D02*
X102624D01*
Y96549D01*
X100525Y94450D01*
Y93926D01*
X69376Y36426D02*
Y39574D01*
X70951D01*
X71475Y39050D01*
Y38000D01*
X70951Y37475D01*
X69376D01*
X70426D02*
X71475Y36426D01*
X74624Y39574D02*
X73574Y39050D01*
X72525Y38000D01*
Y36950D01*
X73049Y36426D01*
X74099D01*
X74624Y36950D01*
Y37475D01*
X74099Y38000D01*
X72525D01*
X41376Y35926D02*
Y39074D01*
X42950D01*
X43475Y38550D01*
Y37500D01*
X42950Y36975D01*
X41376D01*
X42426D02*
X43475Y35926D01*
X46624Y39074D02*
X44525D01*
Y37500D01*
X45574Y38025D01*
X46099D01*
X46624Y37500D01*
Y36450D01*
X46099Y35926D01*
X45050D01*
X44525Y36450D01*
X30300Y90200D02*
Y93349D01*
X31874D01*
X32399Y92824D01*
Y91774D01*
X31874Y91250D01*
X30300D01*
X31350D02*
X32399Y90200D01*
X33449Y92824D02*
X33973Y93349D01*
X35023D01*
X35548Y92824D01*
Y92299D01*
X35023Y91774D01*
X34498D01*
X35023D01*
X35548Y91250D01*
Y90725D01*
X35023Y90200D01*
X33973D01*
X33449Y90725D01*
X92500Y61400D02*
Y64549D01*
X94074D01*
X94599Y64024D01*
Y62974D01*
X94074Y62450D01*
X92500D01*
X93550D02*
X94599Y61400D01*
X97748D02*
X95649D01*
X97748Y63499D01*
Y64024D01*
X97223Y64549D01*
X96173D01*
X95649Y64024D01*
X105000Y61400D02*
Y64549D01*
X106574D01*
X107099Y64024D01*
Y62974D01*
X106574Y62450D01*
X105000D01*
X106050D02*
X107099Y61400D01*
X108149D02*
X109198D01*
X108673D01*
Y64549D01*
X108149Y64024D01*
X64401Y155574D02*
Y152426D01*
X66500D01*
X67550D02*
X68599D01*
X68074D01*
Y155574D01*
X67550Y155050D01*
X62876Y7574D02*
Y4426D01*
X64451D01*
X64975Y4950D01*
Y7050D01*
X64451Y7574D01*
X62876D01*
X68124Y4426D02*
X66025D01*
X68124Y6525D01*
Y7050D01*
X67599Y7574D01*
X66549D01*
X66025Y7050D01*
X49401Y7574D02*
Y4426D01*
X50975D01*
X51500Y4950D01*
Y7050D01*
X50975Y7574D01*
X49401D01*
X52549Y4426D02*
X53599D01*
X53074D01*
Y7574D01*
X52549Y7050D01*
X83049Y22074D02*
X83574Y22599D01*
Y23649D01*
X83049Y24173D01*
X80950D01*
X80426Y23649D01*
Y22599D01*
X80950Y22074D01*
X83574Y21025D02*
X80426D01*
Y19451D01*
X80950Y18926D01*
X81475D01*
X82000Y19451D01*
Y21025D01*
Y19451D01*
X82525Y18926D01*
X83049D01*
X83574Y19451D01*
Y21025D01*
X80426Y17876D02*
Y16827D01*
Y17351D01*
X83574D01*
X83049Y17876D01*
X108663Y194050D02*
X108139Y194574D01*
X107089D01*
X106564Y194050D01*
Y191951D01*
X107089Y191426D01*
X108139D01*
X108663Y191951D01*
X109713Y191426D02*
X110762D01*
X110238D01*
Y194574D01*
X109713Y194050D01*
X114436Y191426D02*
X112337D01*
X114436Y193525D01*
Y194050D01*
X113911Y194574D01*
X112861D01*
X112337Y194050D01*
X97188Y130050D02*
X96663Y130574D01*
X95614D01*
X95089Y130050D01*
Y127951D01*
X95614Y127426D01*
X96663D01*
X97188Y127951D01*
X98238Y127426D02*
X99287D01*
X98762D01*
Y130574D01*
X98238Y130050D01*
X100862Y127426D02*
X101911D01*
X101386D01*
Y130574D01*
X100862Y130050D01*
X67163Y161049D02*
X66639Y161574D01*
X65589D01*
X65064Y161049D01*
Y158950D01*
X65589Y158426D01*
X66639D01*
X67163Y158950D01*
X68213Y158426D02*
X69262D01*
X68738D01*
Y161574D01*
X68213Y161049D01*
X70837D02*
X71362Y161574D01*
X72411D01*
X72936Y161049D01*
Y158950D01*
X72411Y158426D01*
X71362D01*
X70837Y158950D01*
Y161049D01*
X111475Y175049D02*
X110951Y175574D01*
X109901D01*
X109376Y175049D01*
Y172950D01*
X109901Y172426D01*
X110951D01*
X111475Y172950D01*
X112525D02*
X113049Y172426D01*
X114099D01*
X114624Y172950D01*
Y175049D01*
X114099Y175574D01*
X113049D01*
X112525Y175049D01*
Y174525D01*
X113049Y174000D01*
X114624D01*
X36975Y115550D02*
X36450Y116074D01*
X35401D01*
X34876Y115550D01*
Y113451D01*
X35401Y112926D01*
X36450D01*
X36975Y113451D01*
X38025Y116074D02*
X40124D01*
Y115550D01*
X38025Y113451D01*
Y112926D01*
X83475Y108049D02*
X82951Y108574D01*
X81901D01*
X81376Y108049D01*
Y105950D01*
X81901Y105426D01*
X82951D01*
X83475Y105950D01*
X86624Y108574D02*
X84525D01*
Y107000D01*
X85574Y107525D01*
X86099D01*
X86624Y107000D01*
Y105950D01*
X86099Y105426D01*
X85049D01*
X84525Y105950D01*
X29475Y65049D02*
X28951Y65574D01*
X27901D01*
X27376Y65049D01*
Y62950D01*
X27901Y62426D01*
X28951D01*
X29475Y62950D01*
X32099Y62426D02*
Y65574D01*
X30525Y64000D01*
X32624D01*
X23975Y74223D02*
X23450Y74748D01*
X22401D01*
X21876Y74223D01*
Y72124D01*
X22401Y71599D01*
X23450D01*
X23975Y72124D01*
X25025Y74223D02*
X25550Y74748D01*
X26599D01*
X27124Y74223D01*
Y73698D01*
X26599Y73173D01*
X26074D01*
X26599D01*
X27124Y72649D01*
Y72124D01*
X26599Y71599D01*
X25550D01*
X25025Y72124D01*
D16*
X65000Y30248D02*
D03*
X51500Y14748D02*
D03*
D17*
X68685Y143000D02*
D03*
D18*
X21500Y145815D02*
D03*
M02*
