G04*
G04 #@! TF.GenerationSoftware,Altium Limited,Altium Designer,20.1.14 (287)*
G04*
G04 Layer_Color=32768*
%FSLAX25Y25*%
%MOIN*%
G70*
G04*
G04 #@! TF.SameCoordinates,4531C12C-93FC-4365-9EE7-7E3AE0C659AD*
G04*
G04*
G04 #@! TF.FilePolarity,Positive*
G04*
G01*
G75*
%ADD74C,0.00800*%
%ADD75C,0.00197*%
D74*
X65000Y10189D02*
Y14126D01*
X63032Y12157D02*
X66969D01*
X63032Y31842D02*
X66969D01*
X51500Y30870D02*
Y34807D01*
X49531Y32839D02*
X53469D01*
X49531Y13153D02*
X53469D01*
X50476Y143000D02*
X54413D01*
X52445Y141032D02*
Y144968D01*
X70161Y141032D02*
Y144968D01*
X21500Y160087D02*
Y164024D01*
X19532Y162055D02*
X23469D01*
X19532Y144339D02*
X23469D01*
X110248Y177532D02*
Y181468D01*
X108280Y179500D02*
X112216D01*
X82000Y177433D02*
Y181370D01*
D75*
X49031Y126500D02*
X52969D01*
X51000Y124531D02*
Y128469D01*
X29622Y132583D02*
X72378D01*
Y120417D02*
Y132583D01*
X29622Y120417D02*
X72378D01*
X29622D02*
Y132583D01*
X19500Y109031D02*
Y112969D01*
X17531Y111000D02*
X21468D01*
X25583Y89622D02*
Y132378D01*
X13417Y89622D02*
X25583D01*
X13417D02*
Y132378D01*
X25583D01*
M02*
