G04*
G04 #@! TF.GenerationSoftware,Altium Limited,Altium Designer,20.1.14 (287)*
G04*
G04 Layer_Color=16711935*
%FSLAX25Y25*%
%MOIN*%
G70*
G04*
G04 #@! TF.SameCoordinates,4531C12C-93FC-4365-9EE7-7E3AE0C659AD*
G04*
G04*
G04 #@! TF.FilePolarity,Positive*
G04*
G01*
G75*
%ADD10C,0.00787*%
G36*
X15885Y174603D02*
Y174600D01*
Y174589D01*
Y174572D01*
X15883Y174551D01*
Y174525D01*
X15881Y174494D01*
X15878Y174460D01*
X15876Y174423D01*
X15870Y174385D01*
X15867Y174345D01*
X15852Y174263D01*
X15843Y174223D01*
X15832Y174185D01*
X15821Y174148D01*
X15807Y174114D01*
Y174112D01*
X15803Y174107D01*
X15800Y174097D01*
X15792Y174085D01*
X15785Y174070D01*
X15774Y174054D01*
X15761Y174036D01*
X15748Y174015D01*
X15732Y173995D01*
X15714Y173974D01*
X15694Y173952D01*
X15672Y173930D01*
X15648Y173908D01*
X15623Y173888D01*
X15596Y173868D01*
X15565Y173850D01*
X15563Y173848D01*
X15557Y173846D01*
X15548Y173841D01*
X15536Y173835D01*
X15519Y173828D01*
X15501Y173821D01*
X15479Y173813D01*
X15454Y173804D01*
X15426Y173795D01*
X15397Y173788D01*
X15364Y173781D01*
X15332Y173773D01*
X15295Y173768D01*
X15257Y173763D01*
X15219Y173761D01*
X15177Y173759D01*
X15163D01*
X15146Y173761D01*
X15122Y173763D01*
X15095Y173764D01*
X15062Y173770D01*
X15026Y173775D01*
X14988Y173783D01*
X14948Y173793D01*
X14906Y173804D01*
X14864Y173821D01*
X14822Y173839D01*
X14780Y173861D01*
X14740Y173886D01*
X14702Y173915D01*
X14667Y173948D01*
X14666Y173950D01*
X14660Y173957D01*
X14651Y173968D01*
X14640Y173985D01*
X14627Y174005D01*
X14613Y174028D01*
X14596Y174057D01*
X14582Y174090D01*
X14566Y174128D01*
X14549Y174170D01*
X14536Y174217D01*
X14524Y174268D01*
X14513Y174323D01*
X14505Y174383D01*
X14500Y174447D01*
Y174514D01*
X14800Y174556D01*
Y174552D01*
Y174543D01*
X14802Y174529D01*
X14804Y174509D01*
X14806Y174485D01*
X14809Y174460D01*
X14813Y174431D01*
X14818Y174398D01*
X14831Y174332D01*
X14849Y174267D01*
X14862Y174238D01*
X14875Y174208D01*
X14891Y174183D01*
X14908Y174161D01*
X14909Y174159D01*
X14911Y174158D01*
X14919Y174152D01*
X14926Y174145D01*
X14935Y174137D01*
X14948Y174128D01*
X14961Y174117D01*
X14977Y174108D01*
X14995Y174099D01*
X15015Y174088D01*
X15037Y174079D01*
X15061Y174072D01*
X15088Y174065D01*
X15115Y174061D01*
X15144Y174057D01*
X15175Y174056D01*
X15188D01*
X15197Y174057D01*
X15208D01*
X15221Y174059D01*
X15250Y174063D01*
X15283Y174070D01*
X15319Y174079D01*
X15357Y174094D01*
X15392Y174112D01*
X15394D01*
X15395Y174116D01*
X15406Y174123D01*
X15423Y174136D01*
X15441Y174154D01*
X15463Y174176D01*
X15483Y174203D01*
X15503Y174234D01*
X15517Y174268D01*
Y174270D01*
X15519Y174274D01*
X15521Y174279D01*
X15523Y174287D01*
X15525Y174298D01*
X15528Y174310D01*
X15532Y174327D01*
X15536Y174345D01*
X15537Y174365D01*
X15541Y174389D01*
X15545Y174414D01*
X15547Y174443D01*
X15548Y174474D01*
X15550Y174507D01*
X15552Y174543D01*
Y174583D01*
Y176320D01*
X15885D01*
Y174603D01*
D02*
G37*
G36*
X17468Y173801D02*
X17159D01*
Y175770D01*
X17157Y175768D01*
X17154Y175765D01*
X17148Y175759D01*
X17139Y175752D01*
X17128Y175743D01*
X17113Y175730D01*
X17097Y175717D01*
X17081Y175703D01*
X17059Y175688D01*
X17037Y175670D01*
X17013Y175654D01*
X16988Y175634D01*
X16959Y175615D01*
X16930Y175595D01*
X16864Y175555D01*
X16862Y175553D01*
X16857Y175550D01*
X16846Y175544D01*
X16833Y175539D01*
X16819Y175530D01*
X16801Y175519D01*
X16779Y175508D01*
X16757Y175495D01*
X16706Y175470D01*
X16651Y175444D01*
X16595Y175419D01*
X16540Y175397D01*
Y175695D01*
X16544Y175697D01*
X16551Y175701D01*
X16566Y175708D01*
X16584Y175717D01*
X16606Y175728D01*
X16633Y175743D01*
X16662Y175759D01*
X16693Y175777D01*
X16728Y175799D01*
X16764Y175821D01*
X16840Y175872D01*
X16919Y175928D01*
X16993Y175990D01*
X16995Y175992D01*
X17003Y175997D01*
X17012Y176007D01*
X17024Y176019D01*
X17041Y176036D01*
X17059Y176054D01*
X17079Y176076D01*
X17101Y176098D01*
X17123Y176123D01*
X17146Y176150D01*
X17192Y176207D01*
X17234Y176267D01*
X17252Y176298D01*
X17268Y176329D01*
X17468D01*
Y173801D01*
D02*
G37*
G36*
X10056Y197200D02*
X10052D01*
X10043D01*
X10029Y197198D01*
X10009Y197196D01*
X9985Y197194D01*
X9960Y197191D01*
X9930Y197187D01*
X9898Y197181D01*
X9832Y197169D01*
X9767Y197151D01*
X9737Y197138D01*
X9708Y197125D01*
X9683Y197109D01*
X9661Y197092D01*
X9659Y197090D01*
X9657Y197089D01*
X9652Y197081D01*
X9645Y197074D01*
X9637Y197065D01*
X9628Y197052D01*
X9617Y197039D01*
X9608Y197023D01*
X9599Y197005D01*
X9588Y196985D01*
X9579Y196963D01*
X9572Y196939D01*
X9565Y196912D01*
X9561Y196885D01*
X9557Y196856D01*
X9556Y196825D01*
Y196812D01*
X9557Y196803D01*
Y196792D01*
X9559Y196779D01*
X9563Y196750D01*
X9570Y196717D01*
X9579Y196681D01*
X9594Y196643D01*
X9612Y196608D01*
Y196606D01*
X9616Y196605D01*
X9623Y196594D01*
X9636Y196577D01*
X9654Y196559D01*
X9676Y196537D01*
X9703Y196517D01*
X9734Y196497D01*
X9769Y196483D01*
X9770D01*
X9774Y196481D01*
X9779Y196479D01*
X9787Y196477D01*
X9798Y196475D01*
X9810Y196472D01*
X9827Y196468D01*
X9845Y196464D01*
X9865Y196463D01*
X9889Y196459D01*
X9914Y196455D01*
X9943Y196453D01*
X9974Y196452D01*
X10007Y196450D01*
X10043Y196448D01*
X10083D01*
X11820D01*
Y196115D01*
X10103D01*
X10100D01*
X10089D01*
X10072D01*
X10051Y196117D01*
X10025D01*
X9994Y196119D01*
X9960Y196122D01*
X9923Y196124D01*
X9885Y196130D01*
X9845Y196133D01*
X9763Y196148D01*
X9723Y196157D01*
X9685Y196168D01*
X9648Y196179D01*
X9614Y196193D01*
X9612D01*
X9606Y196197D01*
X9597Y196201D01*
X9585Y196208D01*
X9570Y196215D01*
X9554Y196226D01*
X9535Y196239D01*
X9516Y196251D01*
X9495Y196268D01*
X9474Y196286D01*
X9452Y196306D01*
X9430Y196328D01*
X9408Y196352D01*
X9388Y196377D01*
X9368Y196404D01*
X9350Y196435D01*
X9348Y196437D01*
X9346Y196443D01*
X9341Y196452D01*
X9335Y196464D01*
X9328Y196481D01*
X9321Y196499D01*
X9313Y196521D01*
X9304Y196546D01*
X9295Y196574D01*
X9288Y196603D01*
X9281Y196635D01*
X9273Y196668D01*
X9268Y196705D01*
X9262Y196743D01*
X9261Y196781D01*
X9259Y196823D01*
Y196837D01*
X9261Y196854D01*
X9262Y196878D01*
X9264Y196905D01*
X9270Y196938D01*
X9275Y196974D01*
X9283Y197012D01*
X9294Y197052D01*
X9304Y197094D01*
X9321Y197136D01*
X9339Y197178D01*
X9361Y197220D01*
X9386Y197260D01*
X9415Y197298D01*
X9448Y197333D01*
X9450Y197334D01*
X9457Y197340D01*
X9468Y197349D01*
X9485Y197360D01*
X9505Y197373D01*
X9528Y197387D01*
X9557Y197404D01*
X9590Y197418D01*
X9628Y197434D01*
X9670Y197451D01*
X9718Y197464D01*
X9769Y197476D01*
X9823Y197487D01*
X9883Y197494D01*
X9947Y197500D01*
X10014D01*
X10056Y197200D01*
D02*
G37*
G36*
X11820Y194648D02*
Y194395D01*
X10187D01*
Y194055D01*
X9903D01*
Y194395D01*
X9301D01*
Y194704D01*
X9903D01*
Y195797D01*
X10187D01*
X11820Y194648D01*
D02*
G37*
G36*
X91986Y79515D02*
X92008Y79514D01*
X92037Y79510D01*
X92070Y79505D01*
X92106Y79497D01*
X92146Y79486D01*
X92190Y79474D01*
X92233Y79459D01*
X92281Y79439D01*
X92328Y79415D01*
X92375Y79388D01*
X92423Y79355D01*
X92468Y79317D01*
X92512Y79275D01*
X92514Y79272D01*
X92521Y79264D01*
X92534Y79252D01*
X92548Y79232D01*
X92565Y79208D01*
X92585Y79181D01*
X92605Y79146D01*
X92626Y79110D01*
X92648Y79068D01*
X92668Y79021D01*
X92688Y78971D01*
X92705Y78917D01*
X92719Y78860D01*
X92732Y78799D01*
X92739Y78735D01*
X92741Y78667D01*
Y78653D01*
X92739Y78635D01*
X92738Y78613D01*
X92736Y78584D01*
X92730Y78551D01*
X92725Y78514D01*
X92716Y78474D01*
X92707Y78433D01*
X92694Y78387D01*
X92677Y78342D01*
X92657Y78294D01*
X92636Y78249D01*
X92610Y78203D01*
X92579Y78158D01*
X92545Y78116D01*
X92543Y78114D01*
X92536Y78107D01*
X92524Y78096D01*
X92508Y78081D01*
X92488Y78065D01*
X92465Y78045D01*
X92437Y78025D01*
X92406Y78003D01*
X92372Y77981D01*
X92332Y77959D01*
X92290Y77939D01*
X92244Y77919D01*
X92195Y77903D01*
X92144Y77887D01*
X92089Y77876D01*
X92031Y77868D01*
X91989Y78178D01*
X91993D01*
X92000Y78180D01*
X92015Y78183D01*
X92033Y78189D01*
X92055Y78194D01*
X92079Y78202D01*
X92106Y78211D01*
X92135Y78220D01*
X92199Y78245D01*
X92261Y78276D01*
X92292Y78294D01*
X92321Y78314D01*
X92346Y78334D01*
X92370Y78358D01*
X92372Y78360D01*
X92375Y78364D01*
X92381Y78371D01*
X92388Y78382D01*
X92397Y78393D01*
X92406Y78409D01*
X92417Y78425D01*
X92426Y78445D01*
X92437Y78467D01*
X92448Y78491D01*
X92457Y78516D01*
X92466Y78544D01*
X92474Y78573D01*
X92479Y78604D01*
X92483Y78635D01*
X92484Y78669D01*
Y78678D01*
X92483Y78691D01*
Y78706D01*
X92479Y78726D01*
X92477Y78747D01*
X92472Y78771D01*
X92466Y78799D01*
X92457Y78826D01*
X92448Y78857D01*
X92435Y78888D01*
X92421Y78919D01*
X92403Y78949D01*
X92383Y78980D01*
X92361Y79010D01*
X92333Y79039D01*
X92332Y79040D01*
X92326Y79046D01*
X92319Y79053D01*
X92306Y79062D01*
X92292Y79073D01*
X92273Y79086D01*
X92253Y79101D01*
X92230Y79115D01*
X92204Y79128D01*
X92175Y79142D01*
X92146Y79155D01*
X92111Y79166D01*
X92077Y79175D01*
X92040Y79182D01*
X92000Y79188D01*
X91960Y79190D01*
X91958D01*
X91951D01*
X91940D01*
X91924Y79188D01*
X91908Y79186D01*
X91886Y79182D01*
X91862Y79179D01*
X91837Y79172D01*
X91809Y79164D01*
X91780Y79155D01*
X91751Y79144D01*
X91722Y79132D01*
X91693Y79115D01*
X91664Y79095D01*
X91636Y79075D01*
X91609Y79050D01*
X91607Y79048D01*
X91604Y79044D01*
X91596Y79035D01*
X91587Y79024D01*
X91576Y79011D01*
X91565Y78995D01*
X91553Y78975D01*
X91540Y78953D01*
X91527Y78930D01*
X91514Y78902D01*
X91504Y78873D01*
X91493Y78842D01*
X91483Y78809D01*
X91476Y78773D01*
X91473Y78737D01*
X91471Y78697D01*
Y78680D01*
X91473Y78662D01*
X91474Y78636D01*
X91478Y78604D01*
X91485Y78567D01*
X91493Y78526D01*
X91504Y78478D01*
X91232Y78513D01*
Y78518D01*
X91234Y78524D01*
Y78531D01*
X91236Y78547D01*
Y78582D01*
X91234Y78595D01*
X91232Y78613D01*
X91230Y78633D01*
X91227Y78655D01*
X91223Y78680D01*
X91218Y78707D01*
X91211Y78735D01*
X91192Y78795D01*
X91181Y78826D01*
X91167Y78857D01*
X91152Y78888D01*
X91134Y78917D01*
X91132Y78919D01*
X91129Y78924D01*
X91123Y78931D01*
X91114Y78942D01*
X91103Y78953D01*
X91090Y78968D01*
X91074Y78980D01*
X91056Y78997D01*
X91034Y79011D01*
X91010Y79026D01*
X90985Y79039D01*
X90956Y79050D01*
X90925Y79061D01*
X90890Y79068D01*
X90854Y79073D01*
X90816Y79075D01*
X90814D01*
X90808D01*
X90799D01*
X90786Y79073D01*
X90774Y79071D01*
X90755Y79070D01*
X90737Y79066D01*
X90717Y79061D01*
X90674Y79046D01*
X90650Y79037D01*
X90626Y79026D01*
X90603Y79013D01*
X90579Y78997D01*
X90557Y78979D01*
X90535Y78959D01*
X90534Y78957D01*
X90530Y78953D01*
X90524Y78948D01*
X90517Y78939D01*
X90510Y78926D01*
X90499Y78913D01*
X90490Y78897D01*
X90479Y78878D01*
X90468Y78859D01*
X90459Y78837D01*
X90448Y78811D01*
X90441Y78786D01*
X90433Y78757D01*
X90428Y78728D01*
X90424Y78695D01*
X90422Y78662D01*
Y78644D01*
X90424Y78633D01*
X90426Y78616D01*
X90428Y78598D01*
X90431Y78578D01*
X90437Y78556D01*
X90450Y78509D01*
X90459Y78485D01*
X90472Y78460D01*
X90484Y78434D01*
X90499Y78409D01*
X90517Y78385D01*
X90537Y78362D01*
X90539Y78360D01*
X90543Y78356D01*
X90550Y78351D01*
X90559Y78342D01*
X90570Y78333D01*
X90584Y78322D01*
X90603Y78311D01*
X90621Y78298D01*
X90645Y78285D01*
X90670Y78272D01*
X90697Y78258D01*
X90728Y78247D01*
X90761Y78234D01*
X90795Y78225D01*
X90834Y78216D01*
X90876Y78209D01*
X90821Y77899D01*
X90819D01*
X90817D01*
X90806Y77903D01*
X90792Y77907D01*
X90770Y77912D01*
X90743Y77919D01*
X90714Y77929D01*
X90681Y77939D01*
X90645Y77952D01*
X90606Y77969D01*
X90566Y77987D01*
X90526Y78009D01*
X90486Y78032D01*
X90446Y78058D01*
X90408Y78087D01*
X90372Y78120D01*
X90339Y78156D01*
X90337Y78158D01*
X90331Y78165D01*
X90322Y78176D01*
X90311Y78192D01*
X90299Y78212D01*
X90284Y78236D01*
X90270Y78263D01*
X90253Y78294D01*
X90237Y78329D01*
X90222Y78367D01*
X90208Y78407D01*
X90195Y78451D01*
X90184Y78498D01*
X90175Y78549D01*
X90169Y78602D01*
X90168Y78657D01*
Y78676D01*
X90169Y78691D01*
Y78709D01*
X90173Y78731D01*
X90175Y78755D01*
X90179Y78780D01*
X90184Y78809D01*
X90189Y78838D01*
X90206Y78902D01*
X90215Y78937D01*
X90228Y78970D01*
X90240Y79002D01*
X90257Y79035D01*
X90259Y79037D01*
X90260Y79042D01*
X90266Y79051D01*
X90273Y79064D01*
X90282Y79079D01*
X90293Y79095D01*
X90306Y79113D01*
X90320Y79133D01*
X90355Y79177D01*
X90397Y79221D01*
X90444Y79263D01*
X90472Y79283D01*
X90499Y79301D01*
X90501Y79303D01*
X90506Y79304D01*
X90513Y79310D01*
X90526Y79315D01*
X90539Y79323D01*
X90557Y79330D01*
X90575Y79339D01*
X90597Y79348D01*
X90621Y79355D01*
X90645Y79365D01*
X90699Y79379D01*
X90759Y79390D01*
X90790Y79392D01*
X90823Y79394D01*
X90825D01*
X90830D01*
X90839D01*
X90850Y79392D01*
X90865D01*
X90881Y79388D01*
X90901Y79386D01*
X90921Y79383D01*
X90968Y79372D01*
X91018Y79355D01*
X91043Y79346D01*
X91070Y79334D01*
X91096Y79321D01*
X91121Y79304D01*
X91123Y79303D01*
X91127Y79301D01*
X91134Y79295D01*
X91143Y79288D01*
X91154Y79279D01*
X91167Y79268D01*
X91181Y79255D01*
X91198Y79239D01*
X91214Y79223D01*
X91230Y79203D01*
X91249Y79182D01*
X91267Y79159D01*
X91283Y79133D01*
X91302Y79106D01*
X91318Y79077D01*
X91332Y79046D01*
Y79048D01*
X91334Y79055D01*
X91338Y79068D01*
X91343Y79082D01*
X91349Y79102D01*
X91358Y79124D01*
X91367Y79148D01*
X91380Y79173D01*
X91392Y79201D01*
X91409Y79230D01*
X91425Y79259D01*
X91445Y79288D01*
X91467Y79315D01*
X91491Y79343D01*
X91518Y79370D01*
X91547Y79394D01*
X91549Y79395D01*
X91554Y79399D01*
X91564Y79404D01*
X91576Y79414D01*
X91593Y79423D01*
X91611Y79434D01*
X91633Y79445D01*
X91658Y79456D01*
X91687Y79466D01*
X91718Y79479D01*
X91751Y79488D01*
X91787Y79497D01*
X91826Y79506D01*
X91866Y79512D01*
X91908Y79515D01*
X91953Y79517D01*
X91957D01*
X91968D01*
X91986Y79515D01*
D02*
G37*
G36*
X91946Y77446D02*
X91971D01*
X92002Y77444D01*
X92037Y77441D01*
X92073Y77439D01*
X92111Y77434D01*
X92151Y77430D01*
X92233Y77415D01*
X92273Y77406D01*
X92312Y77395D01*
X92348Y77384D01*
X92383Y77370D01*
X92384D01*
X92390Y77366D01*
X92399Y77363D01*
X92412Y77355D01*
X92426Y77348D01*
X92443Y77337D01*
X92461Y77324D01*
X92481Y77311D01*
X92501Y77295D01*
X92523Y77277D01*
X92545Y77257D01*
X92566Y77235D01*
X92588Y77211D01*
X92608Y77186D01*
X92628Y77159D01*
X92646Y77128D01*
X92648Y77126D01*
X92650Y77120D01*
X92656Y77111D01*
X92661Y77099D01*
X92668Y77082D01*
X92676Y77064D01*
X92683Y77042D01*
X92692Y77017D01*
X92701Y76989D01*
X92708Y76960D01*
X92716Y76928D01*
X92723Y76895D01*
X92728Y76858D01*
X92734Y76820D01*
X92736Y76782D01*
X92738Y76740D01*
Y76726D01*
X92736Y76709D01*
X92734Y76685D01*
X92732Y76658D01*
X92726Y76625D01*
X92721Y76589D01*
X92714Y76551D01*
X92703Y76511D01*
X92692Y76469D01*
X92676Y76427D01*
X92657Y76385D01*
X92636Y76343D01*
X92610Y76303D01*
X92581Y76265D01*
X92548Y76230D01*
X92546Y76229D01*
X92539Y76223D01*
X92528Y76214D01*
X92512Y76203D01*
X92492Y76190D01*
X92468Y76176D01*
X92439Y76160D01*
X92406Y76145D01*
X92368Y76129D01*
X92326Y76112D01*
X92279Y76099D01*
X92228Y76087D01*
X92173Y76076D01*
X92113Y76069D01*
X92049Y76063D01*
X91982D01*
X91940Y76363D01*
X91944D01*
X91953D01*
X91968Y76365D01*
X91988Y76367D01*
X92011Y76369D01*
X92037Y76372D01*
X92066Y76376D01*
X92099Y76381D01*
X92164Y76394D01*
X92230Y76412D01*
X92259Y76425D01*
X92288Y76438D01*
X92313Y76454D01*
X92335Y76471D01*
X92337Y76473D01*
X92339Y76474D01*
X92344Y76482D01*
X92352Y76489D01*
X92359Y76498D01*
X92368Y76511D01*
X92379Y76524D01*
X92388Y76540D01*
X92397Y76558D01*
X92408Y76578D01*
X92417Y76600D01*
X92424Y76624D01*
X92432Y76651D01*
X92435Y76678D01*
X92439Y76707D01*
X92441Y76738D01*
Y76751D01*
X92439Y76760D01*
Y76771D01*
X92437Y76784D01*
X92434Y76813D01*
X92426Y76846D01*
X92417Y76882D01*
X92403Y76920D01*
X92384Y76955D01*
Y76957D01*
X92381Y76958D01*
X92374Y76969D01*
X92361Y76986D01*
X92343Y77004D01*
X92321Y77026D01*
X92293Y77046D01*
X92263Y77066D01*
X92228Y77080D01*
X92226D01*
X92222Y77082D01*
X92217Y77084D01*
X92210Y77086D01*
X92199Y77088D01*
X92186Y77091D01*
X92170Y77095D01*
X92151Y77099D01*
X92131Y77100D01*
X92108Y77104D01*
X92082Y77108D01*
X92053Y77109D01*
X92022Y77111D01*
X91989Y77113D01*
X91953Y77115D01*
X91913D01*
X90177D01*
Y77448D01*
X91893D01*
X91897D01*
X91908D01*
X91924D01*
X91946Y77446D01*
D02*
G37*
%LPC*%
G36*
X10187Y195494D02*
Y194704D01*
X11323D01*
X10187Y195494D01*
D02*
G37*
%LPD*%
D10*
X5543Y169776D02*
Y179224D01*
Y169776D02*
X23457D01*
Y179224D01*
X5543D02*
X23457D01*
X5276Y206457D02*
X14724D01*
X5276Y188543D02*
Y206457D01*
Y188543D02*
X14724D01*
Y206457D01*
X87276Y67106D02*
X96724D01*
Y85020D01*
X87276D02*
X96724D01*
X87276Y67106D02*
Y85020D01*
M02*
