G04*
G04 #@! TF.GenerationSoftware,Altium Limited,Altium Designer,20.1.14 (287)*
G04*
G04 Layer_Color=16711935*
%FSLAX25Y25*%
%MOIN*%
G70*
G04*
G04 #@! TF.SameCoordinates,4531C12C-93FC-4365-9EE7-7E3AE0C659AD*
G04*
G04*
G04 #@! TF.FilePolarity,Positive*
G04*
G01*
G75*
%ADD73C,0.00394*%
D73*
X50232Y78764D02*
X49969Y79748D01*
X49248Y80469D01*
X48264Y80732D01*
X47280Y80469D01*
X46559Y79748D01*
X46295Y78764D01*
X46559Y77780D01*
X47280Y77059D01*
X48264Y76795D01*
X49248Y77059D01*
X49969Y77780D01*
X50232Y78764D01*
X63425Y21213D02*
X66575D01*
X65000Y22787D02*
X66575Y21213D01*
X63425D02*
X65000Y22787D01*
X63425D02*
X66575D01*
X65000Y20425D02*
Y23575D01*
X67362Y22000D02*
X68543Y20819D01*
X67756Y22787D02*
X68937Y21606D01*
X49925Y23784D02*
X53075D01*
X49925D02*
X51500Y22209D01*
X53075Y23784D01*
X49925Y22209D02*
X53075D01*
X51500Y21421D02*
Y24571D01*
X47957Y24177D02*
X49138Y22996D01*
X47563Y23390D02*
X48744Y22209D01*
X72280Y75221D02*
Y102779D01*
X44721Y75221D02*
Y102779D01*
X72280D01*
X44721Y75221D02*
X72280D01*
X31000Y131500D02*
X71000D01*
X31000Y121500D02*
X71000D01*
X31000D02*
Y131500D01*
X71000Y121500D02*
Y131500D01*
X60713Y141425D02*
Y144575D01*
Y141425D02*
X62287Y143000D01*
X60713Y144575D02*
X62287Y143000D01*
Y141425D02*
Y144575D01*
X59925Y143000D02*
X63075D01*
X60299Y139784D02*
X61480Y140965D01*
X61087Y139390D02*
X62268Y140571D01*
X35157Y46701D02*
X54843D01*
X35157Y59299D02*
X54843D01*
Y46701D02*
Y59299D01*
X35157Y46701D02*
Y59299D01*
X19925Y153787D02*
X23075D01*
X19925D02*
X21500Y152213D01*
X23075Y153787D01*
X19925Y152213D02*
X23075D01*
X21500Y151425D02*
Y154575D01*
X18283Y154201D02*
X19465Y153020D01*
X17890Y153413D02*
X19071Y152232D01*
X88811Y146906D02*
X115189D01*
X88811Y161472D02*
X115189D01*
X88811Y146906D02*
Y161472D01*
X115189Y146906D02*
Y161472D01*
X24500Y91000D02*
Y131000D01*
X14500Y91000D02*
Y131000D01*
X24500D01*
X14500Y91000D02*
X24500D01*
M02*
