G04*
G04 #@! TF.GenerationSoftware,Altium Limited,Altium Designer,20.1.14 (287)*
G04*
G04 Layer_Color=32896*
%FSLAX25Y25*%
%MOIN*%
G70*
G04*
G04 #@! TF.SameCoordinates,58FA20B0-04EF-4904-8C8B-07311CCFBB01*
G04*
G04*
G04 #@! TF.FilePolarity,Positive*
G04*
G01*
G75*
%ADD12C,0.01000*%
D12*
X162217Y411315D02*
X156219D01*
Y414314D01*
X157219Y415314D01*
X158218D01*
X159218Y414314D01*
Y411315D01*
Y414314D01*
X160218Y415314D01*
X161217D01*
X162217Y414314D01*
Y411315D01*
X160218Y417313D02*
X157219D01*
X156219Y418313D01*
Y421312D01*
X155219D01*
X154220Y420312D01*
Y419312D01*
X156219Y421312D02*
X160218D01*
Y423311D02*
Y424311D01*
X159218D01*
Y423311D01*
X160218D01*
X157219D02*
Y424311D01*
X156219D01*
Y423311D01*
X157219D01*
X162217Y438306D02*
Y434307D01*
X156219D01*
Y438306D01*
X159218Y434307D02*
Y436307D01*
X161217Y441305D02*
X160218D01*
Y440306D01*
Y442305D01*
Y441305D01*
X157219D01*
X156219Y442305D01*
X162217Y445304D02*
X156219D01*
X159218D01*
X160218Y446304D01*
Y448303D01*
X159218Y449303D01*
X156219D01*
X160218Y452302D02*
Y454301D01*
X159218Y455301D01*
X156219D01*
Y452302D01*
X157219Y451302D01*
X158218Y452302D01*
Y455301D01*
X156219Y457300D02*
X160218D01*
Y460299D01*
X159218Y461299D01*
X156219D01*
Y469296D02*
X162217D01*
Y472295D01*
X161217Y473295D01*
X159218D01*
X158218Y472295D01*
Y469296D01*
X150620Y415314D02*
Y411315D01*
X147621D01*
Y413314D01*
Y411315D01*
X144622D01*
Y418313D02*
Y420312D01*
X145622Y421312D01*
X147621D01*
X148621Y420312D01*
Y418313D01*
X147621Y417313D01*
X145622D01*
X144622Y418313D01*
X148621Y423311D02*
X144622D01*
X146621D01*
X147621Y424311D01*
X148621Y425310D01*
Y426310D01*
X145622Y439306D02*
X149620D01*
X150620Y438306D01*
Y436307D01*
X149620Y435307D01*
X145622D01*
X144622Y436307D01*
Y438306D01*
X146621Y437306D02*
X144622Y439306D01*
Y438306D02*
X145622Y439306D01*
X150620Y445304D02*
Y441305D01*
X147621D01*
Y443305D01*
Y441305D01*
X144622D01*
X149620Y451302D02*
X150620Y450302D01*
Y448303D01*
X149620Y447303D01*
X148621D01*
X147621Y448303D01*
Y450302D01*
X146621Y451302D01*
X145622D01*
X144622Y450302D01*
Y448303D01*
X145622Y447303D01*
X144622Y453301D02*
X148621D01*
X150620Y455301D01*
X148621Y457300D01*
X144622D01*
X147621D01*
Y453301D01*
X150620Y463298D02*
Y459299D01*
X144622D01*
Y463298D01*
X147621Y459299D02*
Y461299D01*
M02*
