M48
;Layer_Color=9474304
;FILE_FORMAT=2:5
INCH,LZ
;TYPE=PLATED
T1F00S00C0.01181
T2F00S00C0.04331
T3F00S00C0.05200
%
T01
X01355Y04105
Y04185
Y0425
Y0438
X017487
X01685Y0427
Y04185
Y041
Y0391
X0160079Y0477087
T02
X01175Y0428
X01275
X01655Y0492
X01555
X01365Y0484
Y0474
T03
X0111Y0394
Y0414
X0186984
Y0394
Y0472284
Y0492283
X0111
Y0472284
M30
