G04*
G04 #@! TF.GenerationSoftware,Altium Limited,Altium Designer,20.1.14 (287)*
G04*
G04 Layer_Color=65535*
%FSLAX25Y25*%
%MOIN*%
G70*
G04*
G04 #@! TF.SameCoordinates,58FA20B0-04EF-4904-8C8B-07311CCFBB01*
G04*
G04*
G04 #@! TF.FilePolarity,Positive*
G04*
G01*
G75*
%ADD10C,0.00984*%
%ADD11C,0.00787*%
%ADD12C,0.01000*%
D10*
X148252Y442854D02*
X147514Y443281D01*
Y442428D01*
X148252Y442854D01*
X135551Y428000D02*
X134813Y428426D01*
Y427574D01*
X135551Y428000D01*
X173551Y492000D02*
X172813Y492426D01*
Y491574D01*
X173551Y492000D01*
X136992Y491559D02*
X136254Y491985D01*
Y491133D01*
X136992Y491559D01*
D11*
X168303Y444343D02*
X168697D01*
X168303Y449657D02*
X168697D01*
X157504Y450827D02*
Y454173D01*
X145496Y450827D02*
Y454173D01*
X140122Y404724D02*
X142878D01*
X140122Y395276D02*
X142878D01*
X160122D02*
X162878D01*
X160122Y404724D02*
X162878D01*
X122343Y453803D02*
Y454197D01*
X127657Y453803D02*
Y454197D01*
X179130Y471679D02*
X181530D01*
X192439D02*
X194839D01*
Y492888D01*
X179130D02*
X181530D01*
X192439D02*
X194839D01*
X179130Y471679D02*
Y492888D01*
X103145Y471679D02*
X105546D01*
X116454D02*
X118855D01*
Y492888D01*
X103145D02*
X105546D01*
X116454D02*
X118855D01*
X103145Y471679D02*
Y492888D01*
X132500Y424969D02*
Y431031D01*
X131516Y433000D02*
X132500Y431031D01*
X123485Y433000D02*
X131516D01*
X122500Y431031D02*
X123485Y433000D01*
X121516D02*
X122500Y431031D01*
X113485Y433000D02*
X121516D01*
X112500Y431031D02*
X113485Y433000D01*
X112500Y424969D02*
X113485Y423000D01*
X121516D01*
X122500Y424969D01*
X123485Y423000D01*
X131516D01*
X132500Y424969D01*
X112500D02*
Y431031D01*
X170500Y488969D02*
Y495031D01*
X169516Y497000D02*
X170500Y495031D01*
X161485Y497000D02*
X169516D01*
X160500Y495031D02*
X161485Y497000D01*
X159516D02*
X160500Y495031D01*
X151485Y497000D02*
X159516D01*
X150500Y495031D02*
X151485Y497000D01*
X150500Y488969D02*
X151485Y487000D01*
X159516D01*
X160500Y488969D01*
X161485Y487000D01*
X169516D01*
X170500Y488969D01*
X150500D02*
Y495031D01*
X179130Y393395D02*
X181530D01*
X192439D02*
X194839D01*
Y414605D01*
X179130D02*
X181530D01*
X192439D02*
X194839D01*
X179130Y393395D02*
Y414605D01*
X103145Y393395D02*
X105546D01*
X116454D02*
X118855D01*
Y414605D01*
X103145D02*
X105546D01*
X116454D02*
X118855D01*
X103145Y393395D02*
Y414605D01*
X133469Y489000D02*
X139531D01*
X131500Y488016D02*
X133469Y489000D01*
X131500Y479985D02*
Y488016D01*
Y479985D02*
X133469Y479000D01*
X131500Y478016D02*
X133469Y479000D01*
X131500Y469985D02*
Y478016D01*
Y469985D02*
X133469Y469000D01*
X139531D02*
X141500Y469985D01*
Y478016D01*
X139531Y479000D02*
X141500Y478016D01*
X139531Y479000D02*
X141500Y479985D01*
Y488016D01*
X139531Y489000D02*
X141500Y488016D01*
X133469Y469000D02*
X139531D01*
D12*
X164413Y407020D02*
Y408516D01*
X162917Y407020D02*
X164413D01*
X138665D02*
X162917D01*
X164413Y408516D02*
Y438909D01*
X138665Y407020D02*
Y438909D01*
X164413D01*
X197564Y418000D02*
X201500D01*
Y419968D01*
X200844Y420624D01*
X200188D01*
X199532Y419968D01*
Y418000D01*
Y419968D01*
X198876Y420624D01*
X198220D01*
X197564Y419968D01*
Y418000D01*
X198876Y421936D02*
X200844D01*
X201500Y422592D01*
Y424560D01*
X198876D01*
Y428495D02*
Y426527D01*
X199532Y425872D01*
X200844D01*
X201500Y426527D01*
Y428495D01*
Y429807D02*
X197564D01*
X200188D02*
X198876Y431775D01*
X200188Y429807D02*
X201500Y431775D01*
X198220Y440303D02*
X197564Y439647D01*
Y438335D01*
X198220Y437679D01*
X200844D01*
X201500Y438335D01*
Y439647D01*
X200844Y440303D01*
X201500Y442270D02*
Y443582D01*
X200844Y444238D01*
X199532D01*
X198876Y443582D01*
Y442270D01*
X199532Y441614D01*
X200844D01*
X201500Y442270D01*
Y445550D02*
X198876D01*
Y447518D01*
X199532Y448174D01*
X201500D01*
X198876Y449486D02*
X201500Y450798D01*
X198876Y452110D01*
X201500Y455389D02*
Y454078D01*
X200844Y453422D01*
X199532D01*
X198876Y454078D01*
Y455389D01*
X199532Y456045D01*
X200188D01*
Y453422D01*
X198876Y457357D02*
X201500D01*
X200188D01*
X199532Y458013D01*
X198876Y458669D01*
Y459325D01*
X198220Y461949D02*
X198876D01*
Y461293D01*
Y462605D01*
Y461949D01*
X200844D01*
X201500Y462605D01*
Y466541D02*
Y465229D01*
X200844Y464573D01*
X199532D01*
X198876Y465229D01*
Y466541D01*
X199532Y467197D01*
X200188D01*
Y464573D01*
X198876Y468509D02*
X201500D01*
X200188D01*
X199532Y469165D01*
X198876Y469821D01*
Y470476D01*
X124475Y464500D02*
X121327D01*
Y466074D01*
X121851Y466599D01*
X122901D01*
X123426Y466074D01*
Y464500D01*
Y465550D02*
X124475Y466599D01*
X121327Y469748D02*
Y467649D01*
X124475D01*
Y469748D01*
X122901Y467649D02*
Y468698D01*
X121851Y472896D02*
X121327Y472371D01*
Y471322D01*
X121851Y470797D01*
X123950D01*
X124475Y471322D01*
Y472371D01*
X123950Y472896D01*
X122901D01*
Y471847D01*
X125000Y473946D02*
Y476045D01*
X121327Y477094D02*
X124475D01*
Y478669D01*
X123950Y479193D01*
X121851D01*
X121327Y478669D01*
Y477094D01*
Y480243D02*
Y481292D01*
Y480768D01*
X124475D01*
Y480243D01*
Y481292D01*
X121851Y484966D02*
X121327Y484441D01*
Y483392D01*
X121851Y482867D01*
X122376D01*
X122901Y483392D01*
Y484441D01*
X123426Y484966D01*
X123950D01*
X124475Y484441D01*
Y483392D01*
X123950Y482867D01*
X124475Y486015D02*
X122376D01*
X121327Y487065D01*
X122376Y488114D01*
X124475D01*
X122901D01*
Y486015D01*
X121327Y489164D02*
X124475D01*
Y490738D01*
X123950Y491263D01*
X123426D01*
X122901Y490738D01*
Y489164D01*
Y490738D01*
X122376Y491263D01*
X121851D01*
X121327Y490738D01*
Y489164D01*
Y492313D02*
X124475D01*
Y494412D01*
X121327Y497560D02*
Y495461D01*
X124475D01*
Y497560D01*
X122901Y495461D02*
Y496511D01*
X152500Y485936D02*
Y482000D01*
X154468D01*
X155124Y482656D01*
Y483312D01*
X154468Y483968D01*
X152500D01*
X154468D01*
X155124Y484624D01*
Y485280D01*
X154468Y485936D01*
X152500D01*
X156436Y482000D02*
Y484624D01*
X157748Y485936D01*
X159060Y484624D01*
Y482000D01*
Y483968D01*
X156436D01*
X160371Y485936D02*
X162995D01*
X161683D01*
Y482000D01*
X164307Y485936D02*
X166931D01*
X165619D01*
Y482000D01*
X107124Y438436D02*
X104500D01*
Y436468D01*
X105812Y437124D01*
X106468D01*
X107124Y436468D01*
Y435156D01*
X106468Y434500D01*
X105156D01*
X104500Y435156D01*
X108436Y438436D02*
Y435812D01*
X109748Y434500D01*
X111060Y435812D01*
Y438436D01*
X145700Y466949D02*
Y464325D01*
X146225Y463800D01*
X147274D01*
X147799Y464325D01*
Y466949D01*
X148849Y463800D02*
X149898D01*
X149373D01*
Y466949D01*
X148849Y466424D01*
X166376Y469926D02*
Y473074D01*
X167950D01*
X168475Y472549D01*
Y471500D01*
X167950Y470975D01*
X166376D01*
X167426D02*
X168475Y469926D01*
X169525Y472549D02*
X170050Y473074D01*
X171099D01*
X171624Y472549D01*
Y472025D01*
X171099Y471500D01*
X170574D01*
X171099D01*
X171624Y470975D01*
Y470450D01*
X171099Y469926D01*
X170050D01*
X169525Y470450D01*
X144376Y475426D02*
Y478574D01*
X145950D01*
X146475Y478050D01*
Y477000D01*
X145950Y476475D01*
X144376D01*
X145426D02*
X146475Y475426D01*
X149624D02*
X147525D01*
X149624Y477525D01*
Y478050D01*
X149099Y478574D01*
X148049D01*
X147525Y478050D01*
X133401Y463926D02*
Y467074D01*
X134975D01*
X135500Y466549D01*
Y465500D01*
X134975Y464975D01*
X133401D01*
X134450D02*
X135500Y463926D01*
X136549D02*
X137599D01*
X137074D01*
Y467074D01*
X136549Y466549D01*
X139401Y444074D02*
Y440926D01*
X141500D01*
X142550D02*
X143599D01*
X143074D01*
Y444074D01*
X142550Y443549D01*
X128593Y401050D02*
X128069Y401574D01*
X127019D01*
X126494Y401050D01*
Y398951D01*
X127019Y398426D01*
X128069D01*
X128593Y398951D01*
X131742Y401574D02*
X130692Y401050D01*
X129643Y400000D01*
Y398951D01*
X130168Y398426D01*
X131217D01*
X131742Y398951D01*
Y399475D01*
X131217Y400000D01*
X129643D01*
X172475Y401549D02*
X171950Y402074D01*
X170901D01*
X170376Y401549D01*
Y399450D01*
X170901Y398926D01*
X171950D01*
X172475Y399450D01*
X175624Y402074D02*
X173525D01*
Y400500D01*
X174574Y401025D01*
X175099D01*
X175624Y400500D01*
Y399450D01*
X175099Y398926D01*
X174049D01*
X173525Y399450D01*
X181975Y448049D02*
X181450Y448574D01*
X180401D01*
X179876Y448049D01*
Y445951D01*
X180401Y445426D01*
X181450D01*
X181975Y445951D01*
X184599Y445426D02*
Y448574D01*
X183025Y447000D01*
X185124D01*
X173975Y463550D02*
X173451Y464074D01*
X172401D01*
X171876Y463550D01*
Y461450D01*
X172401Y460926D01*
X173451D01*
X173975Y461450D01*
X175025Y463550D02*
X175549Y464074D01*
X176599D01*
X177124Y463550D01*
Y463025D01*
X176599Y462500D01*
X176074D01*
X176599D01*
X177124Y461975D01*
Y461450D01*
X176599Y460926D01*
X175549D01*
X175025Y461450D01*
X173975Y456550D02*
X173451Y457074D01*
X172401D01*
X171876Y456550D01*
Y454451D01*
X172401Y453926D01*
X173451D01*
X173975Y454451D01*
X177124Y453926D02*
X175025D01*
X177124Y456025D01*
Y456550D01*
X176599Y457074D01*
X175549D01*
X175025Y456550D01*
X116500Y455050D02*
X115975Y455574D01*
X114926D01*
X114401Y455050D01*
Y452950D01*
X114926Y452426D01*
X115975D01*
X116500Y452950D01*
X117550Y452426D02*
X118599D01*
X118074D01*
Y455574D01*
X117550Y455050D01*
M02*
