G04*
G04 #@! TF.GenerationSoftware,Altium Limited,Altium Designer,20.1.14 (287)*
G04*
G04 Layer_Color=16711935*
%FSLAX25Y25*%
%MOIN*%
G70*
G04*
G04 #@! TF.SameCoordinates,58FA20B0-04EF-4904-8C8B-07311CCFBB01*
G04*
G04*
G04 #@! TF.FilePolarity,Positive*
G04*
G01*
G75*
%ADD40C,0.00394*%
D40*
X172831Y444146D02*
Y449854D01*
X164169Y444146D02*
Y449854D01*
Y444146D02*
X172831D01*
X164169Y449854D02*
X172831D01*
X168150Y460925D02*
Y464075D01*
X161850Y460925D02*
Y464075D01*
Y460925D02*
X168150D01*
X161850Y464075D02*
X168150D01*
X134807Y394685D02*
Y405315D01*
X148193Y394685D02*
Y405315D01*
X134807D02*
X148193D01*
X134807Y394685D02*
X148193D01*
X168193D02*
Y405315D01*
X154807Y394685D02*
Y405315D01*
Y394685D02*
X168193D01*
X154807Y405315D02*
X168193D01*
X168150Y453925D02*
Y457075D01*
X161850Y453925D02*
Y457075D01*
Y453925D02*
X168150D01*
X161850Y457075D02*
X168150D01*
X122146Y449669D02*
X127854D01*
X122146Y458331D02*
X127854D01*
X122146Y449669D02*
Y458331D01*
X127854Y449669D02*
Y458331D01*
X141331Y455146D02*
Y460854D01*
X132669Y455146D02*
Y460854D01*
Y455146D02*
X141331D01*
X132669Y460854D02*
X141331D01*
X150012Y469630D02*
Y473370D01*
X143516Y469630D02*
Y473370D01*
Y469630D02*
X150012D01*
X143516Y473370D02*
X150012D01*
X160748Y469630D02*
Y473370D01*
X154252Y469630D02*
Y473370D01*
Y469630D02*
X160748D01*
X154252Y473370D02*
X160748D01*
X112500Y424969D02*
Y431031D01*
X131516Y423000D02*
X132500Y424969D01*
X123485Y423000D02*
X131516D01*
X122500Y424969D02*
X123485Y423000D01*
X121516D02*
X122500Y424969D01*
X113485Y423000D02*
X121516D01*
X112500Y424969D02*
X113485Y423000D01*
X112500Y431031D02*
X113485Y433000D01*
X121516D01*
X122500Y431031D01*
X123485Y433000D01*
X131516D01*
X132500Y431031D01*
Y424969D02*
Y431031D01*
X150500Y488969D02*
Y495031D01*
X169516Y487000D02*
X170500Y488969D01*
X161485Y487000D02*
X169516D01*
X160500Y488969D02*
X161485Y487000D01*
X159516D02*
X160500Y488969D01*
X151485Y487000D02*
X159516D01*
X150500Y488969D02*
X151485Y487000D01*
X150500Y495031D02*
X151485Y497000D01*
X159516D01*
X160500Y495031D01*
X161485Y497000D01*
X169516D01*
X170500Y495031D01*
Y488969D02*
Y495031D01*
X133469Y469000D02*
X139531D01*
Y489000D02*
X141500Y488016D01*
Y479985D02*
Y488016D01*
X139531Y479000D02*
X141500Y479985D01*
X139531Y479000D02*
X141500Y478016D01*
Y469985D02*
Y478016D01*
X139531Y469000D02*
X141500Y469985D01*
X131500D02*
X133469Y469000D01*
X131500Y469985D02*
Y478016D01*
X133469Y479000D01*
X131500Y479985D02*
X133469Y479000D01*
X131500Y479985D02*
Y488016D01*
X133469Y489000D01*
X139531D01*
M02*
