G04*
G04 #@! TF.GenerationSoftware,Altium Limited,Altium Designer,20.1.14 (287)*
G04*
G04 Layer_Color=16711935*
%FSLAX25Y25*%
%MOIN*%
G70*
G04*
G04 #@! TF.SameCoordinates,58FA20B0-04EF-4904-8C8B-07311CCFBB01*
G04*
G04*
G04 #@! TF.FilePolarity,Negative*
G04*
G01*
G75*
%ADD29C,0.07956*%
%ADD30R,0.07956X0.07956*%
%ADD31R,0.06890X0.06890*%
%ADD32C,0.06890*%
%ADD33R,0.06890X0.06890*%
%ADD34C,0.02953*%
D29*
X186984Y492283D02*
D03*
X111000D02*
D03*
X186984Y414000D02*
D03*
X111000D02*
D03*
D30*
X186984Y472284D02*
D03*
X111000D02*
D03*
X186984Y394000D02*
D03*
X111000D02*
D03*
D31*
X127500Y428000D02*
D03*
X165500Y492000D02*
D03*
D32*
X117500Y428000D02*
D03*
X155500Y492000D02*
D03*
X136500Y474000D02*
D03*
D33*
Y484000D02*
D03*
D34*
X160079Y477087D02*
D03*
X174870Y438000D02*
D03*
X135500D02*
D03*
Y410500D02*
D03*
Y418500D02*
D03*
Y425000D02*
D03*
X168500Y391000D02*
D03*
Y410000D02*
D03*
Y418500D02*
D03*
Y427000D02*
D03*
M02*
