G04*
G04 #@! TF.GenerationSoftware,Altium Limited,Altium Designer,20.1.14 (287)*
G04*
G04 Layer_Color=16711935*
%FSLAX25Y25*%
%MOIN*%
G70*
G04*
G04 #@! TF.SameCoordinates,58FA20B0-04EF-4904-8C8B-07311CCFBB01*
G04*
G04*
G04 #@! TF.FilePolarity,Positive*
G04*
G01*
G75*
%ADD11C,0.00787*%
G36*
X151458Y455765D02*
X149489D01*
X149491Y455763D01*
X149494Y455760D01*
X149500Y455754D01*
X149507Y455745D01*
X149516Y455734D01*
X149529Y455720D01*
X149542Y455703D01*
X149556Y455687D01*
X149571Y455665D01*
X149589Y455643D01*
X149605Y455619D01*
X149625Y455594D01*
X149644Y455565D01*
X149664Y455536D01*
X149704Y455470D01*
X149706Y455468D01*
X149709Y455463D01*
X149715Y455452D01*
X149720Y455439D01*
X149729Y455425D01*
X149740Y455407D01*
X149751Y455385D01*
X149764Y455363D01*
X149789Y455312D01*
X149815Y455257D01*
X149840Y455201D01*
X149862Y455146D01*
X149564D01*
X149562Y455150D01*
X149558Y455157D01*
X149551Y455172D01*
X149542Y455190D01*
X149531Y455212D01*
X149516Y455239D01*
X149500Y455268D01*
X149482Y455299D01*
X149460Y455334D01*
X149438Y455370D01*
X149387Y455446D01*
X149331Y455525D01*
X149269Y455599D01*
X149267Y455601D01*
X149261Y455609D01*
X149252Y455618D01*
X149240Y455630D01*
X149223Y455647D01*
X149205Y455665D01*
X149183Y455685D01*
X149161Y455707D01*
X149136Y455729D01*
X149109Y455752D01*
X149052Y455798D01*
X148992Y455840D01*
X148961Y455858D01*
X148930Y455874D01*
Y456074D01*
X151458D01*
Y455765D01*
D02*
G37*
G36*
X150457Y454478D02*
X150490D01*
X150526Y454476D01*
X150568Y454473D01*
X150612Y454469D01*
X150659Y454464D01*
X150708Y454458D01*
X150808Y454444D01*
X150859Y454433D01*
X150907Y454422D01*
X150954Y454407D01*
X150998Y454393D01*
X150999Y454391D01*
X151007Y454389D01*
X151020Y454384D01*
X151034Y454376D01*
X151054Y454365D01*
X151076Y454354D01*
X151100Y454340D01*
X151127Y454322D01*
X151156Y454302D01*
X151185Y454280D01*
X151214Y454254D01*
X151245Y454225D01*
X151276Y454194D01*
X151305Y454162D01*
X151334Y454123D01*
X151362Y454083D01*
X151364Y454081D01*
X151367Y454072D01*
X151374Y454060D01*
X151383Y454043D01*
X151394Y454020D01*
X151405Y453994D01*
X151418Y453961D01*
X151431Y453927D01*
X151444Y453885D01*
X151456Y453841D01*
X151467Y453794D01*
X151478Y453741D01*
X151487Y453685D01*
X151495Y453625D01*
X151498Y453563D01*
X151500Y453496D01*
Y453461D01*
X151498Y453437D01*
X151496Y453406D01*
X151493Y453372D01*
X151489Y453332D01*
X151486Y453290D01*
X151478Y453244D01*
X151471Y453197D01*
X151460Y453150D01*
X151449Y453101D01*
X151435Y453053D01*
X151418Y453004D01*
X151400Y452959D01*
X151378Y452915D01*
X151376Y452913D01*
X151373Y452906D01*
X151365Y452893D01*
X151356Y452879D01*
X151344Y452860D01*
X151327Y452839D01*
X151309Y452817D01*
X151289Y452791D01*
X151265Y452766D01*
X151238Y452738D01*
X151211Y452711D01*
X151178Y452686D01*
X151145Y452660D01*
X151107Y452636D01*
X151069Y452615D01*
X151027Y452595D01*
X151023Y452593D01*
X151016Y452591D01*
X151003Y452586D01*
X150985Y452580D01*
X150961Y452573D01*
X150932Y452565D01*
X150899Y452556D01*
X150861Y452547D01*
X150818Y452538D01*
X150770Y452529D01*
X150719Y452522D01*
X150663Y452515D01*
X150603Y452509D01*
X150537Y452504D01*
X150468Y452502D01*
X150395Y452500D01*
X148939D01*
Y452833D01*
X150393D01*
X150397D01*
X150408D01*
X150424D01*
X150446Y452835D01*
X150474D01*
X150505Y452837D01*
X150539Y452839D01*
X150577Y452840D01*
X150616Y452844D01*
X150655Y452848D01*
X150736Y452858D01*
X150774Y452866D01*
X150812Y452873D01*
X150847Y452882D01*
X150878Y452893D01*
X150879D01*
X150885Y452897D01*
X150892Y452900D01*
X150903Y452906D01*
X150916Y452911D01*
X150930Y452920D01*
X150965Y452942D01*
X151003Y452971D01*
X151023Y452988D01*
X151043Y453008D01*
X151063Y453028D01*
X151081Y453051D01*
X151100Y453075D01*
X151116Y453102D01*
Y453104D01*
X151120Y453110D01*
X151123Y453117D01*
X151129Y453130D01*
X151136Y453144D01*
X151143Y453161D01*
X151151Y453181D01*
X151158Y453204D01*
X151165Y453230D01*
X151172Y453257D01*
X151180Y453286D01*
X151187Y453319D01*
X151192Y453354D01*
X151196Y453390D01*
X151198Y453426D01*
X151200Y453466D01*
Y453483D01*
X151198Y453501D01*
Y453526D01*
X151194Y453557D01*
X151191Y453590D01*
X151185Y453628D01*
X151180Y453670D01*
X151171Y453712D01*
X151160Y453756D01*
X151145Y453799D01*
X151131Y453843D01*
X151110Y453885D01*
X151089Y453923D01*
X151063Y453960D01*
X151034Y453991D01*
X151032Y453992D01*
X151027Y453998D01*
X151016Y454005D01*
X151001Y454014D01*
X150981Y454027D01*
X150956Y454040D01*
X150927Y454054D01*
X150890Y454069D01*
X150850Y454083D01*
X150805Y454098D01*
X150752Y454111D01*
X150694Y454123D01*
X150628Y454133D01*
X150557Y454140D01*
X150479Y454145D01*
X150393Y454147D01*
X148939D01*
Y454480D01*
X150395D01*
X150397D01*
X150399D01*
X150404D01*
X150412D01*
X150421D01*
X150432D01*
X150457Y454478D01*
D02*
G37*
G36*
X186942Y484049D02*
X186941D01*
X186937D01*
X186932D01*
X186924D01*
X186913D01*
X186902Y484051D01*
X186873Y484053D01*
X186842Y484056D01*
X186806Y484062D01*
X186768Y484071D01*
X186730Y484083D01*
X186728D01*
X186722Y484087D01*
X186713Y484091D01*
X186700Y484096D01*
X186684Y484102D01*
X186666Y484111D01*
X186646Y484122D01*
X186624Y484132D01*
X186599Y484145D01*
X186573Y484162D01*
X186517Y484196D01*
X186457Y484238D01*
X186395Y484287D01*
X186393Y484289D01*
X186387Y484295D01*
X186378Y484302D01*
X186365Y484313D01*
X186349Y484327D01*
X186331Y484345D01*
X186309Y484366D01*
X186285Y484391D01*
X186258Y484418D01*
X186229Y484447D01*
X186198Y484480D01*
X186163Y484517D01*
X186129Y484557D01*
X186092Y484598D01*
X186054Y484644D01*
X186014Y484691D01*
X186012Y484693D01*
X186011Y484697D01*
X186005Y484702D01*
X186000Y484710D01*
X185991Y484719D01*
X185982Y484729D01*
X185958Y484757D01*
X185931Y484791D01*
X185896Y484828D01*
X185860Y484870D01*
X185819Y484913D01*
X185778Y484961D01*
X185734Y485006D01*
X185690Y485053D01*
X185645Y485097D01*
X185601Y485141D01*
X185559Y485179D01*
X185517Y485215D01*
X185479Y485245D01*
X185477Y485246D01*
X185470Y485250D01*
X185459Y485257D01*
X185446Y485268D01*
X185428Y485279D01*
X185408Y485290D01*
X185385Y485305D01*
X185359Y485317D01*
X185332Y485330D01*
X185303Y485345D01*
X185239Y485368D01*
X185206Y485377D01*
X185173Y485385D01*
X185141Y485388D01*
X185108Y485390D01*
X185106D01*
X185099D01*
X185090D01*
X185077Y485388D01*
X185061Y485387D01*
X185042Y485383D01*
X185022Y485379D01*
X185001Y485374D01*
X184977Y485366D01*
X184951Y485357D01*
X184926Y485347D01*
X184900Y485334D01*
X184873Y485319D01*
X184848Y485301D01*
X184822Y485281D01*
X184799Y485257D01*
X184797Y485255D01*
X184793Y485252D01*
X184788Y485245D01*
X184778Y485234D01*
X184769Y485221D01*
X184758Y485205D01*
X184746Y485186D01*
X184735Y485166D01*
X184722Y485143D01*
X184711Y485117D01*
X184700Y485088D01*
X184691Y485059D01*
X184682Y485026D01*
X184677Y484992D01*
X184673Y484955D01*
X184671Y484917D01*
Y484895D01*
X184673Y484881D01*
X184675Y484861D01*
X184678Y484839D01*
X184682Y484815D01*
X184687Y484788D01*
X184695Y484760D01*
X184704Y484731D01*
X184715Y484702D01*
X184728Y484671D01*
X184744Y484642D01*
X184762Y484613D01*
X184782Y484584D01*
X184806Y484558D01*
X184808Y484557D01*
X184811Y484553D01*
X184820Y484546D01*
X184829Y484538D01*
X184844Y484527D01*
X184860Y484517D01*
X184880Y484504D01*
X184902Y484493D01*
X184926Y484480D01*
X184955Y484467D01*
X184984Y484456D01*
X185017Y484446D01*
X185053Y484438D01*
X185091Y484431D01*
X185132Y484427D01*
X185175Y484426D01*
X185143Y484107D01*
X185141D01*
X185139D01*
X185133Y484109D01*
X185126D01*
X185108Y484111D01*
X185084Y484116D01*
X185055Y484122D01*
X185020Y484129D01*
X184982Y484138D01*
X184942Y484149D01*
X184899Y484164D01*
X184855Y484180D01*
X184809Y484200D01*
X184764Y484224D01*
X184720Y484249D01*
X184678Y484280D01*
X184638Y484313D01*
X184602Y484351D01*
X184600Y484353D01*
X184595Y484360D01*
X184584Y484373D01*
X184573Y484389D01*
X184558Y484411D01*
X184542Y484437D01*
X184526Y484467D01*
X184507Y484502D01*
X184491Y484542D01*
X184475Y484584D01*
X184458Y484631D01*
X184444Y484682D01*
X184431Y484737D01*
X184422Y484795D01*
X184416Y484857D01*
X184415Y484922D01*
Y484939D01*
X184416Y484957D01*
X184418Y484982D01*
X184420Y485013D01*
X184425Y485048D01*
X184431Y485088D01*
X184440Y485130D01*
X184451Y485175D01*
X184464Y485221D01*
X184480Y485270D01*
X184500Y485317D01*
X184524Y485365D01*
X184549Y485410D01*
X184580Y485454D01*
X184616Y485496D01*
X184618Y485498D01*
X184626Y485505D01*
X184636Y485516D01*
X184653Y485529D01*
X184671Y485545D01*
X184695Y485563D01*
X184722Y485583D01*
X184753Y485603D01*
X184788Y485621D01*
X184826Y485641D01*
X184868Y485660D01*
X184911Y485676D01*
X184959Y485689D01*
X185008Y485700D01*
X185061Y485707D01*
X185115Y485709D01*
X185117D01*
X185122D01*
X185130D01*
X185141D01*
X185155Y485707D01*
X185170Y485705D01*
X185188Y485703D01*
X185208Y485701D01*
X185254Y485694D01*
X185304Y485683D01*
X185357Y485667D01*
X185412Y485647D01*
X185414D01*
X185419Y485643D01*
X185426Y485639D01*
X185437Y485634D01*
X185450Y485629D01*
X185466Y485619D01*
X185485Y485610D01*
X185505Y485598D01*
X185527Y485585D01*
X185550Y485570D01*
X185603Y485534D01*
X185630Y485514D01*
X185659Y485492D01*
X185688Y485467D01*
X185719Y485441D01*
X185721Y485439D01*
X185727Y485434D01*
X185736Y485427D01*
X185749Y485414D01*
X185765Y485397D01*
X185785Y485377D01*
X185809Y485356D01*
X185836Y485328D01*
X185865Y485297D01*
X185898Y485261D01*
X185934Y485223D01*
X185974Y485179D01*
X186016Y485132D01*
X186062Y485081D01*
X186111Y485024D01*
X186162Y484964D01*
X186163Y484961D01*
X186173Y484951D01*
X186184Y484939D01*
X186200Y484921D01*
X186218Y484897D01*
X186240Y484873D01*
X186264Y484846D01*
X186289Y484817D01*
X186342Y484755D01*
X186369Y484726D01*
X186395Y484697D01*
X186420Y484669D01*
X186442Y484646D01*
X186462Y484624D01*
X186480Y484608D01*
X186484Y484604D01*
X186495Y484595D01*
X186511Y484580D01*
X186531Y484562D01*
X186557Y484542D01*
X186584Y484520D01*
X186615Y484498D01*
X186646Y484478D01*
Y485712D01*
X186942D01*
Y484049D01*
D02*
G37*
G36*
X186193Y483667D02*
X186218D01*
X186249Y483665D01*
X186284Y483661D01*
X186320Y483659D01*
X186358Y483654D01*
X186398Y483650D01*
X186480Y483636D01*
X186520Y483627D01*
X186558Y483616D01*
X186595Y483605D01*
X186629Y483590D01*
X186631D01*
X186637Y483587D01*
X186646Y483583D01*
X186659Y483576D01*
X186673Y483568D01*
X186689Y483557D01*
X186708Y483545D01*
X186728Y483532D01*
X186748Y483516D01*
X186769Y483497D01*
X186791Y483477D01*
X186813Y483456D01*
X186835Y483432D01*
X186855Y483406D01*
X186875Y483379D01*
X186893Y483348D01*
X186895Y483346D01*
X186897Y483341D01*
X186902Y483332D01*
X186908Y483319D01*
X186915Y483303D01*
X186922Y483284D01*
X186930Y483263D01*
X186939Y483237D01*
X186948Y483210D01*
X186955Y483181D01*
X186962Y483148D01*
X186970Y483115D01*
X186975Y483079D01*
X186981Y483041D01*
X186983Y483002D01*
X186984Y482961D01*
Y482946D01*
X186983Y482930D01*
X186981Y482906D01*
X186979Y482879D01*
X186973Y482846D01*
X186968Y482809D01*
X186961Y482771D01*
X186950Y482731D01*
X186939Y482689D01*
X186922Y482647D01*
X186904Y482606D01*
X186882Y482564D01*
X186857Y482524D01*
X186828Y482485D01*
X186795Y482451D01*
X186793Y482449D01*
X186786Y482444D01*
X186775Y482435D01*
X186759Y482424D01*
X186739Y482411D01*
X186715Y482396D01*
X186686Y482380D01*
X186653Y482365D01*
X186615Y482349D01*
X186573Y482333D01*
X186526Y482320D01*
X186475Y482307D01*
X186420Y482296D01*
X186360Y482289D01*
X186296Y482283D01*
X186229D01*
X186187Y482584D01*
X186191D01*
X186200D01*
X186214Y482585D01*
X186234Y482587D01*
X186258Y482589D01*
X186284Y482593D01*
X186313Y482596D01*
X186346Y482602D01*
X186411Y482615D01*
X186477Y482633D01*
X186506Y482646D01*
X186535Y482658D01*
X186560Y482675D01*
X186582Y482691D01*
X186584Y482693D01*
X186586Y482695D01*
X186591Y482702D01*
X186599Y482709D01*
X186606Y482718D01*
X186615Y482731D01*
X186626Y482744D01*
X186635Y482760D01*
X186644Y482779D01*
X186655Y482798D01*
X186664Y482820D01*
X186671Y482844D01*
X186679Y482871D01*
X186682Y482899D01*
X186686Y482928D01*
X186688Y482959D01*
Y482971D01*
X186686Y482980D01*
Y482991D01*
X186684Y483004D01*
X186680Y483033D01*
X186673Y483066D01*
X186664Y483102D01*
X186649Y483141D01*
X186631Y483175D01*
Y483177D01*
X186628Y483179D01*
X186620Y483190D01*
X186608Y483206D01*
X186589Y483224D01*
X186567Y483246D01*
X186540Y483266D01*
X186509Y483286D01*
X186475Y483301D01*
X186473D01*
X186469Y483303D01*
X186464Y483304D01*
X186457Y483306D01*
X186446Y483308D01*
X186433Y483312D01*
X186416Y483315D01*
X186398Y483319D01*
X186378Y483321D01*
X186355Y483324D01*
X186329Y483328D01*
X186300Y483330D01*
X186269Y483332D01*
X186236Y483334D01*
X186200Y483335D01*
X186160D01*
X184424D01*
Y483668D01*
X186140D01*
X186144D01*
X186154D01*
X186171D01*
X186193Y483667D01*
D02*
G37*
G36*
X110958Y484942D02*
X108989D01*
X108991Y484941D01*
X108994Y484937D01*
X109000Y484932D01*
X109007Y484922D01*
X109016Y484911D01*
X109029Y484897D01*
X109042Y484881D01*
X109056Y484864D01*
X109071Y484842D01*
X109089Y484821D01*
X109105Y484797D01*
X109125Y484771D01*
X109144Y484742D01*
X109164Y484713D01*
X109204Y484648D01*
X109205Y484646D01*
X109209Y484640D01*
X109215Y484629D01*
X109220Y484617D01*
X109229Y484602D01*
X109240Y484584D01*
X109251Y484562D01*
X109264Y484540D01*
X109289Y484489D01*
X109315Y484435D01*
X109340Y484378D01*
X109362Y484324D01*
X109064D01*
X109062Y484327D01*
X109058Y484335D01*
X109051Y484349D01*
X109042Y484367D01*
X109031Y484389D01*
X109016Y484416D01*
X109000Y484446D01*
X108982Y484477D01*
X108960Y484511D01*
X108938Y484548D01*
X108887Y484624D01*
X108831Y484702D01*
X108769Y484777D01*
X108767Y484779D01*
X108761Y484786D01*
X108752Y484795D01*
X108740Y484808D01*
X108723Y484824D01*
X108705Y484842D01*
X108683Y484862D01*
X108661Y484884D01*
X108636Y484906D01*
X108608Y484930D01*
X108552Y484975D01*
X108492Y485017D01*
X108461Y485035D01*
X108430Y485052D01*
Y485252D01*
X110958D01*
Y484942D01*
D02*
G37*
G36*
X110208Y483667D02*
X110234D01*
X110265Y483665D01*
X110299Y483661D01*
X110336Y483659D01*
X110374Y483654D01*
X110414Y483650D01*
X110496Y483636D01*
X110536Y483627D01*
X110574Y483616D01*
X110610Y483605D01*
X110645Y483590D01*
X110647D01*
X110652Y483587D01*
X110661Y483583D01*
X110674Y483576D01*
X110689Y483568D01*
X110705Y483557D01*
X110723Y483545D01*
X110743Y483532D01*
X110763Y483516D01*
X110785Y483497D01*
X110807Y483477D01*
X110829Y483456D01*
X110851Y483432D01*
X110871Y483406D01*
X110891Y483379D01*
X110909Y483348D01*
X110911Y483346D01*
X110913Y483341D01*
X110918Y483332D01*
X110924Y483319D01*
X110931Y483303D01*
X110938Y483284D01*
X110945Y483263D01*
X110954Y483237D01*
X110964Y483210D01*
X110971Y483181D01*
X110978Y483148D01*
X110986Y483115D01*
X110991Y483079D01*
X110996Y483041D01*
X110998Y483002D01*
X111000Y482961D01*
Y482946D01*
X110998Y482930D01*
X110996Y482906D01*
X110995Y482878D01*
X110989Y482846D01*
X110984Y482809D01*
X110976Y482771D01*
X110966Y482731D01*
X110954Y482689D01*
X110938Y482647D01*
X110920Y482606D01*
X110898Y482564D01*
X110873Y482524D01*
X110844Y482485D01*
X110811Y482451D01*
X110809Y482449D01*
X110802Y482444D01*
X110791Y482435D01*
X110774Y482423D01*
X110754Y482411D01*
X110731Y482396D01*
X110702Y482380D01*
X110669Y482365D01*
X110631Y482349D01*
X110589Y482333D01*
X110541Y482320D01*
X110490Y482307D01*
X110436Y482296D01*
X110376Y482289D01*
X110312Y482283D01*
X110245D01*
X110203Y482584D01*
X110206D01*
X110216D01*
X110230Y482585D01*
X110250Y482587D01*
X110274Y482589D01*
X110299Y482593D01*
X110328Y482596D01*
X110361Y482602D01*
X110427Y482615D01*
X110492Y482633D01*
X110521Y482646D01*
X110550Y482658D01*
X110576Y482675D01*
X110598Y482691D01*
X110600Y482693D01*
X110601Y482695D01*
X110607Y482702D01*
X110614Y482709D01*
X110622Y482718D01*
X110631Y482731D01*
X110642Y482744D01*
X110651Y482760D01*
X110660Y482778D01*
X110671Y482798D01*
X110680Y482820D01*
X110687Y482844D01*
X110694Y482871D01*
X110698Y482899D01*
X110702Y482928D01*
X110703Y482959D01*
Y482971D01*
X110702Y482980D01*
Y482991D01*
X110700Y483004D01*
X110696Y483033D01*
X110689Y483066D01*
X110680Y483102D01*
X110665Y483141D01*
X110647Y483175D01*
Y483177D01*
X110643Y483179D01*
X110636Y483190D01*
X110623Y483206D01*
X110605Y483224D01*
X110583Y483246D01*
X110556Y483266D01*
X110525Y483286D01*
X110490Y483301D01*
X110489D01*
X110485Y483303D01*
X110479Y483304D01*
X110472Y483306D01*
X110461Y483308D01*
X110449Y483312D01*
X110432Y483315D01*
X110414Y483319D01*
X110394Y483321D01*
X110370Y483324D01*
X110345Y483328D01*
X110316Y483330D01*
X110285Y483332D01*
X110252Y483334D01*
X110216Y483335D01*
X110176D01*
X108439D01*
Y483668D01*
X110155D01*
X110159D01*
X110170D01*
X110187D01*
X110208Y483667D01*
D02*
G37*
G36*
X186340Y407105D02*
X186942D01*
Y406796D01*
X186340D01*
Y405703D01*
X186056D01*
X184424Y406852D01*
Y407105D01*
X186056D01*
Y407445D01*
X186340D01*
Y407105D01*
D02*
G37*
G36*
X186193Y405383D02*
X186218D01*
X186249Y405381D01*
X186284Y405378D01*
X186320Y405376D01*
X186358Y405370D01*
X186398Y405367D01*
X186480Y405352D01*
X186520Y405343D01*
X186558Y405332D01*
X186595Y405321D01*
X186629Y405307D01*
X186631D01*
X186637Y405303D01*
X186646Y405299D01*
X186659Y405292D01*
X186673Y405285D01*
X186689Y405274D01*
X186708Y405261D01*
X186728Y405248D01*
X186748Y405232D01*
X186769Y405214D01*
X186791Y405194D01*
X186813Y405172D01*
X186835Y405148D01*
X186855Y405123D01*
X186875Y405096D01*
X186893Y405065D01*
X186895Y405063D01*
X186897Y405057D01*
X186902Y405048D01*
X186908Y405035D01*
X186915Y405019D01*
X186922Y405001D01*
X186930Y404979D01*
X186939Y404954D01*
X186948Y404926D01*
X186955Y404897D01*
X186962Y404865D01*
X186970Y404832D01*
X186975Y404795D01*
X186981Y404757D01*
X186983Y404719D01*
X186984Y404677D01*
Y404662D01*
X186983Y404646D01*
X186981Y404622D01*
X186979Y404595D01*
X186973Y404562D01*
X186968Y404526D01*
X186961Y404488D01*
X186950Y404448D01*
X186939Y404406D01*
X186922Y404364D01*
X186904Y404322D01*
X186882Y404280D01*
X186857Y404240D01*
X186828Y404202D01*
X186795Y404167D01*
X186793Y404166D01*
X186786Y404160D01*
X186775Y404151D01*
X186759Y404140D01*
X186739Y404127D01*
X186715Y404113D01*
X186686Y404096D01*
X186653Y404082D01*
X186615Y404066D01*
X186573Y404049D01*
X186526Y404036D01*
X186475Y404024D01*
X186420Y404013D01*
X186360Y404005D01*
X186296Y404000D01*
X186229D01*
X186187Y404300D01*
X186191D01*
X186200D01*
X186214Y404302D01*
X186234Y404304D01*
X186258Y404306D01*
X186284Y404309D01*
X186313Y404313D01*
X186346Y404319D01*
X186411Y404331D01*
X186477Y404349D01*
X186506Y404362D01*
X186535Y404375D01*
X186560Y404391D01*
X186582Y404408D01*
X186584Y404410D01*
X186586Y404411D01*
X186591Y404419D01*
X186599Y404426D01*
X186606Y404435D01*
X186615Y404448D01*
X186626Y404460D01*
X186635Y404477D01*
X186644Y404495D01*
X186655Y404515D01*
X186664Y404537D01*
X186671Y404561D01*
X186679Y404588D01*
X186682Y404615D01*
X186686Y404644D01*
X186688Y404675D01*
Y404688D01*
X186686Y404697D01*
Y404708D01*
X186684Y404721D01*
X186680Y404750D01*
X186673Y404783D01*
X186664Y404819D01*
X186649Y404857D01*
X186631Y404892D01*
Y404894D01*
X186628Y404895D01*
X186620Y404906D01*
X186608Y404923D01*
X186589Y404941D01*
X186567Y404963D01*
X186540Y404983D01*
X186509Y405003D01*
X186475Y405017D01*
X186473D01*
X186469Y405019D01*
X186464Y405021D01*
X186457Y405023D01*
X186446Y405025D01*
X186433Y405028D01*
X186416Y405032D01*
X186398Y405035D01*
X186378Y405037D01*
X186355Y405041D01*
X186329Y405045D01*
X186300Y405047D01*
X186269Y405048D01*
X186236Y405050D01*
X186200Y405052D01*
X186160D01*
X184424D01*
Y405385D01*
X186140D01*
X186144D01*
X186154D01*
X186171D01*
X186193Y405383D01*
D02*
G37*
G36*
X110245Y407452D02*
X110267Y407451D01*
X110296Y407447D01*
X110328Y407442D01*
X110365Y407434D01*
X110405Y407423D01*
X110449Y407411D01*
X110492Y407396D01*
X110540Y407376D01*
X110587Y407352D01*
X110634Y407325D01*
X110681Y407292D01*
X110727Y407254D01*
X110771Y407212D01*
X110773Y407209D01*
X110780Y407201D01*
X110793Y407189D01*
X110807Y407169D01*
X110824Y407145D01*
X110844Y407118D01*
X110863Y407083D01*
X110885Y407047D01*
X110907Y407005D01*
X110927Y406957D01*
X110947Y406908D01*
X110964Y406854D01*
X110978Y406797D01*
X110991Y406735D01*
X110998Y406672D01*
X111000Y406604D01*
Y406590D01*
X110998Y406572D01*
X110996Y406550D01*
X110995Y406521D01*
X110989Y406488D01*
X110984Y406452D01*
X110975Y406412D01*
X110966Y406370D01*
X110953Y406324D01*
X110936Y406279D01*
X110916Y406231D01*
X110895Y406186D01*
X110869Y406140D01*
X110838Y406095D01*
X110803Y406053D01*
X110802Y406051D01*
X110794Y406044D01*
X110783Y406033D01*
X110767Y406018D01*
X110747Y406002D01*
X110723Y405982D01*
X110696Y405962D01*
X110665Y405940D01*
X110631Y405918D01*
X110591Y405896D01*
X110549Y405876D01*
X110503Y405856D01*
X110454Y405840D01*
X110403Y405824D01*
X110348Y405813D01*
X110290Y405805D01*
X110248Y406115D01*
X110252D01*
X110259Y406117D01*
X110274Y406120D01*
X110292Y406126D01*
X110314Y406131D01*
X110338Y406139D01*
X110365Y406148D01*
X110394Y406157D01*
X110458Y406182D01*
X110520Y406213D01*
X110550Y406231D01*
X110580Y406251D01*
X110605Y406271D01*
X110629Y406295D01*
X110631Y406297D01*
X110634Y406300D01*
X110640Y406308D01*
X110647Y406319D01*
X110656Y406330D01*
X110665Y406346D01*
X110676Y406362D01*
X110685Y406382D01*
X110696Y406404D01*
X110707Y406428D01*
X110716Y406453D01*
X110725Y406481D01*
X110732Y406510D01*
X110738Y406541D01*
X110742Y406572D01*
X110743Y406606D01*
Y406615D01*
X110742Y406628D01*
Y406643D01*
X110738Y406663D01*
X110736Y406684D01*
X110731Y406708D01*
X110725Y406735D01*
X110716Y406763D01*
X110707Y406794D01*
X110694Y406825D01*
X110680Y406855D01*
X110661Y406886D01*
X110642Y406917D01*
X110620Y406947D01*
X110592Y406976D01*
X110591Y406978D01*
X110585Y406983D01*
X110578Y406990D01*
X110565Y406999D01*
X110550Y407010D01*
X110532Y407023D01*
X110512Y407037D01*
X110489Y407052D01*
X110463Y407065D01*
X110434Y407079D01*
X110405Y407092D01*
X110370Y407103D01*
X110336Y407112D01*
X110299Y407119D01*
X110259Y407125D01*
X110219Y407127D01*
X110217D01*
X110210D01*
X110199D01*
X110183Y407125D01*
X110167Y407123D01*
X110145Y407119D01*
X110121Y407116D01*
X110096Y407108D01*
X110068Y407101D01*
X110039Y407092D01*
X110010Y407081D01*
X109981Y407068D01*
X109952Y407052D01*
X109923Y407032D01*
X109895Y407012D01*
X109868Y406987D01*
X109866Y406985D01*
X109862Y406981D01*
X109855Y406972D01*
X109846Y406961D01*
X109835Y406948D01*
X109824Y406932D01*
X109812Y406912D01*
X109799Y406890D01*
X109786Y406866D01*
X109773Y406839D01*
X109762Y406810D01*
X109751Y406779D01*
X109742Y406746D01*
X109735Y406710D01*
X109731Y406673D01*
X109730Y406634D01*
Y406617D01*
X109731Y406599D01*
X109733Y406573D01*
X109737Y406541D01*
X109744Y406504D01*
X109751Y406462D01*
X109762Y406415D01*
X109491Y406450D01*
Y406455D01*
X109493Y406461D01*
Y406468D01*
X109495Y406484D01*
Y406519D01*
X109493Y406532D01*
X109491Y406550D01*
X109489Y406570D01*
X109486Y406592D01*
X109482Y406617D01*
X109477Y406644D01*
X109469Y406672D01*
X109451Y406732D01*
X109440Y406763D01*
X109426Y406794D01*
X109411Y406825D01*
X109393Y406854D01*
X109391Y406855D01*
X109388Y406861D01*
X109382Y406868D01*
X109373Y406879D01*
X109362Y406890D01*
X109349Y406905D01*
X109333Y406917D01*
X109315Y406934D01*
X109293Y406948D01*
X109269Y406963D01*
X109244Y406976D01*
X109215Y406987D01*
X109184Y406997D01*
X109149Y407005D01*
X109113Y407010D01*
X109074Y407012D01*
X109073D01*
X109067D01*
X109058D01*
X109045Y407010D01*
X109033Y407008D01*
X109014Y407007D01*
X108996Y407003D01*
X108976Y406997D01*
X108932Y406983D01*
X108909Y406974D01*
X108885Y406963D01*
X108861Y406950D01*
X108838Y406934D01*
X108816Y406916D01*
X108794Y406896D01*
X108792Y406894D01*
X108789Y406890D01*
X108783Y406885D01*
X108776Y406876D01*
X108769Y406863D01*
X108758Y406850D01*
X108749Y406834D01*
X108738Y406815D01*
X108727Y406796D01*
X108718Y406774D01*
X108707Y406748D01*
X108700Y406723D01*
X108692Y406694D01*
X108687Y406664D01*
X108683Y406632D01*
X108681Y406599D01*
Y406581D01*
X108683Y406570D01*
X108685Y406553D01*
X108687Y406535D01*
X108691Y406515D01*
X108696Y406493D01*
X108709Y406446D01*
X108718Y406422D01*
X108730Y406397D01*
X108743Y406371D01*
X108758Y406346D01*
X108776Y406322D01*
X108796Y406299D01*
X108798Y406297D01*
X108801Y406293D01*
X108809Y406288D01*
X108818Y406279D01*
X108829Y406270D01*
X108843Y406259D01*
X108861Y406248D01*
X108880Y406235D01*
X108903Y406222D01*
X108929Y406209D01*
X108956Y406195D01*
X108987Y406184D01*
X109020Y406171D01*
X109054Y406162D01*
X109093Y406153D01*
X109134Y406146D01*
X109080Y405836D01*
X109078D01*
X109076D01*
X109065Y405840D01*
X109051Y405844D01*
X109029Y405849D01*
X109002Y405856D01*
X108973Y405865D01*
X108940Y405876D01*
X108903Y405889D01*
X108865Y405905D01*
X108825Y405924D01*
X108785Y405945D01*
X108745Y405969D01*
X108705Y405995D01*
X108667Y406024D01*
X108630Y406057D01*
X108598Y406093D01*
X108596Y406095D01*
X108590Y406102D01*
X108581Y406113D01*
X108570Y406129D01*
X108558Y406149D01*
X108543Y406173D01*
X108528Y406200D01*
X108512Y406231D01*
X108496Y406266D01*
X108481Y406304D01*
X108467Y406344D01*
X108454Y406388D01*
X108443Y406435D01*
X108434Y406486D01*
X108428Y406539D01*
X108426Y406593D01*
Y406613D01*
X108428Y406628D01*
Y406646D01*
X108432Y406668D01*
X108434Y406692D01*
X108438Y406717D01*
X108443Y406746D01*
X108448Y406776D01*
X108465Y406839D01*
X108474Y406874D01*
X108487Y406907D01*
X108499Y406939D01*
X108516Y406972D01*
X108518Y406974D01*
X108519Y406979D01*
X108525Y406988D01*
X108532Y407001D01*
X108541Y407016D01*
X108552Y407032D01*
X108565Y407050D01*
X108579Y407070D01*
X108614Y407114D01*
X108656Y407158D01*
X108703Y407199D01*
X108730Y407220D01*
X108758Y407238D01*
X108760Y407240D01*
X108765Y407241D01*
X108772Y407247D01*
X108785Y407252D01*
X108798Y407260D01*
X108816Y407267D01*
X108834Y407276D01*
X108856Y407285D01*
X108880Y407292D01*
X108903Y407301D01*
X108958Y407316D01*
X109018Y407327D01*
X109049Y407329D01*
X109082Y407331D01*
X109084D01*
X109089D01*
X109098D01*
X109109Y407329D01*
X109124D01*
X109140Y407325D01*
X109160Y407323D01*
X109180Y407320D01*
X109227Y407309D01*
X109276Y407292D01*
X109302Y407283D01*
X109329Y407270D01*
X109355Y407258D01*
X109380Y407241D01*
X109382Y407240D01*
X109386Y407238D01*
X109393Y407232D01*
X109402Y407225D01*
X109413Y407216D01*
X109426Y407205D01*
X109440Y407192D01*
X109457Y407176D01*
X109473Y407160D01*
X109489Y407139D01*
X109508Y407119D01*
X109526Y407096D01*
X109542Y407070D01*
X109560Y407043D01*
X109577Y407014D01*
X109591Y406983D01*
Y406985D01*
X109593Y406992D01*
X109597Y407005D01*
X109602Y407019D01*
X109608Y407039D01*
X109617Y407061D01*
X109626Y407085D01*
X109639Y407110D01*
X109651Y407138D01*
X109668Y407167D01*
X109684Y407196D01*
X109704Y407225D01*
X109726Y407252D01*
X109750Y407280D01*
X109777Y407307D01*
X109806Y407331D01*
X109808Y407332D01*
X109813Y407336D01*
X109822Y407341D01*
X109835Y407351D01*
X109852Y407360D01*
X109870Y407371D01*
X109892Y407381D01*
X109917Y407392D01*
X109946Y407403D01*
X109977Y407416D01*
X110010Y407425D01*
X110046Y407434D01*
X110085Y407443D01*
X110125Y407449D01*
X110167Y407452D01*
X110212Y407454D01*
X110216D01*
X110227D01*
X110245Y407452D01*
D02*
G37*
G36*
X110205Y405383D02*
X110230D01*
X110261Y405381D01*
X110296Y405378D01*
X110332Y405376D01*
X110370Y405370D01*
X110410Y405367D01*
X110492Y405352D01*
X110532Y405343D01*
X110571Y405332D01*
X110607Y405321D01*
X110642Y405307D01*
X110643D01*
X110649Y405303D01*
X110658Y405299D01*
X110671Y405292D01*
X110685Y405285D01*
X110702Y405274D01*
X110720Y405261D01*
X110740Y405248D01*
X110760Y405232D01*
X110782Y405214D01*
X110803Y405194D01*
X110825Y405172D01*
X110847Y405148D01*
X110867Y405123D01*
X110887Y405096D01*
X110905Y405065D01*
X110907Y405063D01*
X110909Y405057D01*
X110915Y405048D01*
X110920Y405035D01*
X110927Y405019D01*
X110934Y405001D01*
X110942Y404979D01*
X110951Y404954D01*
X110960Y404926D01*
X110967Y404897D01*
X110975Y404864D01*
X110982Y404832D01*
X110987Y404795D01*
X110993Y404757D01*
X110995Y404719D01*
X110996Y404677D01*
Y404662D01*
X110995Y404646D01*
X110993Y404622D01*
X110991Y404595D01*
X110986Y404562D01*
X110980Y404526D01*
X110973Y404488D01*
X110962Y404448D01*
X110951Y404406D01*
X110934Y404364D01*
X110916Y404322D01*
X110895Y404280D01*
X110869Y404240D01*
X110840Y404202D01*
X110807Y404167D01*
X110805Y404166D01*
X110798Y404160D01*
X110787Y404151D01*
X110771Y404140D01*
X110751Y404127D01*
X110727Y404113D01*
X110698Y404096D01*
X110665Y404082D01*
X110627Y404066D01*
X110585Y404049D01*
X110538Y404036D01*
X110487Y404024D01*
X110432Y404013D01*
X110372Y404005D01*
X110308Y404000D01*
X110241D01*
X110199Y404300D01*
X110203D01*
X110212D01*
X110227Y404302D01*
X110247Y404304D01*
X110270Y404306D01*
X110296Y404309D01*
X110325Y404313D01*
X110358Y404318D01*
X110423Y404331D01*
X110489Y404349D01*
X110518Y404362D01*
X110547Y404375D01*
X110572Y404391D01*
X110594Y404408D01*
X110596Y404410D01*
X110598Y404411D01*
X110603Y404419D01*
X110610Y404426D01*
X110618Y404435D01*
X110627Y404448D01*
X110638Y404460D01*
X110647Y404477D01*
X110656Y404495D01*
X110667Y404515D01*
X110676Y404537D01*
X110683Y404561D01*
X110691Y404588D01*
X110694Y404615D01*
X110698Y404644D01*
X110700Y404675D01*
Y404688D01*
X110698Y404697D01*
Y404708D01*
X110696Y404721D01*
X110693Y404750D01*
X110685Y404782D01*
X110676Y404819D01*
X110661Y404857D01*
X110643Y404892D01*
Y404894D01*
X110640Y404895D01*
X110632Y404906D01*
X110620Y404923D01*
X110601Y404941D01*
X110580Y404963D01*
X110552Y404983D01*
X110521Y405003D01*
X110487Y405017D01*
X110485D01*
X110481Y405019D01*
X110476Y405021D01*
X110469Y405023D01*
X110458Y405025D01*
X110445Y405028D01*
X110429Y405032D01*
X110410Y405035D01*
X110390Y405037D01*
X110367Y405041D01*
X110341Y405045D01*
X110312Y405047D01*
X110281Y405048D01*
X110248Y405050D01*
X110212Y405052D01*
X110172D01*
X108436D01*
Y405385D01*
X110152D01*
X110155D01*
X110167D01*
X110183D01*
X110205Y405383D01*
D02*
G37*
%LPC*%
G36*
X186056Y406796D02*
X184920D01*
X186056Y406006D01*
Y406796D01*
D02*
G37*
%LPD*%
D11*
X145102Y444626D02*
X157898D01*
Y460374D01*
X145102D02*
X157898D01*
X145102Y444626D02*
Y460374D01*
X178741Y467912D02*
X195228D01*
Y496655D01*
X178741D02*
X195228D01*
X178741Y467912D02*
Y496655D01*
X102756Y467912D02*
X119244D01*
Y496655D01*
X102756D02*
X119244D01*
X102756Y467912D02*
Y496655D01*
X178741Y389628D02*
X195228D01*
Y418372D01*
X178741D02*
X195228D01*
X178741Y389628D02*
Y418372D01*
X102756Y389628D02*
X119244D01*
Y418372D01*
X102756D02*
X119244D01*
X102756Y389628D02*
Y418372D01*
M02*
