G04*
G04 #@! TF.GenerationSoftware,Altium Limited,Altium Designer,20.1.14 (287)*
G04*
G04 Layer_Color=8421504*
%FSLAX25Y25*%
%MOIN*%
G70*
G04*
G04 #@! TF.SameCoordinates,C5642C15-9C93-435C-A7BF-0FB1E55D52FF*
G04*
G04*
G04 #@! TF.FilePolarity,Positive*
G04*
G01*
G75*
%ADD17R,0.02559X0.02362*%
%ADD18R,0.03858X0.03661*%
%ADD19R,0.09449X0.07480*%
%ADD20R,0.02362X0.02559*%
%ADD21R,0.08661X0.13780*%
%ADD22R,0.08661X0.03937*%
%ADD23R,0.06299X0.08583*%
%ADD24R,0.06299X0.08661*%
%ADD25R,0.03661X0.03858*%
%ADD26R,0.04724X0.01181*%
%ADD27R,0.01181X0.04724*%
%ADD28R,0.10236X0.07087*%
%ADD29R,0.04449X0.07087*%
%ADD30R,0.07874X0.07874*%
%ADD31O,0.02756X0.07087*%
%ADD32R,0.05787X0.04567*%
%ADD33O,0.07087X0.02756*%
%ADD34R,0.21260X0.11417*%
%ADD35R,0.07087X0.04449*%
%ADD36R,0.04803X0.04921*%
%ADD37R,0.04567X0.05787*%
%ADD38R,0.07087X0.05276*%
D17*
X183000Y179173D02*
D03*
Y175827D02*
D03*
X138500Y142500D02*
D03*
Y139154D02*
D03*
X70000Y195673D02*
D03*
Y192327D02*
D03*
X36500Y195173D02*
D03*
Y191827D02*
D03*
X80500Y260173D02*
D03*
Y256827D02*
D03*
X114500Y109173D02*
D03*
Y105827D02*
D03*
X105500Y109173D02*
D03*
Y105827D02*
D03*
X80000Y201827D02*
D03*
Y205173D02*
D03*
X73000Y201827D02*
D03*
Y205173D02*
D03*
X63500Y272847D02*
D03*
Y269500D02*
D03*
X45500Y164000D02*
D03*
Y167347D02*
D03*
X46000Y186673D02*
D03*
Y183327D02*
D03*
X34000Y231173D02*
D03*
Y227827D02*
D03*
X41000Y231173D02*
D03*
Y227827D02*
D03*
X117500Y57000D02*
D03*
Y60347D02*
D03*
X175000Y57153D02*
D03*
Y60500D02*
D03*
D18*
X164500Y222031D02*
D03*
Y215968D02*
D03*
X174000Y222031D02*
D03*
Y215968D02*
D03*
X183000Y222031D02*
D03*
Y215968D02*
D03*
X192500Y222031D02*
D03*
Y215968D02*
D03*
X131000Y126031D02*
D03*
Y119968D02*
D03*
X114500Y126532D02*
D03*
Y120468D02*
D03*
X105500Y126532D02*
D03*
Y120468D02*
D03*
X121500Y207531D02*
D03*
Y201468D02*
D03*
X150000Y221532D02*
D03*
Y215469D02*
D03*
X149000Y300969D02*
D03*
Y307031D02*
D03*
X108500Y300969D02*
D03*
Y307031D02*
D03*
X92500Y325532D02*
D03*
Y319468D02*
D03*
D19*
X59000Y167429D02*
D03*
Y183571D02*
D03*
D20*
X86327Y195000D02*
D03*
X89673D02*
D03*
X60673Y157000D02*
D03*
X57327D02*
D03*
X98673Y209000D02*
D03*
X95327D02*
D03*
X70327Y269500D02*
D03*
X73673D02*
D03*
X35173Y241000D02*
D03*
X31827D02*
D03*
X142173Y149000D02*
D03*
X138827D02*
D03*
D21*
X88689Y244500D02*
D03*
D22*
X112311Y253555D02*
D03*
Y244500D02*
D03*
Y235445D02*
D03*
D23*
X72000Y81410D02*
D03*
D24*
Y117591D02*
D03*
D25*
X114469Y215500D02*
D03*
X120531D02*
D03*
X157968Y204500D02*
D03*
X164032D02*
D03*
X108531Y325500D02*
D03*
X102469D02*
D03*
X134563Y320500D02*
D03*
X128500D02*
D03*
D26*
X79862Y180264D02*
D03*
Y178295D02*
D03*
Y176327D02*
D03*
Y174358D02*
D03*
Y172390D02*
D03*
Y170421D02*
D03*
Y168453D02*
D03*
Y166484D02*
D03*
Y164516D02*
D03*
Y162547D02*
D03*
Y160579D02*
D03*
Y158610D02*
D03*
Y156642D02*
D03*
Y154673D02*
D03*
Y152705D02*
D03*
Y150736D02*
D03*
X125138D02*
D03*
Y152705D02*
D03*
Y154673D02*
D03*
Y156642D02*
D03*
Y158610D02*
D03*
Y160579D02*
D03*
Y162547D02*
D03*
Y164516D02*
D03*
Y166484D02*
D03*
Y168453D02*
D03*
Y170421D02*
D03*
Y172390D02*
D03*
Y174358D02*
D03*
Y176327D02*
D03*
Y178295D02*
D03*
Y180264D02*
D03*
D27*
X87736Y142862D02*
D03*
X89705D02*
D03*
X91673D02*
D03*
X93642D02*
D03*
X95610D02*
D03*
X97579D02*
D03*
X99547D02*
D03*
X101516D02*
D03*
X103484D02*
D03*
X105453D02*
D03*
X107421D02*
D03*
X109390D02*
D03*
X111358D02*
D03*
X113327D02*
D03*
X115295D02*
D03*
X117264D02*
D03*
Y188138D02*
D03*
X115295D02*
D03*
X113327D02*
D03*
X111358D02*
D03*
X109390D02*
D03*
X107421D02*
D03*
X105453D02*
D03*
X103484D02*
D03*
X101516D02*
D03*
X99547D02*
D03*
X97579D02*
D03*
X95610D02*
D03*
X93642D02*
D03*
X91673D02*
D03*
X89705D02*
D03*
X87736D02*
D03*
D28*
X76000Y242406D02*
D03*
Y230594D02*
D03*
D29*
X66134Y217000D02*
D03*
X77866D02*
D03*
D30*
X8347Y24716D02*
D03*
X51653D02*
D03*
X8347Y48929D02*
D03*
X51653D02*
D03*
X53654Y317284D02*
D03*
X10346D02*
D03*
X53654Y293071D02*
D03*
X10346D02*
D03*
D31*
X46500Y270736D02*
D03*
X41500D02*
D03*
X36500D02*
D03*
X31500D02*
D03*
X46500Y250264D02*
D03*
X41500D02*
D03*
X36500D02*
D03*
X31500D02*
D03*
X93500Y57264D02*
D03*
X98500D02*
D03*
X103500D02*
D03*
X108500D02*
D03*
X93500Y77736D02*
D03*
X98500D02*
D03*
X103500D02*
D03*
X108500D02*
D03*
X151000Y57264D02*
D03*
X156000D02*
D03*
X161000D02*
D03*
X166000D02*
D03*
X151000Y77736D02*
D03*
X156000D02*
D03*
X161000D02*
D03*
X166000D02*
D03*
D32*
X126000Y245496D02*
D03*
Y252504D02*
D03*
X126500Y285504D02*
D03*
Y278496D02*
D03*
X104500D02*
D03*
Y285504D02*
D03*
X115500Y278496D02*
D03*
Y285504D02*
D03*
X158000Y308004D02*
D03*
Y300996D02*
D03*
X168000Y308004D02*
D03*
Y300996D02*
D03*
X90500Y285000D02*
D03*
Y292008D02*
D03*
X77500Y284996D02*
D03*
Y292004D02*
D03*
D33*
X119264Y312000D02*
D03*
Y307000D02*
D03*
Y302000D02*
D03*
Y297000D02*
D03*
X139736Y312000D02*
D03*
Y307000D02*
D03*
Y302000D02*
D03*
Y297000D02*
D03*
D34*
X184500Y244512D02*
D03*
Y283488D02*
D03*
D35*
X151500Y273634D02*
D03*
Y285366D02*
D03*
X138000Y273634D02*
D03*
Y285366D02*
D03*
X140000Y241134D02*
D03*
Y252866D02*
D03*
D36*
X81500Y329307D02*
D03*
Y317693D02*
D03*
X64500Y281193D02*
D03*
Y292807D02*
D03*
D37*
X157496Y179500D02*
D03*
X164504D02*
D03*
D38*
X191500Y328130D02*
D03*
Y316870D02*
D03*
M02*
