G04*
G04 #@! TF.GenerationSoftware,Altium Limited,Altium Designer,20.1.14 (287)*
G04*
G04 Layer_Color=16711935*
%FSLAX25Y25*%
%MOIN*%
G70*
G04*
G04 #@! TF.SameCoordinates,C5642C15-9C93-435C-A7BF-0FB1E55D52FF*
G04*
G04*
G04 #@! TF.FilePolarity,Positive*
G04*
G01*
G75*
%ADD10C,0.00787*%
G36*
X104480Y166605D02*
Y166603D01*
Y166601D01*
Y166596D01*
Y166588D01*
Y166579D01*
Y166568D01*
X104478Y166543D01*
Y166510D01*
X104476Y166474D01*
X104473Y166432D01*
X104469Y166388D01*
X104464Y166341D01*
X104458Y166292D01*
X104444Y166192D01*
X104433Y166141D01*
X104422Y166093D01*
X104407Y166046D01*
X104393Y166002D01*
X104391Y166000D01*
X104389Y165993D01*
X104384Y165980D01*
X104376Y165966D01*
X104366Y165946D01*
X104355Y165924D01*
X104340Y165900D01*
X104322Y165873D01*
X104302Y165844D01*
X104280Y165815D01*
X104254Y165786D01*
X104225Y165755D01*
X104194Y165724D01*
X104162Y165695D01*
X104123Y165666D01*
X104083Y165638D01*
X104081Y165636D01*
X104072Y165633D01*
X104060Y165626D01*
X104043Y165616D01*
X104020Y165605D01*
X103994Y165595D01*
X103961Y165582D01*
X103927Y165569D01*
X103885Y165556D01*
X103841Y165544D01*
X103794Y165533D01*
X103741Y165522D01*
X103685Y165513D01*
X103625Y165505D01*
X103563Y165502D01*
X103496Y165500D01*
X103461D01*
X103437Y165502D01*
X103406Y165504D01*
X103372Y165507D01*
X103332Y165511D01*
X103290Y165515D01*
X103244Y165522D01*
X103197Y165529D01*
X103150Y165540D01*
X103101Y165551D01*
X103053Y165566D01*
X103004Y165582D01*
X102959Y165600D01*
X102915Y165622D01*
X102913Y165624D01*
X102906Y165627D01*
X102893Y165635D01*
X102878Y165644D01*
X102860Y165656D01*
X102839Y165673D01*
X102817Y165691D01*
X102791Y165711D01*
X102766Y165735D01*
X102738Y165762D01*
X102711Y165789D01*
X102686Y165822D01*
X102660Y165855D01*
X102636Y165893D01*
X102615Y165931D01*
X102595Y165973D01*
X102593Y165977D01*
X102591Y165984D01*
X102585Y165997D01*
X102580Y166015D01*
X102573Y166039D01*
X102566Y166068D01*
X102556Y166101D01*
X102547Y166139D01*
X102538Y166182D01*
X102529Y166230D01*
X102522Y166281D01*
X102515Y166337D01*
X102509Y166397D01*
X102504Y166463D01*
X102502Y166532D01*
X102500Y166605D01*
Y168061D01*
X102833D01*
Y166606D01*
Y166603D01*
Y166592D01*
Y166576D01*
X102835Y166554D01*
Y166526D01*
X102837Y166496D01*
X102839Y166461D01*
X102840Y166423D01*
X102844Y166384D01*
X102848Y166344D01*
X102858Y166264D01*
X102866Y166226D01*
X102873Y166188D01*
X102882Y166153D01*
X102893Y166122D01*
Y166121D01*
X102897Y166115D01*
X102900Y166108D01*
X102906Y166097D01*
X102911Y166084D01*
X102920Y166070D01*
X102942Y166035D01*
X102971Y165997D01*
X102988Y165977D01*
X103008Y165957D01*
X103028Y165937D01*
X103051Y165919D01*
X103075Y165900D01*
X103102Y165884D01*
X103104D01*
X103110Y165880D01*
X103117Y165877D01*
X103130Y165871D01*
X103144Y165864D01*
X103161Y165857D01*
X103181Y165849D01*
X103204Y165842D01*
X103230Y165835D01*
X103257Y165828D01*
X103286Y165820D01*
X103319Y165813D01*
X103354Y165807D01*
X103390Y165804D01*
X103426Y165802D01*
X103466Y165800D01*
X103483D01*
X103501Y165802D01*
X103526D01*
X103557Y165806D01*
X103590Y165809D01*
X103628Y165815D01*
X103670Y165820D01*
X103712Y165829D01*
X103756Y165840D01*
X103799Y165855D01*
X103843Y165869D01*
X103885Y165889D01*
X103923Y165911D01*
X103960Y165937D01*
X103990Y165966D01*
X103992Y165968D01*
X103998Y165973D01*
X104005Y165984D01*
X104014Y165999D01*
X104027Y166019D01*
X104040Y166044D01*
X104054Y166073D01*
X104069Y166110D01*
X104083Y166150D01*
X104098Y166195D01*
X104111Y166248D01*
X104123Y166306D01*
X104132Y166372D01*
X104140Y166443D01*
X104145Y166521D01*
X104147Y166606D01*
Y168061D01*
X104480D01*
Y166605D01*
D02*
G37*
G36*
X105780Y168068D02*
X105805Y168066D01*
X105836Y168064D01*
X105871Y168059D01*
X105911Y168053D01*
X105953Y168044D01*
X105998Y168033D01*
X106044Y168021D01*
X106093Y168004D01*
X106140Y167984D01*
X106187Y167961D01*
X106233Y167935D01*
X106276Y167904D01*
X106318Y167868D01*
X106320Y167866D01*
X106327Y167859D01*
X106338Y167848D01*
X106351Y167831D01*
X106368Y167813D01*
X106386Y167789D01*
X106406Y167762D01*
X106426Y167731D01*
X106444Y167697D01*
X106464Y167658D01*
X106482Y167617D01*
X106499Y167573D01*
X106511Y167526D01*
X106522Y167476D01*
X106529Y167424D01*
X106531Y167369D01*
Y167367D01*
Y167362D01*
Y167355D01*
Y167344D01*
X106529Y167329D01*
X106528Y167315D01*
X106526Y167296D01*
X106524Y167276D01*
X106517Y167231D01*
X106506Y167180D01*
X106489Y167127D01*
X106469Y167072D01*
Y167071D01*
X106466Y167065D01*
X106462Y167058D01*
X106457Y167047D01*
X106451Y167034D01*
X106442Y167018D01*
X106433Y167000D01*
X106420Y166980D01*
X106407Y166958D01*
X106393Y166934D01*
X106357Y166881D01*
X106336Y166854D01*
X106315Y166825D01*
X106289Y166796D01*
X106264Y166765D01*
X106262Y166763D01*
X106256Y166758D01*
X106249Y166748D01*
X106236Y166736D01*
X106220Y166719D01*
X106200Y166699D01*
X106178Y166676D01*
X106151Y166648D01*
X106120Y166619D01*
X106084Y166586D01*
X106045Y166550D01*
X106002Y166510D01*
X105954Y166468D01*
X105903Y166423D01*
X105847Y166374D01*
X105787Y166323D01*
X105783Y166321D01*
X105774Y166312D01*
X105761Y166301D01*
X105743Y166284D01*
X105719Y166266D01*
X105696Y166244D01*
X105669Y166221D01*
X105640Y166195D01*
X105578Y166142D01*
X105549Y166115D01*
X105519Y166090D01*
X105492Y166064D01*
X105468Y166042D01*
X105447Y166022D01*
X105430Y166004D01*
X105427Y166000D01*
X105417Y165989D01*
X105403Y165973D01*
X105385Y165953D01*
X105365Y165928D01*
X105343Y165900D01*
X105321Y165869D01*
X105301Y165839D01*
X106535D01*
Y165542D01*
X104871D01*
Y165544D01*
Y165547D01*
Y165553D01*
Y165560D01*
Y165571D01*
X104873Y165582D01*
X104875Y165611D01*
X104879Y165642D01*
X104884Y165678D01*
X104893Y165717D01*
X104906Y165755D01*
Y165757D01*
X104910Y165762D01*
X104913Y165771D01*
X104919Y165784D01*
X104924Y165800D01*
X104933Y165819D01*
X104944Y165839D01*
X104955Y165860D01*
X104968Y165886D01*
X104984Y165911D01*
X105019Y165968D01*
X105061Y166028D01*
X105110Y166090D01*
X105112Y166092D01*
X105117Y166097D01*
X105124Y166106D01*
X105135Y166119D01*
X105150Y166135D01*
X105168Y166153D01*
X105188Y166175D01*
X105214Y166199D01*
X105241Y166226D01*
X105270Y166255D01*
X105303Y166286D01*
X105339Y166321D01*
X105379Y166355D01*
X105421Y166392D01*
X105467Y166430D01*
X105514Y166470D01*
X105516Y166472D01*
X105519Y166474D01*
X105525Y166479D01*
X105532Y166485D01*
X105541Y166494D01*
X105552Y166503D01*
X105579Y166526D01*
X105614Y166554D01*
X105650Y166588D01*
X105692Y166625D01*
X105736Y166665D01*
X105783Y166707D01*
X105829Y166750D01*
X105876Y166794D01*
X105920Y166840D01*
X105963Y166883D01*
X106002Y166925D01*
X106038Y166967D01*
X106067Y167005D01*
X106069Y167007D01*
X106073Y167014D01*
X106080Y167025D01*
X106091Y167038D01*
X106102Y167056D01*
X106113Y167076D01*
X106127Y167100D01*
X106140Y167125D01*
X106153Y167153D01*
X106167Y167182D01*
X106191Y167245D01*
X106200Y167278D01*
X106207Y167311D01*
X106211Y167344D01*
X106213Y167376D01*
Y167378D01*
Y167385D01*
Y167395D01*
X106211Y167407D01*
X106209Y167424D01*
X106205Y167442D01*
X106202Y167462D01*
X106196Y167484D01*
X106189Y167507D01*
X106180Y167533D01*
X106169Y167558D01*
X106156Y167584D01*
X106142Y167611D01*
X106124Y167637D01*
X106104Y167662D01*
X106080Y167686D01*
X106078Y167688D01*
X106074Y167691D01*
X106067Y167697D01*
X106056Y167706D01*
X106044Y167715D01*
X106027Y167726D01*
X106009Y167739D01*
X105989Y167750D01*
X105965Y167762D01*
X105940Y167773D01*
X105911Y167784D01*
X105882Y167793D01*
X105849Y167802D01*
X105814Y167808D01*
X105778Y167811D01*
X105740Y167813D01*
X105718D01*
X105703Y167811D01*
X105683Y167809D01*
X105661Y167806D01*
X105638Y167802D01*
X105610Y167797D01*
X105583Y167789D01*
X105554Y167780D01*
X105525Y167770D01*
X105494Y167757D01*
X105465Y167740D01*
X105436Y167722D01*
X105406Y167702D01*
X105381Y167678D01*
X105379Y167677D01*
X105376Y167673D01*
X105368Y167664D01*
X105361Y167655D01*
X105350Y167640D01*
X105339Y167624D01*
X105326Y167604D01*
X105315Y167582D01*
X105303Y167558D01*
X105290Y167529D01*
X105279Y167500D01*
X105268Y167467D01*
X105261Y167431D01*
X105254Y167393D01*
X105250Y167353D01*
X105248Y167309D01*
X104930Y167342D01*
Y167344D01*
Y167345D01*
X104931Y167351D01*
Y167358D01*
X104933Y167376D01*
X104939Y167400D01*
X104944Y167429D01*
X104952Y167464D01*
X104961Y167502D01*
X104972Y167542D01*
X104986Y167586D01*
X105002Y167629D01*
X105023Y167675D01*
X105046Y167720D01*
X105072Y167764D01*
X105103Y167806D01*
X105135Y167846D01*
X105174Y167882D01*
X105175Y167884D01*
X105183Y167890D01*
X105195Y167901D01*
X105212Y167911D01*
X105234Y167926D01*
X105259Y167942D01*
X105290Y167959D01*
X105325Y167977D01*
X105365Y167993D01*
X105406Y168010D01*
X105454Y168026D01*
X105505Y168041D01*
X105559Y168053D01*
X105618Y168062D01*
X105680Y168068D01*
X105745Y168070D01*
X105761D01*
X105780Y168068D01*
D02*
G37*
G36*
X192241Y325770D02*
X190272D01*
X190274Y325769D01*
X190277Y325765D01*
X190283Y325760D01*
X190290Y325750D01*
X190299Y325740D01*
X190312Y325725D01*
X190325Y325709D01*
X190339Y325692D01*
X190354Y325670D01*
X190372Y325649D01*
X190388Y325625D01*
X190408Y325600D01*
X190427Y325570D01*
X190447Y325541D01*
X190487Y325476D01*
X190489Y325474D01*
X190492Y325468D01*
X190498Y325458D01*
X190503Y325445D01*
X190512Y325430D01*
X190523Y325412D01*
X190534Y325390D01*
X190547Y325368D01*
X190572Y325317D01*
X190598Y325263D01*
X190623Y325206D01*
X190645Y325152D01*
X190347D01*
X190345Y325155D01*
X190341Y325163D01*
X190334Y325177D01*
X190325Y325195D01*
X190314Y325217D01*
X190299Y325245D01*
X190283Y325274D01*
X190265Y325305D01*
X190243Y325339D01*
X190221Y325376D01*
X190170Y325452D01*
X190113Y325530D01*
X190052Y325605D01*
X190050Y325607D01*
X190044Y325614D01*
X190035Y325623D01*
X190023Y325636D01*
X190006Y325652D01*
X189988Y325670D01*
X189966Y325691D01*
X189944Y325712D01*
X189919Y325734D01*
X189892Y325758D01*
X189835Y325803D01*
X189775Y325845D01*
X189744Y325863D01*
X189713Y325880D01*
Y326080D01*
X192241D01*
Y325770D01*
D02*
G37*
G36*
X191018Y324580D02*
X191042D01*
X191071Y324578D01*
X191104Y324577D01*
X191140Y324573D01*
X191178Y324569D01*
X191220Y324566D01*
X191306Y324553D01*
X191393Y324537D01*
X191479Y324515D01*
X191480D01*
X191488Y324511D01*
X191500Y324507D01*
X191515Y324502D01*
X191533Y324497D01*
X191555Y324487D01*
X191580Y324478D01*
X191606Y324467D01*
X191664Y324444D01*
X191726Y324413D01*
X191786Y324380D01*
X191844Y324342D01*
X191846Y324340D01*
X191850Y324336D01*
X191859Y324331D01*
X191868Y324324D01*
X191881Y324314D01*
X191895Y324302D01*
X191928Y324274D01*
X191964Y324240D01*
X192003Y324202D01*
X192039Y324158D01*
X192074Y324113D01*
Y324111D01*
X192077Y324107D01*
X192081Y324100D01*
X192086Y324091D01*
X192094Y324078D01*
X192101Y324063D01*
X192110Y324047D01*
X192119Y324029D01*
X192130Y324007D01*
X192141Y323985D01*
X192150Y323960D01*
X192161Y323934D01*
X192181Y323876D01*
X192199Y323812D01*
Y323810D01*
X192201Y323805D01*
X192203Y323794D01*
X192207Y323781D01*
X192208Y323765D01*
X192212Y323745D01*
X192216Y323721D01*
X192219Y323696D01*
X192225Y323667D01*
X192228Y323636D01*
X192232Y323603D01*
X192234Y323567D01*
X192237Y323530D01*
X192239Y323490D01*
X192241Y323408D01*
Y322500D01*
X189722D01*
Y323415D01*
X189724Y323439D01*
Y323468D01*
X189726Y323499D01*
Y323534D01*
X189731Y323607D01*
X189737Y323681D01*
X189742Y323718D01*
X189746Y323752D01*
X189751Y323785D01*
X189759Y323816D01*
Y323818D01*
X189760Y323825D01*
X189764Y323836D01*
X189768Y323852D01*
X189775Y323870D01*
X189782Y323892D01*
X189790Y323916D01*
X189801Y323943D01*
X189824Y324000D01*
X189857Y324062D01*
X189893Y324123D01*
X189915Y324154D01*
X189939Y324184D01*
X189941Y324185D01*
X189946Y324193D01*
X189957Y324203D01*
X189970Y324216D01*
X189986Y324233D01*
X190006Y324253D01*
X190030Y324273D01*
X190055Y324296D01*
X190086Y324320D01*
X190119Y324344D01*
X190154Y324369D01*
X190192Y324395D01*
X190234Y324418D01*
X190276Y324440D01*
X190323Y324462D01*
X190370Y324482D01*
X190374Y324484D01*
X190383Y324486D01*
X190396Y324491D01*
X190416Y324498D01*
X190441Y324506D01*
X190470Y324513D01*
X190505Y324522D01*
X190543Y324533D01*
X190585Y324542D01*
X190632Y324551D01*
X190681Y324558D01*
X190734Y324566D01*
X190789Y324573D01*
X190847Y324578D01*
X190907Y324580D01*
X190969Y324582D01*
X190973D01*
X190982D01*
X190996D01*
X191018Y324580D01*
D02*
G37*
%LPC*%
G36*
X191016Y324238D02*
X190963D01*
X190962D01*
X190960D01*
X190954D01*
X190945D01*
X190936D01*
X190925D01*
X190898Y324236D01*
X190865Y324235D01*
X190827Y324231D01*
X190785Y324227D01*
X190740Y324222D01*
X190692Y324214D01*
X190641Y324205D01*
X190592Y324196D01*
X190541Y324184D01*
X190492Y324167D01*
X190445Y324151D01*
X190399Y324131D01*
X190357Y324107D01*
X190356Y324105D01*
X190348Y324102D01*
X190337Y324094D01*
X190323Y324083D01*
X190306Y324071D01*
X190286Y324056D01*
X190265Y324040D01*
X190241Y324020D01*
X190217Y323998D01*
X190194Y323974D01*
X190170Y323947D01*
X190146Y323920D01*
X190124Y323890D01*
X190104Y323860D01*
X190086Y323827D01*
X190072Y323792D01*
Y323790D01*
X190070Y323787D01*
X190066Y323778D01*
X190063Y323767D01*
X190059Y323752D01*
X190055Y323734D01*
X190050Y323712D01*
X190044Y323689D01*
X190041Y323659D01*
X190035Y323628D01*
X190032Y323592D01*
X190026Y323554D01*
X190024Y323510D01*
X190021Y323465D01*
X190019Y323415D01*
Y322833D01*
X191945D01*
Y323412D01*
X191943Y323432D01*
Y323456D01*
X191941Y323483D01*
X191939Y323512D01*
X191934Y323574D01*
X191924Y323639D01*
X191913Y323703D01*
X191906Y323732D01*
X191899Y323759D01*
Y323761D01*
X191897Y323765D01*
X191893Y323774D01*
X191890Y323783D01*
X191886Y323796D01*
X191879Y323809D01*
X191864Y323841D01*
X191846Y323878D01*
X191824Y323916D01*
X191797Y323952D01*
X191768Y323987D01*
X191766Y323989D01*
X191762Y323992D01*
X191755Y323998D01*
X191746Y324007D01*
X191735Y324016D01*
X191721Y324027D01*
X191702Y324040D01*
X191684Y324054D01*
X191662Y324069D01*
X191639Y324083D01*
X191611Y324100D01*
X191584Y324114D01*
X191553Y324129D01*
X191520Y324144D01*
X191486Y324158D01*
X191449Y324171D01*
X191448D01*
X191440Y324174D01*
X191429Y324176D01*
X191413Y324182D01*
X191395Y324187D01*
X191371Y324193D01*
X191344Y324198D01*
X191313Y324205D01*
X191280Y324211D01*
X191242Y324216D01*
X191202Y324222D01*
X191160Y324227D01*
X191114Y324233D01*
X191067Y324235D01*
X191016Y324238D01*
D02*
G37*
%LPD*%
D10*
X77106Y190894D02*
X127894D01*
Y140106D02*
Y190894D01*
X77106Y140106D02*
X127894D01*
X77106D02*
Y190894D01*
X187268Y313839D02*
X195732D01*
Y331161D01*
X187268D02*
X195732D01*
X187268Y313839D02*
Y331161D01*
M02*
