G04*
G04 #@! TF.GenerationSoftware,Altium Limited,Altium Designer,20.1.14 (287)*
G04*
G04 Layer_Color=8388736*
%FSLAX25Y25*%
%MOIN*%
G70*
G04*
G04 #@! TF.SameCoordinates,C5642C15-9C93-435C-A7BF-0FB1E55D52FF*
G04*
G04*
G04 #@! TF.FilePolarity,Negative*
G04*
G01*
G75*
%ADD26R,0.04724X0.01181*%
%ADD27R,0.01181X0.04724*%
%ADD34R,0.21260X0.11417*%
%ADD38R,0.07087X0.05276*%
%ADD39R,0.02959X0.02762*%
%ADD40R,0.04449X0.04252*%
%ADD41R,0.10039X0.08071*%
%ADD42R,0.02762X0.02959*%
%ADD43R,0.09252X0.14370*%
%ADD44R,0.09252X0.04528*%
%ADD45R,0.06890X0.09173*%
%ADD46R,0.06890X0.09252*%
%ADD47R,0.04252X0.04449*%
%ADD48R,0.10827X0.07677*%
%ADD49R,0.05039X0.07677*%
%ADD50R,0.08465X0.08465*%
%ADD51R,0.03150X0.02953*%
%ADD52O,0.03347X0.07677*%
%ADD53R,0.06378X0.05158*%
%ADD54O,0.07677X0.03347*%
%ADD55R,0.07677X0.05039*%
%ADD56R,0.05394X0.05512*%
%ADD57R,0.05158X0.06378*%
%ADD58C,0.06890*%
%ADD59R,0.06890X0.06890*%
%ADD60C,0.07677*%
%ADD61R,0.06890X0.06890*%
%ADD62C,0.02953*%
D26*
X79862Y180264D02*
D03*
Y178295D02*
D03*
Y176327D02*
D03*
Y174358D02*
D03*
Y172390D02*
D03*
Y170421D02*
D03*
Y168453D02*
D03*
Y166484D02*
D03*
Y164516D02*
D03*
Y162547D02*
D03*
Y160579D02*
D03*
Y158610D02*
D03*
Y156642D02*
D03*
Y154673D02*
D03*
Y152705D02*
D03*
Y150736D02*
D03*
X125138D02*
D03*
Y152705D02*
D03*
Y154673D02*
D03*
Y156642D02*
D03*
Y158610D02*
D03*
Y160579D02*
D03*
Y162547D02*
D03*
Y164516D02*
D03*
Y166484D02*
D03*
Y168453D02*
D03*
Y170421D02*
D03*
Y172390D02*
D03*
Y174358D02*
D03*
Y176327D02*
D03*
Y178295D02*
D03*
Y180264D02*
D03*
D27*
X87736Y142862D02*
D03*
X89705D02*
D03*
X91673D02*
D03*
X93642D02*
D03*
X95610D02*
D03*
X97579D02*
D03*
X99547D02*
D03*
X101516D02*
D03*
X103484D02*
D03*
X105453D02*
D03*
X107421D02*
D03*
X109390D02*
D03*
X111358D02*
D03*
X113327D02*
D03*
X115295D02*
D03*
X117264D02*
D03*
Y188138D02*
D03*
X115295D02*
D03*
X113327D02*
D03*
X111358D02*
D03*
X109390D02*
D03*
X107421D02*
D03*
X105453D02*
D03*
X103484D02*
D03*
X101516D02*
D03*
X99547D02*
D03*
X97579D02*
D03*
X95610D02*
D03*
X93642D02*
D03*
X91673D02*
D03*
X89705D02*
D03*
X87736D02*
D03*
D34*
X184500Y244512D02*
D03*
Y283488D02*
D03*
D38*
X191500Y328130D02*
D03*
Y316870D02*
D03*
D39*
X183000Y179173D02*
D03*
Y175827D02*
D03*
X138500Y142500D02*
D03*
Y139154D02*
D03*
X70000Y195673D02*
D03*
Y192327D02*
D03*
X36500Y195173D02*
D03*
Y191827D02*
D03*
X80500Y260173D02*
D03*
Y256827D02*
D03*
X114500Y109173D02*
D03*
Y105827D02*
D03*
X105500Y109173D02*
D03*
Y105827D02*
D03*
X80000Y201827D02*
D03*
Y205173D02*
D03*
X73000Y201827D02*
D03*
Y205173D02*
D03*
X63500Y272847D02*
D03*
Y269500D02*
D03*
X45500Y164000D02*
D03*
Y167347D02*
D03*
X46000Y186673D02*
D03*
Y183327D02*
D03*
X117500Y57000D02*
D03*
Y60347D02*
D03*
X175000Y57153D02*
D03*
Y60500D02*
D03*
D40*
X164500Y222031D02*
D03*
Y215968D02*
D03*
X174000Y222031D02*
D03*
Y215968D02*
D03*
X183000Y222031D02*
D03*
Y215968D02*
D03*
X192500Y222031D02*
D03*
Y215968D02*
D03*
X131000Y126031D02*
D03*
Y119968D02*
D03*
X114500Y126532D02*
D03*
Y120468D02*
D03*
X105500Y126532D02*
D03*
Y120468D02*
D03*
X121500Y207531D02*
D03*
Y201468D02*
D03*
X150000Y221532D02*
D03*
Y215469D02*
D03*
X149000Y300969D02*
D03*
Y307031D02*
D03*
X108500Y300969D02*
D03*
Y307031D02*
D03*
X92500Y325532D02*
D03*
Y319468D02*
D03*
D41*
X59000Y167429D02*
D03*
Y183571D02*
D03*
D42*
X86327Y195000D02*
D03*
X89673D02*
D03*
X60673Y157000D02*
D03*
X57327D02*
D03*
X98673Y209000D02*
D03*
X95327D02*
D03*
X70327Y269500D02*
D03*
X73673D02*
D03*
X35173Y241000D02*
D03*
X31827D02*
D03*
X142173Y149000D02*
D03*
X138827D02*
D03*
D43*
X88689Y244500D02*
D03*
D44*
X112311Y253555D02*
D03*
Y244500D02*
D03*
Y235445D02*
D03*
D45*
X72000Y81410D02*
D03*
D46*
Y117591D02*
D03*
D47*
X114469Y215500D02*
D03*
X120531D02*
D03*
X157968Y204500D02*
D03*
X164032D02*
D03*
X108531Y325500D02*
D03*
X102469D02*
D03*
X134563Y320500D02*
D03*
X128500D02*
D03*
D48*
X76000Y242406D02*
D03*
Y230594D02*
D03*
D49*
X66134Y217000D02*
D03*
X77866D02*
D03*
D50*
X8347Y24716D02*
D03*
X51653D02*
D03*
X8347Y48929D02*
D03*
X51653D02*
D03*
X53654Y317284D02*
D03*
X10346D02*
D03*
X53654Y293071D02*
D03*
X10346D02*
D03*
D51*
X34000Y231173D02*
D03*
Y227827D02*
D03*
X41000Y231173D02*
D03*
Y227827D02*
D03*
D52*
X46500Y270736D02*
D03*
X41500D02*
D03*
X36500D02*
D03*
X31500D02*
D03*
X46500Y250264D02*
D03*
X41500D02*
D03*
X36500D02*
D03*
X31500D02*
D03*
X93500Y57264D02*
D03*
X98500D02*
D03*
X103500D02*
D03*
X108500D02*
D03*
X93500Y77736D02*
D03*
X98500D02*
D03*
X103500D02*
D03*
X108500D02*
D03*
X151000Y57264D02*
D03*
X156000D02*
D03*
X161000D02*
D03*
X166000D02*
D03*
X151000Y77736D02*
D03*
X156000D02*
D03*
X161000D02*
D03*
X166000D02*
D03*
D53*
X126000Y245496D02*
D03*
Y252504D02*
D03*
X126500Y285504D02*
D03*
Y278496D02*
D03*
X104500D02*
D03*
Y285504D02*
D03*
X115500Y278496D02*
D03*
Y285504D02*
D03*
X158000Y308004D02*
D03*
Y300996D02*
D03*
X168000Y308004D02*
D03*
Y300996D02*
D03*
X90500Y285000D02*
D03*
Y292008D02*
D03*
X77500Y284996D02*
D03*
Y292004D02*
D03*
D54*
X119264Y312000D02*
D03*
Y307000D02*
D03*
Y302000D02*
D03*
Y297000D02*
D03*
X139736Y312000D02*
D03*
Y307000D02*
D03*
Y302000D02*
D03*
Y297000D02*
D03*
D55*
X151500Y273634D02*
D03*
Y285366D02*
D03*
X138000Y273634D02*
D03*
Y285366D02*
D03*
X140000Y241134D02*
D03*
Y252866D02*
D03*
D56*
X81500Y329307D02*
D03*
Y317693D02*
D03*
X64500Y281193D02*
D03*
Y292807D02*
D03*
D57*
X157496Y179500D02*
D03*
X164504D02*
D03*
D58*
X153500Y27000D02*
D03*
X30000Y24716D02*
D03*
X67500Y317000D02*
D03*
X32000Y317284D02*
D03*
X201000Y180000D02*
D03*
Y170000D02*
D03*
Y160000D02*
D03*
X31000Y138500D02*
D03*
X19500Y89000D02*
D03*
X95500Y27000D02*
D03*
D59*
X163500D02*
D03*
X29500Y89000D02*
D03*
X105500Y27000D02*
D03*
D60*
X30000Y42433D02*
D03*
X32000Y299567D02*
D03*
D61*
X67500Y327000D02*
D03*
X201000Y150000D02*
D03*
X31000Y128500D02*
D03*
D62*
X170500Y204500D02*
D03*
X187337Y175663D02*
D03*
X115348Y148348D02*
D03*
X89729Y148729D02*
D03*
X157500Y294500D02*
D03*
X180500Y60500D02*
D03*
X122500D02*
D03*
X168500Y210500D02*
D03*
X163500D02*
D03*
X104000Y84500D02*
D03*
X138000Y120000D02*
D03*
X138500Y134000D02*
D03*
X148000Y142500D02*
D03*
X161000Y84500D02*
D03*
X148000Y148000D02*
D03*
X183500Y142500D02*
D03*
X73500Y188500D02*
D03*
X86500Y160500D02*
D03*
X90037Y181037D02*
D03*
X31000Y191500D02*
D03*
X46000D02*
D03*
X94000Y195000D02*
D03*
X85500Y256500D02*
D03*
X114500Y101000D02*
D03*
X171000Y179500D02*
D03*
X51500Y154500D02*
D03*
X72000Y90000D02*
D03*
X69500Y125500D02*
D03*
X86000Y168500D02*
D03*
X105500Y101000D02*
D03*
X127149Y201351D02*
D03*
X122500Y234500D02*
D03*
X130500D02*
D03*
X41000Y161500D02*
D03*
X31500Y257000D02*
D03*
X78500Y269500D02*
D03*
X118500Y178500D02*
D03*
X59000Y30000D02*
D03*
Y34000D02*
D03*
Y38000D02*
D03*
Y42000D02*
D03*
X205000Y331000D02*
D03*
X28500Y237440D02*
D03*
X34000Y223000D02*
D03*
X144500Y304500D02*
D03*
X90000Y278500D02*
D03*
X85500D02*
D03*
X81000D02*
D03*
X76500D02*
D03*
X126500Y234500D02*
D03*
X89000Y228500D02*
D03*
Y217000D02*
D03*
X142000Y279500D02*
D03*
X137500D02*
D03*
X133000D02*
D03*
X106000Y296000D02*
D03*
X132500Y307000D02*
D03*
X3000Y292000D02*
D03*
Y296000D02*
D03*
Y320500D02*
D03*
Y317000D02*
D03*
X117500Y324500D02*
D03*
Y337000D02*
D03*
X175000Y331500D02*
D03*
X146000D02*
D03*
M02*
