G04*
G04 #@! TF.GenerationSoftware,Altium Limited,Altium Designer,20.1.14 (287)*
G04*
G04 Layer_Color=65535*
%FSLAX25Y25*%
%MOIN*%
G70*
G04*
G04 #@! TF.SameCoordinates,C5642C15-9C93-435C-A7BF-0FB1E55D52FF*
G04*
G04*
G04 #@! TF.FilePolarity,Positive*
G04*
G01*
G75*
%ADD10C,0.00787*%
%ADD11C,0.00984*%
%ADD12C,0.01181*%
%ADD13C,0.01575*%
%ADD14C,0.01000*%
%ADD15R,0.04724X0.01181*%
%ADD16R,0.01181X0.04724*%
D10*
X181602Y181339D02*
X180736Y180472D01*
X185264D02*
X184398Y181339D01*
X180736Y174528D02*
X181602Y173661D01*
X184398D02*
X185264Y174528D01*
X161390Y214531D02*
X161851Y213418D01*
X162965Y212957D01*
X166035D02*
X167149Y213418D01*
X167610Y214531D01*
X167610Y223468D02*
X167149Y224582D01*
X166035Y225043D01*
X162965Y225043D02*
X161851Y224582D01*
X161390Y223468D01*
X170890Y214531D02*
X171351Y213418D01*
X172465Y212957D01*
X175535D02*
X176649Y213418D01*
X177110Y214531D01*
X177110Y223468D02*
X176649Y224582D01*
X175535Y225043D01*
X172465Y225043D02*
X171351Y224582D01*
X170890Y223468D01*
X179890Y214531D02*
X180351Y213418D01*
X181465Y212957D01*
X184535D02*
X185649Y213418D01*
X186110Y214531D01*
X186110Y223468D02*
X185649Y224582D01*
X184535Y225043D01*
X181465Y225043D02*
X180351Y224582D01*
X179890Y223468D01*
X189390Y214531D02*
X189851Y213418D01*
X190965Y212957D01*
X194035D02*
X195149Y213418D01*
X195610Y214531D01*
X195610Y223468D02*
X195149Y224582D01*
X194035Y225043D01*
X190965Y225043D02*
X189851Y224582D01*
X189390Y223468D01*
X137102Y144665D02*
X136236Y143799D01*
X140764D02*
X139898Y144665D01*
X136236Y137854D02*
X137102Y136988D01*
X139898D02*
X140764Y137854D01*
X68602Y197839D02*
X67736Y196972D01*
X72264D02*
X71398Y197839D01*
X67736Y191028D02*
X68602Y190161D01*
X71398D02*
X72264Y191028D01*
X35102Y197339D02*
X34236Y196472D01*
X38764D02*
X37898Y197339D01*
X34236Y190528D02*
X35102Y189661D01*
X37898D02*
X38764Y190528D01*
X84161Y193602D02*
X85028Y192736D01*
Y197264D02*
X84161Y196398D01*
X90972Y192736D02*
X91839Y193602D01*
Y196398D02*
X90972Y197264D01*
X79102Y262339D02*
X78236Y261472D01*
X82764D02*
X81898Y262339D01*
X78236Y255528D02*
X79102Y254661D01*
X81898D02*
X82764Y255528D01*
X127890Y118532D02*
X128351Y117418D01*
X129465Y116957D01*
X132535D02*
X133649Y117418D01*
X134110Y118532D01*
X134110Y127469D02*
X133649Y128582D01*
X132535Y129043D01*
X129465Y129043D02*
X128351Y128582D01*
X127890Y127469D01*
X62839Y158398D02*
X61972Y159264D01*
Y154736D02*
X62839Y155602D01*
X56028Y159264D02*
X55161Y158398D01*
Y155602D02*
X56028Y154736D01*
X100839Y210398D02*
X99972Y211264D01*
Y206736D02*
X100839Y207602D01*
X94028Y211264D02*
X93161Y210398D01*
Y207602D02*
X94028Y206736D01*
X81398Y199661D02*
X82264Y200528D01*
X77736D02*
X78602Y199661D01*
X82264Y206472D02*
X81398Y207339D01*
X78602D02*
X77736Y206472D01*
X74398Y199661D02*
X75264Y200528D01*
X70736D02*
X71602Y199661D01*
X75264Y206472D02*
X74398Y207339D01*
X71602D02*
X70736Y206472D01*
X46898Y161835D02*
X47764Y162701D01*
X43236D02*
X44102Y161835D01*
X47764Y168646D02*
X46898Y169512D01*
X44102D02*
X43236Y168646D01*
X44602Y188839D02*
X43736Y187972D01*
X48264D02*
X47398Y188839D01*
X43736Y182028D02*
X44602Y181161D01*
X47398D02*
X48264Y182028D01*
X79697Y212276D02*
X80810Y212737D01*
X81272Y213850D01*
Y220150D02*
X80810Y221263D01*
X79697Y221724D01*
X64303D02*
X63190Y221263D01*
X62728Y220150D01*
Y213850D02*
X63190Y212737D01*
X64303Y212276D01*
X37339Y242398D02*
X36472Y243264D01*
Y238736D02*
X37339Y239602D01*
X30528Y243264D02*
X29661Y242398D01*
Y239602D02*
X30528Y238736D01*
X123500Y255968D02*
X122386Y255507D01*
X121925Y254394D01*
X130075Y254394D02*
X129614Y255507D01*
X128500Y255968D01*
X128500Y242032D02*
X129614Y242493D01*
X130075Y243606D01*
X121925Y243606D02*
X122386Y242493D01*
X123500Y242032D01*
X122425Y276606D02*
X122886Y275493D01*
X124000Y275031D01*
X129000Y275031D02*
X130114Y275493D01*
X130575Y276606D01*
X130575Y287394D02*
X130114Y288507D01*
X129000Y288968D01*
X124000Y288968D02*
X122886Y288507D01*
X122425Y287394D01*
X152110Y308469D02*
X151649Y309582D01*
X150535Y310043D01*
X147465D02*
X146351Y309582D01*
X145890Y308469D01*
X145890Y299532D02*
X146351Y298418D01*
X147465Y297957D01*
X150535Y297957D02*
X151649Y298418D01*
X152110Y299532D01*
X163925Y299106D02*
X164386Y297993D01*
X165500Y297532D01*
X170500Y297532D02*
X171614Y297993D01*
X172075Y299106D01*
X172075Y309894D02*
X171614Y311007D01*
X170500Y311469D01*
X165500Y311469D02*
X164386Y311007D01*
X163925Y309894D01*
X106965Y310043D02*
X105851Y309582D01*
X105390Y308469D01*
X111610Y308469D02*
X111149Y309582D01*
X110035Y310043D01*
X110035Y297957D02*
X111149Y298418D01*
X111610Y299532D01*
X105390D02*
X105851Y298418D01*
X106965Y297957D01*
X144339Y150398D02*
X143472Y151264D01*
Y146736D02*
X144339Y147602D01*
X137528Y151264D02*
X136661Y150398D01*
Y147602D02*
X137528Y146736D01*
X136850Y256272D02*
X135737Y255810D01*
X135276Y254697D01*
X144724D02*
X144263Y255810D01*
X143150Y256272D01*
Y237728D02*
X144263Y238190D01*
X144724Y239303D01*
X135276Y239303D02*
X135737Y238190D01*
X136850Y237728D01*
X125488Y318965D02*
X125949Y317851D01*
X127063Y317390D01*
X127063Y323610D02*
X125949Y323149D01*
X125488Y322035D01*
X137575Y322035D02*
X137114Y323149D01*
X136000Y323610D01*
Y317390D02*
X137114Y317851D01*
X137575Y318965D01*
X88000Y295472D02*
X86886Y295011D01*
X86425Y293898D01*
X94575Y293898D02*
X94113Y295011D01*
X93000Y295472D01*
X93000Y281535D02*
X94114Y281997D01*
X94575Y283110D01*
X86425Y283110D02*
X86886Y281997D01*
X88000Y281535D01*
X75000Y295468D02*
X73886Y295007D01*
X73425Y293894D01*
X81575Y293894D02*
X81113Y295007D01*
X80000Y295468D01*
X80000Y281532D02*
X81114Y281993D01*
X81575Y283106D01*
X73425Y283106D02*
X73886Y281993D01*
X75000Y281532D01*
X181602Y181339D02*
X184398D01*
X180736Y178681D02*
Y180453D01*
X185264Y178681D02*
Y180453D01*
X180736Y174547D02*
Y176319D01*
X185264Y174547D02*
Y176319D01*
X181602Y173661D02*
X184398D01*
X148500Y23969D02*
Y30031D01*
X167516Y22000D02*
X168500Y23969D01*
X159485Y22000D02*
X167516D01*
X158500Y23969D02*
X159485Y22000D01*
X157516D02*
X158500Y23969D01*
X149485Y22000D02*
X157516D01*
X148500Y23969D02*
X149485Y22000D01*
X148500Y30031D02*
X149485Y32000D01*
X157516D01*
X158500Y30031D01*
X159485Y32000D01*
X167516D01*
X168500Y30031D01*
Y23969D02*
Y30031D01*
X167610Y214531D02*
Y217425D01*
X167610Y220575D02*
Y223468D01*
X161390Y220575D02*
Y223468D01*
X162965Y212957D02*
X166035D01*
X162965Y225043D02*
X166035D01*
X161390Y214531D02*
Y217425D01*
X177110Y214531D02*
Y217425D01*
X177110Y220575D02*
Y223468D01*
X170890Y220575D02*
Y223468D01*
X172465Y212957D02*
X175535D01*
X172465Y225043D02*
X175535D01*
X170890Y214531D02*
Y217425D01*
X186110Y214531D02*
Y217425D01*
X186110Y220575D02*
Y223468D01*
X179890Y220575D02*
Y223468D01*
X181465Y212957D02*
X184535D01*
X181465Y225043D02*
X184535D01*
X179890Y214531D02*
Y217425D01*
X195610Y214531D02*
Y217425D01*
X195610Y220575D02*
Y223468D01*
X189390Y220575D02*
Y223468D01*
X190965Y212957D02*
X194035D01*
X190965Y225043D02*
X194035D01*
X189390Y214531D02*
Y217425D01*
X137102Y144665D02*
X139898D01*
X136236Y142008D02*
Y143780D01*
X140764Y142008D02*
Y143780D01*
X136236Y137874D02*
Y139646D01*
X140764Y137874D02*
Y139646D01*
X137102Y136988D02*
X139898D01*
X68602Y197839D02*
X71398D01*
X67736Y195181D02*
Y196953D01*
X72264Y195181D02*
Y196953D01*
X67736Y191047D02*
Y192819D01*
X72264Y191047D02*
Y192819D01*
X68602Y190161D02*
X71398D01*
X35102Y197339D02*
X37898D01*
X34236Y194681D02*
Y196453D01*
X38764Y194681D02*
Y196453D01*
X34236Y190547D02*
Y192319D01*
X38764Y190547D02*
Y192319D01*
X35102Y189661D02*
X37898D01*
X84161Y193602D02*
Y196398D01*
X85047Y192736D02*
X86819D01*
X85047Y197264D02*
X86819D01*
X89181Y192736D02*
X90953D01*
X89181Y197264D02*
X90953D01*
X91839Y193602D02*
Y196398D01*
X79102Y262339D02*
X81898D01*
X78236Y259681D02*
Y261453D01*
X82764Y259681D02*
Y261453D01*
X78236Y255547D02*
Y257319D01*
X82764Y255547D02*
Y257319D01*
X79102Y254661D02*
X81898D01*
X134110Y118532D02*
Y121425D01*
X134110Y124575D02*
Y127469D01*
X127890Y124575D02*
Y127469D01*
X129465Y116957D02*
X132535D01*
X129465Y129043D02*
X132535D01*
X127890Y118532D02*
Y121425D01*
X112236Y103661D02*
X116764D01*
X112236Y111339D02*
X116764D01*
X112236Y103661D02*
Y106319D01*
Y108681D02*
Y111339D01*
X116764Y103661D02*
Y106319D01*
Y108681D02*
Y111339D01*
X62839Y155602D02*
Y158398D01*
X60181Y159264D02*
X61953D01*
X60181Y154736D02*
X61953D01*
X56047Y159264D02*
X57819D01*
X56047Y154736D02*
X57819D01*
X55161Y155602D02*
Y158398D01*
X78890Y87689D02*
Y111311D01*
X65110D02*
X78890D01*
X65110Y87689D02*
X78890D01*
X65110D02*
Y111311D01*
X117610Y125075D02*
Y129543D01*
Y118382D02*
Y121925D01*
X111390Y125075D02*
Y129543D01*
X112150Y117595D02*
X116850D01*
X111390Y129543D02*
X117610D01*
X111390Y118382D02*
Y121925D01*
Y118382D02*
X112150Y117595D01*
X116850D02*
X117610Y118382D01*
X103236Y103661D02*
X107764D01*
X103236Y111339D02*
X107764D01*
X103236Y103661D02*
Y106319D01*
Y108681D02*
Y111339D01*
X107764Y103661D02*
Y106319D01*
Y108681D02*
Y111339D01*
X108610Y125075D02*
Y129543D01*
Y118382D02*
Y121925D01*
X102390Y125075D02*
Y129543D01*
X103150Y117595D02*
X107850D01*
X102390Y129543D02*
X108610D01*
X102390Y118382D02*
Y121925D01*
Y118382D02*
X103150Y117595D01*
X107850D02*
X108610Y118382D01*
X124610Y206075D02*
Y210543D01*
Y198457D02*
Y202925D01*
X118390Y206075D02*
Y210543D01*
Y198457D02*
X124610D01*
X118390Y210543D02*
X124610D01*
X118390Y198457D02*
Y202925D01*
X111457Y218610D02*
X115925D01*
X119075D02*
X122618D01*
X111457Y212390D02*
X115925D01*
X123406Y213150D02*
Y217850D01*
X111457Y212390D02*
Y218610D01*
X119075Y212390D02*
X122618D01*
X123406Y213150D01*
X122618Y218610D02*
X123406Y217850D01*
X154957Y207610D02*
X159425D01*
X162575D02*
X167043D01*
X154957Y201390D02*
X159425D01*
X167043D02*
Y207610D01*
X154957Y201390D02*
Y207610D01*
X162575Y201390D02*
X167043D01*
X153110Y220075D02*
Y224543D01*
Y213382D02*
Y216925D01*
X146890Y220075D02*
Y224543D01*
X147650Y212595D02*
X152350D01*
X146890Y224543D02*
X153110D01*
X146890Y213382D02*
Y216925D01*
Y213382D02*
X147650Y212595D01*
X152350D02*
X153110Y213382D01*
X82421Y185579D02*
X85669D01*
X119331D02*
X122579D01*
Y145421D02*
Y148669D01*
Y182331D02*
Y185579D01*
X82421Y145421D02*
X85669D01*
X119331D02*
X122579D01*
X82421D02*
Y148669D01*
Y182331D02*
Y185579D01*
X100839Y207602D02*
Y210398D01*
X98181Y211264D02*
X99953D01*
X98181Y206736D02*
X99953D01*
X94047Y211264D02*
X95819D01*
X94047Y206736D02*
X95819D01*
X93161Y207602D02*
Y210398D01*
X78602Y199661D02*
X81398D01*
X82264Y200547D02*
Y202319D01*
X77736Y200547D02*
Y202319D01*
X82264Y204681D02*
Y206453D01*
X77736Y204681D02*
Y206453D01*
X78602Y207339D02*
X81398D01*
X71602Y199661D02*
X74398D01*
X75264Y200547D02*
Y202319D01*
X70736Y200547D02*
Y202319D01*
X75264Y204681D02*
Y206453D01*
X70736Y204681D02*
Y206453D01*
X71602Y207339D02*
X74398D01*
X75839Y267236D02*
Y271764D01*
X68161Y267236D02*
Y271764D01*
X73181Y267236D02*
X75839D01*
X68161D02*
X70819D01*
X73181Y271764D02*
X75839D01*
X68161D02*
X70819D01*
X61236Y267335D02*
X65764D01*
X61236Y275012D02*
X65764D01*
X61236Y267335D02*
Y269992D01*
Y272354D02*
Y275012D01*
X65764Y267335D02*
Y269992D01*
Y272354D02*
Y275012D01*
X44102Y161835D02*
X46898D01*
X47764Y162721D02*
Y164492D01*
X43236Y162721D02*
Y164492D01*
X47764Y166854D02*
Y168626D01*
X43236Y166854D02*
Y168626D01*
X44102Y169512D02*
X46898D01*
X44602Y188839D02*
X47398D01*
X43736Y186181D02*
Y187953D01*
X48264Y186181D02*
Y187953D01*
X43736Y182047D02*
Y183819D01*
X48264Y182047D02*
Y183819D01*
X44602Y181161D02*
X47398D01*
X81272Y213850D02*
Y220150D01*
X62728Y213850D02*
Y220150D01*
X75937Y212276D02*
X79697D01*
X64303D02*
X68063D01*
X64303Y221724D02*
X68063D01*
X75937D02*
X79697D01*
X47717Y54047D02*
Y62906D01*
Y29835D02*
Y43811D01*
Y5032D02*
Y19598D01*
X12284Y5032D02*
X47717D01*
X36693Y62906D02*
X47717D01*
X36693Y58969D02*
Y62906D01*
X12284Y58969D02*
X36693D01*
X12284Y5032D02*
Y19598D01*
Y29835D02*
Y43811D01*
Y54047D02*
Y58969D01*
X31736Y225661D02*
X36264D01*
X31736Y233339D02*
X36264D01*
X31736Y225661D02*
Y228319D01*
Y230681D02*
Y233339D01*
X36264Y225661D02*
Y228319D01*
Y230681D02*
Y233339D01*
X38736Y225661D02*
X43264D01*
X38736Y233339D02*
X43264D01*
X38736Y225661D02*
Y228319D01*
Y230681D02*
Y233339D01*
X43264Y225661D02*
Y228319D01*
Y230681D02*
Y233339D01*
X37339Y239602D02*
Y242398D01*
X34681Y243264D02*
X36453D01*
X34681Y238736D02*
X36453D01*
X30547Y243264D02*
X32319D01*
X30547Y238736D02*
X32319D01*
X29661Y239602D02*
Y242398D01*
X121925Y243606D02*
Y247228D01*
Y250772D02*
Y254394D01*
X130075Y250772D02*
Y254394D01*
X123500Y255968D02*
X128500D01*
X130075Y243606D02*
Y247228D01*
X123500Y242032D02*
X128500D01*
X146776Y283437D02*
Y288772D01*
X156224Y283437D02*
Y288772D01*
Y270228D02*
Y275563D01*
X146776Y270228D02*
X156224D01*
X146776Y288772D02*
X156224D01*
X146776Y270228D02*
Y275563D01*
X133276Y283437D02*
Y288772D01*
X142724Y283437D02*
Y288772D01*
Y270228D02*
Y275563D01*
X133276Y270228D02*
X142724D01*
X133276Y288772D02*
X142724D01*
X133276Y270228D02*
Y275563D01*
X124000Y275031D02*
X129000D01*
X130575Y276606D02*
Y280228D01*
X124000Y288968D02*
X129000D01*
X130575Y283772D02*
Y287394D01*
X122425Y283772D02*
Y287394D01*
Y276606D02*
Y280228D01*
X100425Y288968D02*
X108575D01*
X100425Y275031D02*
X108575D01*
Y280228D01*
Y283772D02*
Y288968D01*
X100425Y283772D02*
Y288968D01*
Y275031D02*
Y280228D01*
X111425Y288968D02*
X119575D01*
X111425Y275031D02*
X119575D01*
Y280228D01*
Y283772D02*
Y288968D01*
X111425Y283772D02*
Y288968D01*
Y275031D02*
Y280228D01*
X145890Y305575D02*
Y308469D01*
X145890Y299532D02*
Y302425D01*
X152110Y299532D02*
Y302425D01*
X147465Y310043D02*
X150535D01*
X147465Y297957D02*
X150535D01*
X152110Y305575D02*
Y308469D01*
X153925Y297532D02*
X162075D01*
X153925Y311469D02*
X162075D01*
X153925Y306272D02*
Y311469D01*
Y297532D02*
Y302728D01*
X162075Y297532D02*
Y302728D01*
Y306272D02*
Y311469D01*
X165500Y297532D02*
X170500D01*
X172075Y299106D02*
Y302728D01*
X165500Y311469D02*
X170500D01*
X172075Y306272D02*
Y309894D01*
X163925Y306272D02*
Y309894D01*
Y299106D02*
Y302728D01*
X105390Y299532D02*
Y302425D01*
X106965Y310043D02*
X110035D01*
X106965Y297957D02*
X110035D01*
X105390Y305575D02*
Y308469D01*
X111610Y305575D02*
Y308469D01*
X111610Y299532D02*
Y302425D01*
X78252Y325272D02*
X84748D01*
X78252Y321728D02*
X84748D01*
X78252D02*
Y325272D01*
X84748Y321728D02*
Y325272D01*
X61252Y285228D02*
X67748D01*
X61252Y288772D02*
X67748D01*
Y285228D02*
Y288772D01*
X61252Y285228D02*
Y288772D01*
X64469Y332000D02*
X70531D01*
X62500Y331016D02*
X64469Y332000D01*
X62500Y322985D02*
Y331016D01*
Y322985D02*
X64469Y322000D01*
X62500Y321016D02*
X64469Y322000D01*
X62500Y312985D02*
Y321016D01*
Y312985D02*
X64469Y312000D01*
X70531D02*
X72500Y312985D01*
Y321016D01*
X70531Y322000D02*
X72500Y321016D01*
X70531Y322000D02*
X72500Y322985D01*
Y331016D01*
X70531Y332000D02*
X72500Y331016D01*
X64469Y312000D02*
X70531D01*
X89390Y327618D02*
X90150Y328405D01*
X94850D02*
X95610Y327618D01*
Y324075D02*
Y327618D01*
X89390Y316457D02*
X95610D01*
X90150Y328405D02*
X94850D01*
X95610Y316457D02*
Y320925D01*
X89390Y324075D02*
Y327618D01*
Y316457D02*
Y320925D01*
X107075Y322390D02*
X111543D01*
X99457D02*
Y328610D01*
X111543Y322390D02*
Y328610D01*
X99457Y322390D02*
X103925D01*
X107075Y328610D02*
X111543D01*
X99457D02*
X103925D01*
X14284Y279095D02*
Y287953D01*
Y298189D02*
Y312165D01*
Y322402D02*
Y336968D01*
X49716D01*
X14284Y279095D02*
X25307D01*
Y283032D01*
X49716D01*
Y322402D02*
Y336968D01*
Y298189D02*
Y312165D01*
Y283032D02*
Y287953D01*
X195705Y185591D02*
X206295D01*
X195705Y144409D02*
Y185591D01*
Y144409D02*
X206295D01*
Y185591D01*
X144339Y147602D02*
Y150398D01*
X141681Y151264D02*
X143453D01*
X141681Y146736D02*
X143453D01*
X137547Y151264D02*
X139319D01*
X137547Y146736D02*
X139319D01*
X136661Y147602D02*
Y150398D01*
X27969Y123500D02*
X34031D01*
X36000Y124484D01*
Y132515D01*
X34031Y133500D02*
X36000Y132515D01*
X34031Y133500D02*
X36000Y134484D01*
Y142515D01*
X34031Y143500D02*
X36000Y142515D01*
X26000D02*
X27969Y143500D01*
X26000Y134484D02*
Y142515D01*
Y134484D02*
X27969Y133500D01*
X26000Y132515D02*
X27969Y133500D01*
X26000Y124484D02*
Y132515D01*
Y124484D02*
X27969Y123500D01*
Y143500D02*
X34031D01*
X162772Y175425D02*
X167968D01*
X154032D02*
X159228D01*
X154032Y183575D02*
X159228D01*
X162772D02*
X167968D01*
Y175425D02*
Y183575D01*
X154032Y175425D02*
Y183575D01*
X144724Y239303D02*
Y243063D01*
Y250937D02*
Y254697D01*
X135276Y250937D02*
Y254697D01*
Y239303D02*
Y243063D01*
X136850Y256272D02*
X143150D01*
X136850Y237728D02*
X143150D01*
X34500Y85969D02*
Y92031D01*
X33516Y94000D02*
X34500Y92031D01*
X25485Y94000D02*
X33516D01*
X24500Y92031D02*
X25485Y94000D01*
X23516D02*
X24500Y92031D01*
X15485Y94000D02*
X23516D01*
X14500Y92031D02*
X15485Y94000D01*
X14500Y85969D02*
X15485Y84000D01*
X23516D01*
X24500Y85969D01*
X25485Y84000D01*
X33516D01*
X34500Y85969D01*
X14500D02*
Y92031D01*
X119764Y59854D02*
Y62512D01*
Y54835D02*
Y57492D01*
X115236Y59854D02*
Y62512D01*
Y54835D02*
Y57492D01*
Y62512D02*
X119764D01*
X115236Y54835D02*
X119764D01*
X177264Y60008D02*
Y62665D01*
Y54988D02*
Y57646D01*
X172736Y60008D02*
Y62665D01*
Y54988D02*
Y57646D01*
Y62665D02*
X177264D01*
X172736Y54988D02*
X177264D01*
X110500Y23969D02*
Y30031D01*
X109516Y32000D02*
X110500Y30031D01*
X101485Y32000D02*
X109516D01*
X100500Y30031D02*
X101485Y32000D01*
X99516D02*
X100500Y30031D01*
X91485Y32000D02*
X99516D01*
X90500Y30031D02*
X91485Y32000D01*
X90500Y23969D02*
X91485Y22000D01*
X99516D01*
X100500Y23969D01*
X101485Y22000D01*
X109516D01*
X110500Y23969D01*
X90500D02*
Y30031D01*
X133106Y317390D02*
X136000D01*
X125488Y318965D02*
Y322035D01*
X137575Y318965D02*
Y322035D01*
X127063Y317390D02*
X129957D01*
X127063Y323610D02*
X129957D01*
X133106Y323610D02*
X136000D01*
X195339Y320984D02*
Y324016D01*
X187661Y320984D02*
Y324016D01*
X86425Y283110D02*
Y286732D01*
Y290276D02*
Y293898D01*
X94575Y290276D02*
Y293898D01*
X88000Y295472D02*
X93000D01*
X94575Y283110D02*
Y286732D01*
X88000Y281535D02*
X93000D01*
X73425Y283106D02*
Y286728D01*
Y290272D02*
Y293894D01*
X81575Y290272D02*
Y293894D01*
X75000Y295468D02*
X80000D01*
X81575Y283106D02*
Y286728D01*
X75000Y281532D02*
X80000D01*
D11*
X171551Y27000D02*
X170813Y27426D01*
Y26574D01*
X171551Y27000D01*
X72492Y124087D02*
X71754Y124513D01*
Y123660D01*
X72492Y124087D01*
X75827Y180264D02*
X75089Y180690D01*
Y179838D01*
X75827Y180264D01*
X77425Y317693D02*
X76687Y318119D01*
Y317267D01*
X77425Y317693D01*
X69559Y292807D02*
X68821Y293233D01*
Y292381D01*
X69559Y292807D01*
X67992Y334559D02*
X67254Y334985D01*
Y334133D01*
X67992Y334559D01*
X31492Y120941D02*
X30754Y121367D01*
Y120515D01*
X31492Y120941D01*
X37551Y89000D02*
X36813Y89426D01*
Y88574D01*
X37551Y89000D01*
X113551Y27000D02*
X112813Y27426D01*
Y26574D01*
X113551Y27000D01*
X191992Y311968D02*
X191254Y312395D01*
Y311542D01*
X191992Y311968D01*
D12*
X50417Y271917D02*
X49827Y272508D01*
X49236Y271917D01*
X49827Y271327D01*
X50417Y271917D01*
X118673Y315327D02*
X118083Y315917D01*
X117492Y315327D01*
X118083Y314736D01*
X118673Y315327D01*
X112417Y78917D02*
X111827Y79508D01*
X111236Y78917D01*
X111827Y78327D01*
X112417Y78917D01*
X169917D02*
X169327Y79508D01*
X168736Y78917D01*
X169327Y78327D01*
X169917Y78917D01*
D13*
X46480Y263256D02*
X45936Y264005D01*
X45056Y263719D01*
Y262793D01*
X45936Y262507D01*
X46480Y263256D01*
X127532Y311193D02*
X126987Y311942D01*
X126107Y311656D01*
Y310730D01*
X126987Y310444D01*
X127532Y311193D01*
X108480Y70256D02*
X107936Y71005D01*
X107056Y70719D01*
Y69793D01*
X107936Y69507D01*
X108480Y70256D01*
X165980D02*
X165436Y71005D01*
X164556Y70719D01*
Y69793D01*
X165436Y69507D01*
X165980Y70256D01*
D14*
X52701Y188591D02*
X52701Y162409D01*
X56244D01*
X52701Y188591D02*
X56244D01*
X61756Y162409D02*
X65299D01*
X61756Y188591D02*
X65299D01*
X65299Y162409D01*
X94988Y256311D02*
X106012D01*
X94988Y232689D02*
Y256311D01*
Y232689D02*
X106012D01*
Y256311D01*
X69504Y247236D02*
X82496D01*
X69504Y225764D02*
Y233350D01*
X82496Y225764D02*
Y233350D01*
X69504Y239650D02*
Y247236D01*
Y225764D02*
X82496D01*
Y239650D02*
Y247236D01*
X71276Y248953D02*
X80724D01*
X82496Y247236D01*
X69504D02*
X71276Y248953D01*
X29551Y266012D02*
X48449D01*
X29551Y254988D02*
X48449D01*
Y266012D01*
X29551Y254988D02*
Y266012D01*
X123988Y295051D02*
Y313949D01*
X135012Y295051D02*
Y313949D01*
X123988D02*
X135012D01*
X123988Y295051D02*
X135012D01*
X209106Y234433D02*
Y293528D01*
X159894D02*
X209106D01*
X159894Y234433D02*
Y293528D01*
Y234433D02*
X209106D01*
X91551Y61988D02*
Y73012D01*
X110449Y61988D02*
Y73012D01*
X91551Y61988D02*
X110449D01*
X91551Y73012D02*
X110449D01*
X149051Y61988D02*
Y73012D01*
X167949Y61988D02*
Y73012D01*
X149051Y61988D02*
X167949D01*
X149051Y73012D02*
X167949D01*
X190376Y144599D02*
X189851Y144074D01*
Y143025D01*
X190376Y142500D01*
X192475D01*
X193000Y143025D01*
Y144074D01*
X192475Y144599D01*
X191426D01*
Y143550D01*
X193000Y145649D02*
X189851D01*
X193000Y147748D01*
X189851D01*
Y148797D02*
X193000D01*
Y150372D01*
X192475Y150896D01*
X190376D01*
X189851Y150372D01*
Y148797D01*
Y155094D02*
X191951D01*
X193000Y156144D01*
X191951Y157193D01*
X189851D01*
X190376Y160342D02*
X189851Y159817D01*
Y158768D01*
X190376Y158243D01*
X192475D01*
X193000Y158768D01*
Y159817D01*
X192475Y160342D01*
X190376Y163491D02*
X189851Y162966D01*
Y161916D01*
X190376Y161391D01*
X192475D01*
X193000Y161916D01*
Y162966D01*
X192475Y163491D01*
X189851Y167689D02*
Y168738D01*
Y168213D01*
X193000D01*
Y167689D01*
Y168738D01*
X189851Y171887D02*
Y170837D01*
X190376Y170313D01*
X192475D01*
X193000Y170837D01*
Y171887D01*
X192475Y172412D01*
X190376D01*
X189851Y171887D01*
X190376Y178709D02*
X189851Y178184D01*
Y177135D01*
X190376Y176610D01*
X192475D01*
X193000Y177135D01*
Y178184D01*
X192475Y178709D01*
X189851Y179758D02*
X193000D01*
Y181857D01*
X189851Y182907D02*
X193000D01*
X191951D01*
X189851Y185006D01*
X191426Y183432D01*
X193000Y185006D01*
X175951Y176163D02*
X175426Y175639D01*
Y174589D01*
X175951Y174064D01*
X178050D01*
X178574Y174589D01*
Y175639D01*
X178050Y176163D01*
X178574Y177213D02*
Y178262D01*
Y177738D01*
X175426D01*
X175951Y177213D01*
Y179837D02*
X175426Y180361D01*
Y181411D01*
X175951Y181936D01*
X176475D01*
X177000Y181411D01*
X177525Y181936D01*
X178050D01*
X178574Y181411D01*
Y180361D01*
X178050Y179837D01*
X177525D01*
X177000Y180361D01*
X176475Y179837D01*
X175951D01*
X177000Y180361D02*
Y181411D01*
X151500Y19998D02*
Y14000D01*
X155499D01*
X162000Y19998D02*
Y14000D01*
Y16999D01*
X165999D01*
Y19998D01*
Y14000D01*
X103500Y19998D02*
Y14000D01*
Y16999D01*
X107499D01*
Y19998D01*
Y14000D01*
X93000Y19998D02*
Y14000D01*
X96999D01*
X152180Y39998D02*
X151180Y40998D01*
X149181D01*
X148181Y39998D01*
Y36000D01*
X149181Y35000D01*
X151180D01*
X152180Y36000D01*
X154179Y35000D02*
Y38999D01*
X156178Y40998D01*
X158178Y38999D01*
Y35000D01*
Y37999D01*
X154179D01*
X160177Y35000D02*
Y40998D01*
X164176Y35000D01*
Y40998D01*
X166175Y35000D02*
X168175D01*
X167175D01*
Y40998D01*
X166175Y39998D01*
X93499D02*
X92499Y40998D01*
X90500D01*
X89500Y39998D01*
Y36000D01*
X90500Y35000D01*
X92499D01*
X93499Y36000D01*
X95498Y35000D02*
Y38999D01*
X97497Y40998D01*
X99497Y38999D01*
Y35000D01*
Y37999D01*
X95498D01*
X101496Y35000D02*
Y40998D01*
X105495Y35000D01*
Y40998D01*
X111493Y35000D02*
X107494D01*
X111493Y38999D01*
Y39998D01*
X110493Y40998D01*
X108494D01*
X107494Y39998D01*
X82500Y310500D02*
X83549D01*
X83025D01*
Y313649D01*
X82500Y313124D01*
X87223Y310500D02*
X85124D01*
X87223Y312599D01*
Y313124D01*
X86698Y313649D01*
X85649D01*
X85124Y313124D01*
X88272Y313649D02*
Y311549D01*
X89322Y310500D01*
X90372Y311549D01*
Y313649D01*
X91421D02*
Y310500D01*
X93520D01*
X96669Y313649D02*
X94570D01*
Y310500D01*
X96669D01*
X94570Y312074D02*
X95619D01*
X97718Y313649D02*
Y310500D01*
X99292D01*
X99817Y311025D01*
Y313124D01*
X99292Y313649D01*
X97718D01*
X194703Y21000D02*
X199426D01*
Y23361D01*
X198639Y24149D01*
X197851D01*
X197064Y23361D01*
Y21000D01*
Y23361D01*
X196277Y24149D01*
X195490D01*
X194703Y23361D01*
Y21000D01*
X196277Y25723D02*
X198639D01*
X199426Y26510D01*
Y28872D01*
X200213D01*
X201000Y28084D01*
Y27297D01*
X199426Y28872D02*
X196277D01*
Y30446D02*
Y31233D01*
X197064D01*
Y30446D01*
X196277D01*
X198639D02*
Y31233D01*
X199426D01*
Y30446D01*
X198639D01*
X194703Y42253D02*
Y39104D01*
X199426D01*
Y42253D01*
X197064Y39104D02*
Y40679D01*
X199426Y43827D02*
X198639D01*
Y44614D01*
X199426D01*
Y43827D01*
Y52486D02*
X194703D01*
Y54847D01*
X195490Y55634D01*
X197064D01*
X197851Y54847D01*
Y52486D01*
X199426Y59570D02*
Y57996D01*
X198639Y57209D01*
X197064D01*
X196277Y57996D01*
Y59570D01*
X197064Y60357D01*
X197851D01*
Y57209D01*
X195490Y62719D02*
X196277D01*
Y61932D01*
Y63506D01*
Y62719D01*
X198639D01*
X199426Y63506D01*
Y68229D02*
Y66654D01*
X198639Y65867D01*
X197064D01*
X196277Y66654D01*
Y68229D01*
X197064Y69016D01*
X197851D01*
Y65867D01*
X196277Y70590D02*
X199426D01*
X197851D01*
X197064Y71377D01*
X196277Y72164D01*
Y72952D01*
X199426Y75313D02*
Y77675D01*
X198639Y78462D01*
X197851Y77675D01*
Y76100D01*
X197064Y75313D01*
X196277Y76100D01*
Y78462D01*
X199426Y80823D02*
Y82398D01*
X198639Y83185D01*
X197064D01*
X196277Y82398D01*
Y80823D01*
X197064Y80036D01*
X198639D01*
X199426Y80823D01*
Y84759D02*
X196277D01*
Y87120D01*
X197064Y87907D01*
X199426D01*
Y94992D02*
X195490D01*
X197064D01*
Y94205D01*
Y95779D01*
Y94992D01*
X195490D01*
X194703Y95779D01*
X199426Y98927D02*
Y100502D01*
X198639Y101289D01*
X197064D01*
X196277Y100502D01*
Y98927D01*
X197064Y98140D01*
X198639D01*
X199426Y98927D01*
X196277Y102863D02*
X199426D01*
X197851D01*
X197064Y103650D01*
X196277Y104438D01*
Y105225D01*
X198639Y115458D02*
X195490D01*
X194703Y114671D01*
Y113096D01*
X195490Y112309D01*
X198639D01*
X199426Y113096D01*
Y114671D01*
X197851Y113883D02*
X199426Y115458D01*
Y114671D02*
X198639Y115458D01*
X194703Y120180D02*
Y117032D01*
X197064D01*
Y118606D01*
Y117032D01*
X199426D01*
X195490Y124903D02*
X194703Y124116D01*
Y122542D01*
X195490Y121755D01*
X196277D01*
X197064Y122542D01*
Y124116D01*
X197851Y124903D01*
X198639D01*
X199426Y124116D01*
Y122542D01*
X198639Y121755D01*
X199426Y126478D02*
X196277D01*
X194703Y128052D01*
X196277Y129626D01*
X199426D01*
X197064D01*
Y126478D01*
X194703Y134349D02*
Y131201D01*
X199426D01*
Y134349D01*
X197064Y131201D02*
Y132775D01*
X64500Y5500D02*
Y10223D01*
X66861D01*
X67649Y9436D01*
Y7861D01*
X66861Y7074D01*
X64500D01*
X69223Y5500D02*
Y10223D01*
X70797Y8649D01*
X72372Y10223D01*
Y5500D01*
X73946Y10223D02*
Y5500D01*
X76307D01*
X77094Y6287D01*
Y7074D01*
X76307Y7861D01*
X73946D01*
X76307D01*
X77094Y8649D01*
Y9436D01*
X76307Y10223D01*
X73946D01*
X79456Y5500D02*
X81030D01*
X81817Y6287D01*
Y7861D01*
X81030Y8649D01*
X79456D01*
X78669Y7861D01*
Y6287D01*
X79456Y5500D01*
X84179Y8649D02*
X85753D01*
X86540Y7861D01*
Y5500D01*
X84179D01*
X83391Y6287D01*
X84179Y7074D01*
X86540D01*
X88114Y8649D02*
Y5500D01*
Y7074D01*
X88902Y7861D01*
X89689Y8649D01*
X90476D01*
X95986Y10223D02*
Y5500D01*
X93624D01*
X92837Y6287D01*
Y7861D01*
X93624Y8649D01*
X95986D01*
X102283Y7861D02*
X105432D01*
X103857Y9436D02*
Y6287D01*
X111729Y5500D02*
Y10223D01*
X113303Y8649D01*
X114877Y10223D01*
Y5500D01*
X117239D02*
X118813D01*
X119600Y6287D01*
Y7861D01*
X118813Y8649D01*
X117239D01*
X116452Y7861D01*
Y6287D01*
X117239Y5500D01*
X124323Y8649D02*
X121962D01*
X121175Y7861D01*
Y6287D01*
X121962Y5500D01*
X124323D01*
X125897D02*
Y10223D01*
Y7074D02*
X128259Y8649D01*
X125897Y7074D02*
X128259Y5500D01*
X138492Y10223D02*
X135343D01*
Y5500D01*
X138492D01*
X135343Y7861D02*
X136917D01*
X143215Y9436D02*
X142428Y10223D01*
X140853D01*
X140066Y9436D01*
Y6287D01*
X140853Y5500D01*
X142428D01*
X143215Y6287D01*
X144789Y10223D02*
Y6287D01*
X145576Y5500D01*
X147150D01*
X147938Y6287D01*
Y10223D01*
X154235D02*
Y7074D01*
X155809Y5500D01*
X157383Y7074D01*
Y10223D01*
X158958Y9436D02*
X159745Y10223D01*
X161319D01*
X162106Y9436D01*
Y6287D01*
X161319Y5500D01*
X159745D01*
X158958Y6287D01*
Y9436D01*
X163681D02*
X164468Y10223D01*
X166042D01*
X166829Y9436D01*
Y6287D01*
X166042Y5500D01*
X164468D01*
X163681Y6287D01*
Y9436D01*
X168403Y5500D02*
Y6287D01*
X169191D01*
Y5500D01*
X168403D01*
X172339Y9436D02*
X173126Y10223D01*
X174700D01*
X175488Y9436D01*
Y6287D01*
X174700Y5500D01*
X173126D01*
X172339Y6287D01*
Y9436D01*
X177062D02*
X177849Y10223D01*
X179423D01*
X180211Y9436D01*
Y6287D01*
X179423Y5500D01*
X177849D01*
X177062Y6287D01*
Y9436D01*
X112000Y223624D02*
X112525Y224149D01*
X113574D01*
X114099Y223624D01*
Y223099D01*
X113574Y222574D01*
X113049D01*
X113574D01*
X114099Y222049D01*
Y221525D01*
X113574Y221000D01*
X112525D01*
X112000Y221525D01*
X115149Y221000D02*
Y221525D01*
X115673D01*
Y221000D01*
X115149D01*
X117772Y223624D02*
X118297Y224149D01*
X119347D01*
X119871Y223624D01*
Y223099D01*
X119347Y222574D01*
X118822D01*
X119347D01*
X119871Y222049D01*
Y221525D01*
X119347Y221000D01*
X118297D01*
X117772Y221525D01*
X120921Y224149D02*
Y221000D01*
X123020D01*
X126169Y224149D02*
X124070D01*
Y221000D01*
X126169D01*
X124070Y222574D02*
X125119D01*
X127218Y224149D02*
Y221000D01*
X128793D01*
X129317Y221525D01*
Y223624D01*
X128793Y224149D01*
X127218D01*
X141099Y230649D02*
X139000D01*
Y229074D01*
X140050Y229599D01*
X140574D01*
X141099Y229074D01*
Y228025D01*
X140574Y227500D01*
X139525D01*
X139000Y228025D01*
X142149Y230649D02*
Y228550D01*
X143198Y227500D01*
X144248Y228550D01*
Y230649D01*
X145297D02*
Y227500D01*
X147396D01*
X150545Y230649D02*
X148446D01*
Y227500D01*
X150545D01*
X148446Y229074D02*
X149495D01*
X151594Y230649D02*
Y227500D01*
X153169D01*
X153693Y228025D01*
Y230124D01*
X153169Y230649D01*
X151594D01*
X45401Y177074D02*
Y176549D01*
X46450Y175500D01*
X47500Y176549D01*
Y177074D01*
X46450Y175500D02*
Y173926D01*
X48550D02*
X49599D01*
X49074D01*
Y177074D01*
X48550Y176549D01*
X94827Y264074D02*
Y261975D01*
X95876Y260926D01*
X96926Y261975D01*
Y264074D01*
X97975Y260926D02*
Y264074D01*
X99550D01*
X100074Y263549D01*
Y262500D01*
X99550Y261975D01*
X97975D01*
X99025D02*
X100074Y260926D01*
X101124D02*
X102173D01*
X101649D01*
Y264074D01*
X101124Y263549D01*
X91900Y87749D02*
Y85125D01*
X92425Y84600D01*
X93474D01*
X93999Y85125D01*
Y87749D01*
X97148D02*
X95049D01*
Y86174D01*
X96098Y86699D01*
X96623D01*
X97148Y86174D01*
Y85125D01*
X96623Y84600D01*
X95573D01*
X95049Y85125D01*
X149400Y87749D02*
Y85125D01*
X149925Y84600D01*
X150974D01*
X151499Y85125D01*
Y87749D01*
X154123Y84600D02*
Y87749D01*
X152549Y86174D01*
X154648D01*
X115876Y321574D02*
Y318951D01*
X116401Y318426D01*
X117450D01*
X117975Y318951D01*
Y321574D01*
X119025Y321049D02*
X119550Y321574D01*
X120599D01*
X121124Y321049D01*
Y320525D01*
X120599Y320000D01*
X120074D01*
X120599D01*
X121124Y319475D01*
Y318951D01*
X120599Y318426D01*
X119550D01*
X119025Y318951D01*
X70376Y186074D02*
Y183450D01*
X70901Y182926D01*
X71951D01*
X72475Y183450D01*
Y186074D01*
X75624Y182926D02*
X73525D01*
X75624Y185025D01*
Y185549D01*
X75099Y186074D01*
X74050D01*
X73525Y185549D01*
X51401Y268574D02*
Y265950D01*
X51926Y265426D01*
X52975D01*
X53500Y265950D01*
Y268574D01*
X54549Y265426D02*
X55599D01*
X55074D01*
Y268574D01*
X54549Y268050D01*
X57426Y115550D02*
X56901Y116074D01*
X55851D01*
X55327Y115550D01*
Y115025D01*
X55851Y114500D01*
X56901D01*
X57426Y113975D01*
Y113451D01*
X56901Y112926D01*
X55851D01*
X55327Y113451D01*
X58475Y116074D02*
Y112926D01*
X59525Y113975D01*
X60574Y112926D01*
Y116074D01*
X61624Y112926D02*
X62673D01*
X62149D01*
Y116074D01*
X61624Y115550D01*
X68564Y261926D02*
Y265074D01*
X70139D01*
X70663Y264549D01*
Y263500D01*
X70139Y262975D01*
X68564D01*
X69614D02*
X70663Y261926D01*
X71713D02*
X72762D01*
X72238D01*
Y265074D01*
X71713Y264549D01*
X74337Y265074D02*
X76436D01*
Y264549D01*
X74337Y262451D01*
Y261926D01*
X58564D02*
Y265074D01*
X60139D01*
X60663Y264549D01*
Y263500D01*
X60139Y262975D01*
X58564D01*
X59614D02*
X60663Y261926D01*
X61713D02*
X62762D01*
X62238D01*
Y265074D01*
X61713Y264549D01*
X66436Y265074D02*
X65386Y264549D01*
X64337Y263500D01*
Y262451D01*
X64862Y261926D01*
X65911D01*
X66436Y262451D01*
Y262975D01*
X65911Y263500D01*
X64337D01*
X120064Y105926D02*
Y109074D01*
X121639D01*
X122163Y108549D01*
Y107500D01*
X121639Y106975D01*
X120064D01*
X121114D02*
X122163Y105926D01*
X123213D02*
X124262D01*
X123738D01*
Y109074D01*
X123213Y108549D01*
X127936Y109074D02*
X125837D01*
Y107500D01*
X126886Y108025D01*
X127411D01*
X127936Y107500D01*
Y106450D01*
X127411Y105926D01*
X126361D01*
X125837Y106450D01*
X93064Y105926D02*
Y109074D01*
X94639D01*
X95163Y108549D01*
Y107500D01*
X94639Y106975D01*
X93064D01*
X94114D02*
X95163Y105926D01*
X96213D02*
X97262D01*
X96738D01*
Y109074D01*
X96213Y108549D01*
X100411Y105926D02*
Y109074D01*
X98837Y107500D01*
X100936D01*
X21564Y227926D02*
Y231074D01*
X23139D01*
X23663Y230550D01*
Y229500D01*
X23139Y228975D01*
X21564D01*
X22614D02*
X23663Y227926D01*
X24713D02*
X25762D01*
X25238D01*
Y231074D01*
X24713Y230550D01*
X27337D02*
X27861Y231074D01*
X28911D01*
X29436Y230550D01*
Y230025D01*
X28911Y229500D01*
X28386D01*
X28911D01*
X29436Y228975D01*
Y228450D01*
X28911Y227926D01*
X27861D01*
X27337Y228450D01*
X45564Y227926D02*
Y231074D01*
X47139D01*
X47663Y230550D01*
Y229500D01*
X47139Y228975D01*
X45564D01*
X46614D02*
X47663Y227926D01*
X48713D02*
X49762D01*
X49238D01*
Y231074D01*
X48713Y230550D01*
X53436Y227926D02*
X51337D01*
X53436Y230025D01*
Y230550D01*
X52911Y231074D01*
X51862D01*
X51337Y230550D01*
X115800Y65900D02*
Y69049D01*
X117374D01*
X117899Y68524D01*
Y67474D01*
X117374Y66949D01*
X115800D01*
X116850D02*
X117899Y65900D01*
X118949D02*
X119998D01*
X119473D01*
Y69049D01*
X118949Y68524D01*
X121572Y65900D02*
X122622D01*
X122097D01*
Y69049D01*
X121572Y68524D01*
X173295Y66091D02*
Y69240D01*
X174869D01*
X175394Y68715D01*
Y67665D01*
X174869Y67141D01*
X173295D01*
X174344D02*
X175394Y66091D01*
X176443D02*
X177493D01*
X176968D01*
Y69240D01*
X176443Y68715D01*
X179067D02*
X179592Y69240D01*
X180641D01*
X181166Y68715D01*
Y66616D01*
X180641Y66091D01*
X179592D01*
X179067Y66616D01*
Y68715D01*
X110876Y201426D02*
Y204574D01*
X112451D01*
X112975Y204049D01*
Y203000D01*
X112451Y202475D01*
X110876D01*
X111926D02*
X112975Y201426D01*
X114025Y201951D02*
X114550Y201426D01*
X115599D01*
X116124Y201951D01*
Y204049D01*
X115599Y204574D01*
X114550D01*
X114025Y204049D01*
Y203525D01*
X114550Y203000D01*
X116124D01*
X157908Y195926D02*
Y199074D01*
X159482D01*
X160007Y198549D01*
Y197500D01*
X159482Y196975D01*
X157908D01*
X158957D02*
X160007Y195926D01*
X161056Y198549D02*
X161581Y199074D01*
X162631D01*
X163155Y198549D01*
Y198025D01*
X162631Y197500D01*
X163155Y196975D01*
Y196450D01*
X162631Y195926D01*
X161581D01*
X161056Y196450D01*
Y196975D01*
X161581Y197500D01*
X161056Y198025D01*
Y198549D01*
X161581Y197500D02*
X162631D01*
X100100Y332000D02*
Y335149D01*
X101674D01*
X102199Y334624D01*
Y333574D01*
X101674Y333050D01*
X100100D01*
X101149D02*
X102199Y332000D01*
X103249Y335149D02*
X105348D01*
Y334624D01*
X103249Y332525D01*
Y332000D01*
X154600Y187000D02*
Y190149D01*
X156174D01*
X156699Y189624D01*
Y188574D01*
X156174Y188049D01*
X154600D01*
X155649D02*
X156699Y187000D01*
X159848Y190149D02*
X158798Y189624D01*
X157749Y188574D01*
Y187525D01*
X158273Y187000D01*
X159323D01*
X159848Y187525D01*
Y188049D01*
X159323Y188574D01*
X157749D01*
X135376Y264926D02*
Y268074D01*
X136951D01*
X137475Y267549D01*
Y266500D01*
X136951Y265975D01*
X135376D01*
X136426D02*
X137475Y264926D01*
X140624Y268074D02*
X138525D01*
Y266500D01*
X139574Y267025D01*
X140099D01*
X140624Y266500D01*
Y265451D01*
X140099Y264926D01*
X139049D01*
X138525Y265451D01*
X111376Y290926D02*
Y294074D01*
X112951D01*
X113475Y293549D01*
Y292500D01*
X112951Y291975D01*
X111376D01*
X112426D02*
X113475Y290926D01*
X116099D02*
Y294074D01*
X114525Y292500D01*
X116624D01*
X156876Y313926D02*
Y317074D01*
X158450D01*
X158975Y316549D01*
Y315500D01*
X158450Y314975D01*
X156876D01*
X157926D02*
X158975Y313926D01*
X160025Y316549D02*
X160549Y317074D01*
X161599D01*
X162124Y316549D01*
Y316025D01*
X161599Y315500D01*
X161074D01*
X161599D01*
X162124Y314975D01*
Y314451D01*
X161599Y313926D01*
X160549D01*
X160025Y314451D01*
X100876Y290926D02*
Y294074D01*
X102451D01*
X102975Y293549D01*
Y292500D01*
X102451Y291975D01*
X100876D01*
X101926D02*
X102975Y290926D01*
X106124D02*
X104025D01*
X106124Y293025D01*
Y293549D01*
X105599Y294074D01*
X104550D01*
X104025Y293549D01*
X149901Y264926D02*
Y268074D01*
X151475D01*
X152000Y267549D01*
Y266500D01*
X151475Y265975D01*
X149901D01*
X150951D02*
X152000Y264926D01*
X153050D02*
X154099D01*
X153574D01*
Y268074D01*
X153050Y267549D01*
X15000Y97500D02*
Y100649D01*
X16574D01*
X17099Y100124D01*
Y99074D01*
X16574Y98549D01*
X15000D01*
X20248Y100649D02*
X19198Y100124D01*
X18149Y99074D01*
Y98025D01*
X18673Y97500D01*
X19723D01*
X20248Y98025D01*
Y98549D01*
X19723Y99074D01*
X18149D01*
X26518Y147010D02*
Y150159D01*
X28093D01*
X28617Y149634D01*
Y148584D01*
X28093Y148060D01*
X26518D01*
X31766Y147010D02*
X29667D01*
X31766Y149109D01*
Y149634D01*
X31241Y150159D01*
X30192D01*
X29667Y149634D01*
X200901Y300074D02*
Y296926D01*
X203000D01*
X204049D02*
X205099D01*
X204574D01*
Y300074D01*
X204049Y299550D01*
X61876Y302074D02*
Y298926D01*
X63450D01*
X63975Y299450D01*
Y301550D01*
X63450Y302074D01*
X61876D01*
X65025Y301550D02*
X65549Y302074D01*
X66599D01*
X67124Y301550D01*
Y301025D01*
X66599Y300500D01*
X67124Y299975D01*
Y299450D01*
X66599Y298926D01*
X65549D01*
X65025Y299450D01*
Y299975D01*
X65549Y300500D01*
X65025Y301025D01*
Y301550D01*
X65549Y300500D02*
X66599D01*
X78876Y337574D02*
Y334426D01*
X80450D01*
X80975Y334950D01*
Y337050D01*
X80450Y337574D01*
X78876D01*
X82025D02*
X84124D01*
Y337050D01*
X82025Y334950D01*
Y334426D01*
X120376Y125074D02*
Y121926D01*
X121950D01*
X122475Y122450D01*
Y124549D01*
X121950Y125074D01*
X120376D01*
X125624D02*
X124574Y124549D01*
X123525Y123500D01*
Y122450D01*
X124049Y121926D01*
X125099D01*
X125624Y122450D01*
Y122975D01*
X125099Y123500D01*
X123525D01*
X93876Y125074D02*
Y121926D01*
X95451D01*
X95975Y122450D01*
Y124549D01*
X95451Y125074D01*
X93876D01*
X99124D02*
X97025D01*
Y123500D01*
X98074Y124025D01*
X98599D01*
X99124Y123500D01*
Y122450D01*
X98599Y121926D01*
X97549D01*
X97025Y122450D01*
X187900Y337749D02*
Y334600D01*
X189474D01*
X189999Y335125D01*
Y337224D01*
X189474Y337749D01*
X187900D01*
X191049Y334600D02*
X192098D01*
X191573D01*
Y337749D01*
X191049Y337224D01*
X20901Y242050D02*
X20376Y242574D01*
X19327D01*
X18802Y242050D01*
Y239950D01*
X19327Y239426D01*
X20376D01*
X20901Y239950D01*
X21950Y242050D02*
X22475Y242574D01*
X23525D01*
X24049Y242050D01*
Y241525D01*
X23525Y241000D01*
X23000D01*
X23525D01*
X24049Y240475D01*
Y239950D01*
X23525Y239426D01*
X22475D01*
X21950Y239950D01*
X25099Y242050D02*
X25624Y242574D01*
X26673D01*
X27198Y242050D01*
Y239950D01*
X26673Y239426D01*
X25624D01*
X25099Y239950D01*
Y242050D01*
X68901Y257049D02*
X68376Y257574D01*
X67327D01*
X66802Y257049D01*
Y254950D01*
X67327Y254426D01*
X68376D01*
X68901Y254950D01*
X72049Y254426D02*
X69950D01*
X72049Y256525D01*
Y257049D01*
X71525Y257574D01*
X70475D01*
X69950Y257049D01*
X73099Y254950D02*
X73624Y254426D01*
X74673D01*
X75198Y254950D01*
Y257049D01*
X74673Y257574D01*
X73624D01*
X73099Y257049D01*
Y256525D01*
X73624Y256000D01*
X75198D01*
X34901Y167050D02*
X34376Y167574D01*
X33327D01*
X32802Y167050D01*
Y164951D01*
X33327Y164426D01*
X34376D01*
X34901Y164951D01*
X38050Y164426D02*
X35950D01*
X38050Y166525D01*
Y167050D01*
X37525Y167574D01*
X36475D01*
X35950Y167050D01*
X39099D02*
X39624Y167574D01*
X40673D01*
X41198Y167050D01*
Y166525D01*
X40673Y166000D01*
X41198Y165475D01*
Y164951D01*
X40673Y164426D01*
X39624D01*
X39099Y164951D01*
Y165475D01*
X39624Y166000D01*
X39099Y166525D01*
Y167050D01*
X39624Y166000D02*
X40673D01*
X34901Y186549D02*
X34376Y187074D01*
X33327D01*
X32802Y186549D01*
Y184450D01*
X33327Y183926D01*
X34376D01*
X34901Y184450D01*
X38050Y183926D02*
X35950D01*
X38050Y186025D01*
Y186549D01*
X37525Y187074D01*
X36475D01*
X35950Y186549D01*
X39099Y187074D02*
X41198D01*
Y186549D01*
X39099Y184450D01*
Y183926D01*
X129401Y114550D02*
X128876Y115074D01*
X127827D01*
X127302Y114550D01*
Y112451D01*
X127827Y111926D01*
X128876D01*
X129401Y112451D01*
X132550Y111926D02*
X130450D01*
X132550Y114025D01*
Y114550D01*
X132025Y115074D01*
X130975D01*
X130450Y114550D01*
X135698Y115074D02*
X134649Y114550D01*
X133599Y113500D01*
Y112451D01*
X134124Y111926D01*
X135173D01*
X135698Y112451D01*
Y112975D01*
X135173Y113500D01*
X133599D01*
X86401Y204550D02*
X85876Y205074D01*
X84827D01*
X84302Y204550D01*
Y202450D01*
X84827Y201926D01*
X85876D01*
X86401Y202450D01*
X89549Y201926D02*
X87450D01*
X89549Y204025D01*
Y204550D01*
X89025Y205074D01*
X87975D01*
X87450Y204550D01*
X92698Y205074D02*
X90599D01*
Y203500D01*
X91649Y204025D01*
X92173D01*
X92698Y203500D01*
Y202450D01*
X92173Y201926D01*
X91124D01*
X90599Y202450D01*
X62401Y204550D02*
X61876Y205074D01*
X60827D01*
X60302Y204550D01*
Y202450D01*
X60827Y201926D01*
X61876D01*
X62401Y202450D01*
X65549Y201926D02*
X63450D01*
X65549Y204025D01*
Y204550D01*
X65025Y205074D01*
X63975D01*
X63450Y204550D01*
X68173Y201926D02*
Y205074D01*
X66599Y203500D01*
X68698D01*
X46401Y159549D02*
X45876Y160074D01*
X44827D01*
X44302Y159549D01*
Y157450D01*
X44827Y156926D01*
X45876D01*
X46401Y157450D01*
X49549Y156926D02*
X47451D01*
X49549Y159025D01*
Y159549D01*
X49025Y160074D01*
X47975D01*
X47451Y159549D01*
X50599D02*
X51124Y160074D01*
X52173D01*
X52698Y159549D01*
Y159025D01*
X52173Y158500D01*
X51649D01*
X52173D01*
X52698Y157975D01*
Y157450D01*
X52173Y156926D01*
X51124D01*
X50599Y157450D01*
X104901Y210050D02*
X104376Y210574D01*
X103327D01*
X102802Y210050D01*
Y207950D01*
X103327Y207426D01*
X104376D01*
X104901Y207950D01*
X108049Y207426D02*
X105950D01*
X108049Y209525D01*
Y210050D01*
X107525Y210574D01*
X106475D01*
X105950Y210050D01*
X111198Y207426D02*
X109099D01*
X111198Y209525D01*
Y210050D01*
X110673Y210574D01*
X109624D01*
X109099Y210050D01*
X139399Y157324D02*
X138874Y157849D01*
X137825D01*
X137300Y157324D01*
Y155225D01*
X137825Y154700D01*
X138874D01*
X139399Y155225D01*
X142548Y154700D02*
X140449D01*
X142548Y156799D01*
Y157324D01*
X142023Y157849D01*
X140973D01*
X140449Y157324D01*
X143597Y154700D02*
X144647D01*
X144122D01*
Y157849D01*
X143597Y157324D01*
X144901Y139049D02*
X144376Y139574D01*
X143327D01*
X142802Y139049D01*
Y136951D01*
X143327Y136426D01*
X144376D01*
X144901Y136951D01*
X148049Y136426D02*
X145950D01*
X148049Y138525D01*
Y139049D01*
X147525Y139574D01*
X146475D01*
X145950Y139049D01*
X149099D02*
X149624Y139574D01*
X150673D01*
X151198Y139049D01*
Y136951D01*
X150673Y136426D01*
X149624D01*
X149099Y136951D01*
Y139049D01*
X76163Y195223D02*
X75639Y195747D01*
X74589D01*
X74064Y195223D01*
Y193124D01*
X74589Y192599D01*
X75639D01*
X76163Y193124D01*
X77213Y192599D02*
X78262D01*
X77738D01*
Y195747D01*
X77213Y195223D01*
X79837Y193124D02*
X80361Y192599D01*
X81411D01*
X81936Y193124D01*
Y195223D01*
X81411Y195747D01*
X80361D01*
X79837Y195223D01*
Y194698D01*
X80361Y194173D01*
X81936D01*
X43163Y196049D02*
X42639Y196574D01*
X41589D01*
X41064Y196049D01*
Y193950D01*
X41589Y193426D01*
X42639D01*
X43163Y193950D01*
X44213Y193426D02*
X45262D01*
X44738D01*
Y196574D01*
X44213Y196049D01*
X46837Y196574D02*
X48936D01*
Y196049D01*
X46837Y193950D01*
Y193426D01*
X98663Y196049D02*
X98139Y196574D01*
X97089D01*
X96564Y196049D01*
Y193950D01*
X97089Y193426D01*
X98139D01*
X98663Y193950D01*
X99713Y193426D02*
X100762D01*
X100238D01*
Y196574D01*
X99713Y196049D01*
X104436Y196574D02*
X103386Y196049D01*
X102337Y195000D01*
Y193950D01*
X102861Y193426D01*
X103911D01*
X104436Y193950D01*
Y194475D01*
X103911Y195000D01*
X102337D01*
X162163Y230049D02*
X161639Y230574D01*
X160589D01*
X160064Y230049D01*
Y227951D01*
X160589Y227426D01*
X161639D01*
X162163Y227951D01*
X163213Y227426D02*
X164262D01*
X163738D01*
Y230574D01*
X163213Y230049D01*
X167936Y230574D02*
X165837D01*
Y229000D01*
X166886Y229525D01*
X167411D01*
X167936Y229000D01*
Y227951D01*
X167411Y227426D01*
X166361D01*
X165837Y227951D01*
X166599Y317528D02*
X166074Y318053D01*
X165025D01*
X164500Y317528D01*
Y315429D01*
X165025Y314904D01*
X166074D01*
X166599Y315429D01*
X167649Y314904D02*
X168698D01*
X168173D01*
Y318053D01*
X167649Y317528D01*
X171847Y314904D02*
Y318053D01*
X170272Y316478D01*
X172371D01*
X147163Y315549D02*
X146639Y316074D01*
X145589D01*
X145064Y315549D01*
Y313451D01*
X145589Y312926D01*
X146639D01*
X147163Y313451D01*
X148213Y312926D02*
X149262D01*
X148738D01*
Y316074D01*
X148213Y315549D01*
X150837D02*
X151361Y316074D01*
X152411D01*
X152936Y315549D01*
Y315025D01*
X152411Y314500D01*
X151886D01*
X152411D01*
X152936Y313975D01*
Y313451D01*
X152411Y312926D01*
X151361D01*
X150837Y313451D01*
X124663Y272550D02*
X124139Y273074D01*
X123089D01*
X122564Y272550D01*
Y270450D01*
X123089Y269926D01*
X124139D01*
X124663Y270450D01*
X125713Y269926D02*
X126762D01*
X126238D01*
Y273074D01*
X125713Y272550D01*
X130436Y269926D02*
X128337D01*
X130436Y272025D01*
Y272550D01*
X129911Y273074D01*
X128861D01*
X128337Y272550D01*
X98688Y307049D02*
X98163Y307574D01*
X97114D01*
X96589Y307049D01*
Y304950D01*
X97114Y304426D01*
X98163D01*
X98688Y304950D01*
X99738Y304426D02*
X100787D01*
X100262D01*
Y307574D01*
X99738Y307049D01*
X102362Y304426D02*
X103411D01*
X102886D01*
Y307574D01*
X102362Y307049D01*
X89099Y301524D02*
X88574Y302049D01*
X87525D01*
X87000Y301524D01*
Y299425D01*
X87525Y298900D01*
X88574D01*
X89099Y299425D01*
X90149Y298900D02*
X91198D01*
X90673D01*
Y302049D01*
X90149Y301524D01*
X92772D02*
X93297Y302049D01*
X94347D01*
X94871Y301524D01*
Y299425D01*
X94347Y298900D01*
X93297D01*
X92772Y299425D01*
Y301524D01*
X76099D02*
X75574Y302049D01*
X74525D01*
X74000Y301524D01*
Y299425D01*
X74525Y298900D01*
X75574D01*
X76099Y299425D01*
X77149D02*
X77673Y298900D01*
X78723D01*
X79248Y299425D01*
Y301524D01*
X78723Y302049D01*
X77673D01*
X77149Y301524D01*
Y300999D01*
X77673Y300474D01*
X79248D01*
X173475Y230049D02*
X172950Y230574D01*
X171901D01*
X171376Y230049D01*
Y227951D01*
X171901Y227426D01*
X172950D01*
X173475Y227951D01*
X174525Y230049D02*
X175049Y230574D01*
X176099D01*
X176624Y230049D01*
Y229525D01*
X176099Y229000D01*
X176624Y228475D01*
Y227951D01*
X176099Y227426D01*
X175049D01*
X174525Y227951D01*
Y228475D01*
X175049Y229000D01*
X174525Y229525D01*
Y230049D01*
X175049Y229000D02*
X176099D01*
X182475Y230049D02*
X181950Y230574D01*
X180901D01*
X180376Y230049D01*
Y227951D01*
X180901Y227426D01*
X181950D01*
X182475Y227951D01*
X183525Y230574D02*
X185624D01*
Y230049D01*
X183525Y227951D01*
Y227426D01*
X191975Y230049D02*
X191451Y230574D01*
X190401D01*
X189876Y230049D01*
Y227951D01*
X190401Y227426D01*
X191451D01*
X191975Y227951D01*
X195124Y230574D02*
X194074Y230049D01*
X193025Y229000D01*
Y227951D01*
X193550Y227426D01*
X194599D01*
X195124Y227951D01*
Y228475D01*
X194599Y229000D01*
X193025D01*
X128199Y329624D02*
X127674Y330149D01*
X126625D01*
X126100Y329624D01*
Y327525D01*
X126625Y327000D01*
X127674D01*
X128199Y327525D01*
X131348Y330149D02*
X129249D01*
Y328574D01*
X130298Y329099D01*
X130823D01*
X131348Y328574D01*
Y327525D01*
X130823Y327000D01*
X129773D01*
X129249Y327525D01*
X56975Y218549D02*
X56450Y219074D01*
X55401D01*
X54876Y218549D01*
Y216451D01*
X55401Y215926D01*
X56450D01*
X56975Y216451D01*
X59599Y215926D02*
Y219074D01*
X58025Y217500D01*
X60124D01*
X124475Y261050D02*
X123951Y261574D01*
X122901D01*
X122376Y261050D01*
Y258950D01*
X122901Y258426D01*
X123951D01*
X124475Y258950D01*
X125525Y261050D02*
X126049Y261574D01*
X127099D01*
X127624Y261050D01*
Y260525D01*
X127099Y260000D01*
X126574D01*
X127099D01*
X127624Y259475D01*
Y258950D01*
X127099Y258426D01*
X126049D01*
X125525Y258950D01*
X137999Y262324D02*
X137474Y262849D01*
X136425D01*
X135900Y262324D01*
Y260225D01*
X136425Y259700D01*
X137474D01*
X137999Y260225D01*
X141148Y259700D02*
X139049D01*
X141148Y261799D01*
Y262324D01*
X140623Y262849D01*
X139573D01*
X139049Y262324D01*
X64500Y239050D02*
X63975Y239574D01*
X62926D01*
X62401Y239050D01*
Y236950D01*
X62926Y236426D01*
X63975D01*
X64500Y236950D01*
X65549Y236426D02*
X66599D01*
X66074D01*
Y239574D01*
X65549Y239050D01*
D15*
X114500Y116315D02*
D03*
X105500D02*
D03*
X150000Y211315D02*
D03*
X92500Y329685D02*
D03*
D16*
X124685Y215500D02*
D03*
M02*
