G04*
G04 #@! TF.GenerationSoftware,Altium Limited,Altium Designer,20.1.14 (287)*
G04*
G04 Layer_Physical_Order=2*
G04 Layer_Color=16711680*
%FSLAX25Y25*%
%MOIN*%
G70*
G04*
G04 #@! TF.SameCoordinates,C5642C15-9C93-435C-A7BF-0FB1E55D52FF*
G04*
G04*
G04 #@! TF.FilePolarity,Positive*
G04*
G01*
G75*
%ADD64C,0.01378*%
%ADD65C,0.01772*%
%ADD67C,0.06299*%
%ADD68R,0.06299X0.06299*%
%ADD69C,0.07087*%
%ADD70R,0.06299X0.06299*%
%ADD71C,0.02362*%
G36*
X207278Y339197D02*
X208118Y339030D01*
X208909Y338703D01*
X209621Y338227D01*
X210227Y337621D01*
X210702Y336909D01*
X211030Y336118D01*
X211197Y335279D01*
X211197Y334850D01*
Y334850D01*
Y334850D01*
X211197Y6520D01*
D01*
X211197Y6055D01*
X211016Y5144D01*
X210660Y4285D01*
X210144Y3513D01*
X209487Y2856D01*
X208715Y2340D01*
X207856Y1984D01*
X206945Y1803D01*
X5921D01*
X4824Y2021D01*
X3791Y2449D01*
X2861Y3070D01*
X2070Y3861D01*
X1449Y4791D01*
X1021Y5824D01*
X803Y6921D01*
X803Y7480D01*
D01*
Y7480D01*
X803Y333890D01*
D01*
Y333890D01*
X803Y334412D01*
X1007Y335438D01*
X1407Y336404D01*
X1988Y337273D01*
X2727Y338012D01*
X3596Y338593D01*
X4562Y338993D01*
X5587Y339197D01*
X6110Y339197D01*
X6110D01*
D01*
X206850Y339197D01*
X207278Y339197D01*
D02*
G37*
%LPC*%
G36*
X67500Y320681D02*
X66547Y320556D01*
X65659Y320188D01*
X64897Y319603D01*
X64312Y318841D01*
X63944Y317953D01*
X63819Y317000D01*
X63944Y316047D01*
X64312Y315160D01*
X64897Y314397D01*
X65659Y313812D01*
X66547Y313444D01*
X67500Y313319D01*
X68453Y313444D01*
X69340Y313812D01*
X70103Y314397D01*
X70688Y315160D01*
X71056Y316047D01*
X71181Y317000D01*
X71056Y317953D01*
X70688Y318841D01*
X70103Y319603D01*
X69340Y320188D01*
X68453Y320556D01*
X67500Y320681D01*
D02*
G37*
G36*
X32000Y321453D02*
X30921Y321311D01*
X29915Y320894D01*
X29052Y320232D01*
X28389Y319368D01*
X27973Y318363D01*
X27830Y317284D01*
X27973Y316204D01*
X28389Y315199D01*
X29052Y314335D01*
X29915Y313673D01*
X30921Y313256D01*
X32000Y313114D01*
X33079Y313256D01*
X34085Y313673D01*
X34948Y314335D01*
X35611Y315199D01*
X36027Y316204D01*
X36169Y317284D01*
X36027Y318363D01*
X35611Y319368D01*
X34948Y320232D01*
X34085Y320894D01*
X33079Y321311D01*
X32000Y321453D01*
D02*
G37*
G36*
Y304134D02*
X30818Y303978D01*
X29717Y303522D01*
X28771Y302796D01*
X28045Y301850D01*
X27589Y300749D01*
X27433Y299567D01*
X27589Y298385D01*
X28045Y297284D01*
X28771Y296338D01*
X29717Y295612D01*
X30818Y295156D01*
X32000Y295000D01*
X33182Y295156D01*
X34283Y295612D01*
X35229Y296338D01*
X35955Y297284D01*
X36411Y298385D01*
X36567Y299567D01*
X36411Y300749D01*
X35955Y301850D01*
X35229Y302796D01*
X34283Y303522D01*
X33182Y303978D01*
X32000Y304134D01*
D02*
G37*
G36*
X201000Y183681D02*
X200047Y183556D01*
X199160Y183188D01*
X198397Y182603D01*
X197812Y181841D01*
X197444Y180953D01*
X197319Y180000D01*
X197444Y179047D01*
X197812Y178159D01*
X198397Y177397D01*
X199160Y176812D01*
X200047Y176444D01*
X201000Y176319D01*
X201953Y176444D01*
X202840Y176812D01*
X203603Y177397D01*
X204188Y178159D01*
X204556Y179047D01*
X204681Y180000D01*
X204556Y180953D01*
X204188Y181841D01*
X203603Y182603D01*
X202840Y183188D01*
X201953Y183556D01*
X201000Y183681D01*
D02*
G37*
G36*
Y173681D02*
X200047Y173556D01*
X199160Y173188D01*
X198397Y172603D01*
X197812Y171841D01*
X197444Y170953D01*
X197319Y170000D01*
X197444Y169047D01*
X197812Y168159D01*
X198397Y167397D01*
X199160Y166812D01*
X200047Y166444D01*
X201000Y166319D01*
X201953Y166444D01*
X202840Y166812D01*
X203603Y167397D01*
X204188Y168159D01*
X204556Y169047D01*
X204681Y170000D01*
X204556Y170953D01*
X204188Y171841D01*
X203603Y172603D01*
X202840Y173188D01*
X201953Y173556D01*
X201000Y173681D01*
D02*
G37*
G36*
Y163681D02*
X200047Y163556D01*
X199160Y163188D01*
X198397Y162603D01*
X197812Y161840D01*
X197444Y160953D01*
X197319Y160000D01*
X197444Y159047D01*
X197812Y158159D01*
X198397Y157397D01*
X199160Y156812D01*
X200047Y156444D01*
X201000Y156319D01*
X201953Y156444D01*
X202840Y156812D01*
X203603Y157397D01*
X204188Y158159D01*
X204556Y159047D01*
X204681Y160000D01*
X204556Y160953D01*
X204188Y161840D01*
X203603Y162603D01*
X202840Y163188D01*
X201953Y163556D01*
X201000Y163681D01*
D02*
G37*
G36*
X183500Y144214D02*
X182844Y144084D01*
X182589Y143913D01*
X148911D01*
X148656Y144084D01*
X148000Y144214D01*
X147344Y144084D01*
X146788Y143712D01*
X146416Y143156D01*
X146286Y142500D01*
X146416Y141844D01*
X146788Y141288D01*
X147344Y140916D01*
X148000Y140786D01*
X148656Y140916D01*
X148911Y141087D01*
X182589D01*
X182844Y140916D01*
X183500Y140786D01*
X184156Y140916D01*
X184712Y141288D01*
X185084Y141844D01*
X185214Y142500D01*
X185084Y143156D01*
X184712Y143712D01*
X184156Y144084D01*
X183500Y144214D01*
D02*
G37*
G36*
X31000Y142181D02*
X30047Y142056D01*
X29160Y141688D01*
X28397Y141103D01*
X27812Y140340D01*
X27444Y139453D01*
X27319Y138500D01*
X27444Y137547D01*
X27812Y136660D01*
X28397Y135897D01*
X29160Y135312D01*
X30047Y134944D01*
X31000Y134819D01*
X31953Y134944D01*
X32840Y135312D01*
X33603Y135897D01*
X34188Y136660D01*
X34556Y137547D01*
X34681Y138500D01*
X34556Y139453D01*
X34188Y140340D01*
X33603Y141103D01*
X32840Y141688D01*
X31953Y142056D01*
X31000Y142181D01*
D02*
G37*
G36*
X34650Y132150D02*
X27350D01*
Y124850D01*
X34650D01*
Y132150D01*
D02*
G37*
G36*
X86000Y170214D02*
X85344Y170084D01*
X84788Y169712D01*
X84416Y169156D01*
X84286Y168500D01*
X84416Y167844D01*
X84788Y167288D01*
X85344Y166916D01*
X86000Y166786D01*
X88288Y164498D01*
Y153502D01*
X68643Y133857D01*
X68380Y133464D01*
X68288Y133000D01*
Y126712D01*
X67916Y126156D01*
X67786Y125500D01*
X67916Y124844D01*
X68288Y124288D01*
X68844Y123916D01*
X69500Y123786D01*
X70156Y123916D01*
X70712Y124288D01*
X71084Y124844D01*
X71214Y125500D01*
X71084Y126156D01*
X70712Y126712D01*
Y132498D01*
X90357Y152143D01*
X90620Y152536D01*
X90712Y153000D01*
Y165000D01*
X90712Y165000D01*
X90620Y165464D01*
X90357Y165857D01*
X87714Y168500D01*
X87584Y169156D01*
X87212Y169712D01*
X86656Y170084D01*
X86000Y170214D01*
D02*
G37*
G36*
X19500Y92681D02*
X18547Y92556D01*
X17660Y92188D01*
X16897Y91603D01*
X16312Y90841D01*
X15944Y89953D01*
X15819Y89000D01*
X15944Y88047D01*
X16312Y87160D01*
X16897Y86397D01*
X17660Y85812D01*
X18547Y85444D01*
X19500Y85319D01*
X20453Y85444D01*
X21340Y85812D01*
X22103Y86397D01*
X22688Y87160D01*
X23056Y88047D01*
X23181Y89000D01*
X23056Y89953D01*
X22688Y90841D01*
X22103Y91603D01*
X21340Y92188D01*
X20453Y92556D01*
X19500Y92681D01*
D02*
G37*
G36*
X30000Y47000D02*
X28818Y46844D01*
X27717Y46388D01*
X26771Y45662D01*
X26045Y44716D01*
X25589Y43615D01*
X25433Y42433D01*
X25589Y41251D01*
X26045Y40150D01*
X26771Y39204D01*
X27717Y38478D01*
X28818Y38022D01*
X30000Y37866D01*
X31182Y38022D01*
X32283Y38478D01*
X33229Y39204D01*
X33955Y40150D01*
X34411Y41251D01*
X34567Y42433D01*
X34411Y43615D01*
X33955Y44716D01*
X33229Y45662D01*
X32283Y46388D01*
X31182Y46844D01*
X30000Y47000D01*
D02*
G37*
G36*
X167150Y30650D02*
X159850D01*
Y23350D01*
X167150D01*
Y30650D01*
D02*
G37*
G36*
X109150D02*
X101850D01*
Y23350D01*
X109150D01*
Y30650D01*
D02*
G37*
G36*
X153500Y30681D02*
X152547Y30556D01*
X151660Y30188D01*
X150897Y29603D01*
X150312Y28841D01*
X149944Y27953D01*
X149819Y27000D01*
X149944Y26047D01*
X150312Y25159D01*
X150897Y24397D01*
X151660Y23812D01*
X152547Y23444D01*
X153500Y23319D01*
X154453Y23444D01*
X155341Y23812D01*
X156103Y24397D01*
X156688Y25159D01*
X157056Y26047D01*
X157181Y27000D01*
X157056Y27953D01*
X156688Y28841D01*
X156103Y29603D01*
X155341Y30188D01*
X154453Y30556D01*
X153500Y30681D01*
D02*
G37*
G36*
X95500D02*
X94547Y30556D01*
X93660Y30188D01*
X92897Y29603D01*
X92312Y28841D01*
X91944Y27953D01*
X91819Y27000D01*
X91944Y26047D01*
X92312Y25159D01*
X92897Y24397D01*
X93660Y23812D01*
X94547Y23444D01*
X95500Y23319D01*
X96453Y23444D01*
X97341Y23812D01*
X98103Y24397D01*
X98688Y25159D01*
X99056Y26047D01*
X99181Y27000D01*
X99056Y27953D01*
X98688Y28841D01*
X98103Y29603D01*
X97341Y30188D01*
X96453Y30556D01*
X95500Y30681D01*
D02*
G37*
G36*
X30000Y28886D02*
X28921Y28744D01*
X27915Y28327D01*
X27052Y27665D01*
X26389Y26801D01*
X25973Y25796D01*
X25831Y24716D01*
X25973Y23637D01*
X26389Y22632D01*
X27052Y21768D01*
X27915Y21106D01*
X28921Y20689D01*
X30000Y20547D01*
X31079Y20689D01*
X32085Y21106D01*
X32948Y21768D01*
X33611Y22632D01*
X34027Y23637D01*
X34170Y24716D01*
X34027Y25796D01*
X33611Y26801D01*
X32948Y27665D01*
X32085Y28327D01*
X31079Y28744D01*
X30000Y28886D01*
D02*
G37*
%LPD*%
D64*
X69500Y133000D02*
X89500Y153000D01*
X69500Y125500D02*
Y133000D01*
X86000Y168500D02*
X89500Y165000D01*
Y153000D02*
Y165000D01*
D65*
X148000Y142500D02*
X183500D01*
D67*
X153500Y27000D02*
D03*
X30000Y24716D02*
D03*
X67500Y317000D02*
D03*
X32000Y317284D02*
D03*
X201000Y180000D02*
D03*
Y170000D02*
D03*
Y160000D02*
D03*
X31000Y138500D02*
D03*
X19500Y89000D02*
D03*
X95500Y27000D02*
D03*
D68*
X163500D02*
D03*
X29500Y89000D02*
D03*
X105500Y27000D02*
D03*
D69*
X30000Y42433D02*
D03*
X32000Y299567D02*
D03*
D70*
X67500Y327000D02*
D03*
X201000Y150000D02*
D03*
X31000Y128500D02*
D03*
D71*
X170500Y204500D02*
D03*
X187337Y175663D02*
D03*
X115348Y148348D02*
D03*
X89729Y148729D02*
D03*
X157500Y294500D02*
D03*
X180500Y60500D02*
D03*
X122500D02*
D03*
X168500Y210500D02*
D03*
X163500D02*
D03*
X104000Y84500D02*
D03*
X138000Y120000D02*
D03*
X138500Y134000D02*
D03*
X148000Y142500D02*
D03*
X161000Y84500D02*
D03*
X148000Y148000D02*
D03*
X183500Y142500D02*
D03*
X73500Y188500D02*
D03*
X86500Y160500D02*
D03*
X90037Y181037D02*
D03*
X31000Y191500D02*
D03*
X46000D02*
D03*
X94000Y195000D02*
D03*
X85500Y256500D02*
D03*
X114500Y101000D02*
D03*
X171000Y179500D02*
D03*
X51500Y154500D02*
D03*
X72000Y90000D02*
D03*
X69500Y125500D02*
D03*
X86000Y168500D02*
D03*
X105500Y101000D02*
D03*
X127149Y201351D02*
D03*
X122500Y234500D02*
D03*
X130500D02*
D03*
X41000Y161500D02*
D03*
X31500Y257000D02*
D03*
X78500Y269500D02*
D03*
X118500Y178500D02*
D03*
X59000Y30000D02*
D03*
Y34000D02*
D03*
Y38000D02*
D03*
Y42000D02*
D03*
X205000Y331000D02*
D03*
X28500Y237440D02*
D03*
X34000Y223000D02*
D03*
X144500Y304500D02*
D03*
X90000Y278500D02*
D03*
X85500D02*
D03*
X81000D02*
D03*
X76500D02*
D03*
X126500Y234500D02*
D03*
X89000Y228500D02*
D03*
Y217000D02*
D03*
X142000Y279500D02*
D03*
X137500D02*
D03*
X133000D02*
D03*
X106000Y296000D02*
D03*
X132500Y307000D02*
D03*
X3000Y292000D02*
D03*
Y296000D02*
D03*
Y320500D02*
D03*
Y317000D02*
D03*
X117500Y324500D02*
D03*
Y337000D02*
D03*
X175000Y331500D02*
D03*
X146000D02*
D03*
M02*
