M48
;Layer_Color=9474304
;FILE_FORMAT=2:5
INCH,LZ
;TYPE=PLATED
T1F00S00C0.01181
T2F00S00C0.04331
;TYPE=NON_PLATED
T3F00S00C0.06299
T4F00S00C0.07087
%
T01
X0059Y003
Y0034
Y0038
Y0042
X01225Y00605
X0104Y00845
X01055Y0101
X01145
X0138Y012
X01385Y0134
X0148Y01425
Y0148
X0115348Y0148348
X0089729Y0148729
X00865Y01605
X0086Y01685
X0090037Y0181037
X0094Y0195
X0127149Y0201351
X01185Y01785
X0171Y01795
X0187337Y0175663
X01835Y01425
X01705Y02045
X01685Y02105
X01635
X0161Y00845
X01805Y00605
X0072Y009
X00695Y01255
X00515Y01545
X0041Y01615
X0046Y01915
X0031
X00735Y01885
X0034Y0223
X00285Y023744
X00315Y0257
X0003Y0292
Y0296
Y0317
Y03205
X00765Y02785
X0081
X00855
X009
X00785Y02695
X00855Y02565
X0089Y02285
Y0217
X01225Y02345
X01265
X01305
X0133Y02795
X01375
X0142
X01445Y03045
X01325Y0307
X01175Y03245
Y0337
X0146Y03315
X0175
X0205Y0331
X01575Y02945
X0106Y0296
T02
X00955Y0027
X01055
X01535
X01635
X0201Y015
Y016
Y017
Y018
X0031Y01385
Y01285
X00295Y0089
X00195
X00675Y0317
Y0327
T03
X003Y0024716
X0032Y0317284
T04
X003Y0042433
X0032Y0299567
M30
