G04*
G04 #@! TF.GenerationSoftware,Altium Limited,Altium Designer,20.2.6 (244)*
G04*
G04 Layer_Color=8421504*
%FSLAX25Y25*%
%MOIN*%
G70*
G04*
G04 #@! TF.SameCoordinates,3ADD8469-B8FD-440E-8261-352D89208680*
G04*
G04*
G04 #@! TF.FilePolarity,Positive*
G04*
G01*
G75*
%ADD17R,0.02559X0.02362*%
%ADD18R,0.02362X0.02559*%
%ADD19R,0.05906X0.04331*%
%ADD20R,0.03858X0.03661*%
%ADD21O,0.07087X0.02756*%
D17*
X132500Y83563D02*
D03*
Y80216D02*
D03*
X77500Y141673D02*
D03*
Y138327D02*
D03*
X105000Y58327D02*
D03*
Y61673D02*
D03*
Y125827D02*
D03*
Y129173D02*
D03*
X190000Y136673D02*
D03*
Y133327D02*
D03*
X180000Y136673D02*
D03*
Y133327D02*
D03*
X95000Y41673D02*
D03*
Y38327D02*
D03*
X67500Y38327D02*
D03*
Y41673D02*
D03*
X77500Y68327D02*
D03*
Y71673D02*
D03*
D18*
X143405Y142500D02*
D03*
X140059D02*
D03*
D19*
X77520Y152500D02*
D03*
X42480D02*
D03*
Y82500D02*
D03*
X77520D02*
D03*
D20*
X190000Y153563D02*
D03*
Y147500D02*
D03*
X180000Y153563D02*
D03*
Y147500D02*
D03*
X67500Y11969D02*
D03*
Y18032D02*
D03*
X95000D02*
D03*
Y11969D02*
D03*
D21*
X105000Y85000D02*
D03*
Y80000D02*
D03*
Y75000D02*
D03*
Y70000D02*
D03*
X125472Y85000D02*
D03*
Y80000D02*
D03*
Y75000D02*
D03*
Y70000D02*
D03*
X104764Y152500D02*
D03*
Y147500D02*
D03*
Y142500D02*
D03*
Y137500D02*
D03*
X125236Y152500D02*
D03*
Y147500D02*
D03*
Y142500D02*
D03*
Y137500D02*
D03*
M02*
