G04*
G04 #@! TF.GenerationSoftware,Altium Limited,Altium Designer,20.2.6 (244)*
G04*
G04 Layer_Color=16711935*
%FSLAX25Y25*%
%MOIN*%
G70*
G04*
G04 #@! TF.SameCoordinates,3ADD8469-B8FD-440E-8261-352D89208680*
G04*
G04*
G04 #@! TF.FilePolarity,Positive*
G04*
G01*
G75*
%ADD11C,0.00787*%
G36*
X60138Y152185D02*
X60136D01*
X60129Y152183D01*
X60120D01*
X60107Y152180D01*
X60091Y152178D01*
X60071Y152174D01*
X60051Y152169D01*
X60027Y152163D01*
X59978Y152151D01*
X59925Y152132D01*
X59874Y152111D01*
X59825Y152083D01*
X59823Y152081D01*
X59819Y152080D01*
X59814Y152074D01*
X59805Y152067D01*
X59794Y152060D01*
X59783Y152049D01*
X59770Y152036D01*
X59756Y152021D01*
X59741Y152005D01*
X59725Y151985D01*
X59708Y151965D01*
X59692Y151941D01*
X59676Y151918D01*
X59659Y151890D01*
X59645Y151861D01*
X59630Y151830D01*
Y151828D01*
X59627Y151823D01*
X59623Y151812D01*
X59619Y151799D01*
X59614Y151783D01*
X59606Y151765D01*
X59599Y151741D01*
X59594Y151717D01*
X59587Y151690D01*
X59579Y151659D01*
X59574Y151628D01*
X59566Y151594D01*
X59559Y151521D01*
X59556Y151443D01*
Y151424D01*
X59557Y151410D01*
Y151393D01*
X59559Y151375D01*
X59561Y151353D01*
X59563Y151330D01*
X59570Y151277D01*
X59579Y151221D01*
X59594Y151164D01*
X59612Y151108D01*
Y151106D01*
X59614Y151100D01*
X59617Y151093D01*
X59623Y151084D01*
X59628Y151071D01*
X59636Y151059D01*
X59652Y151026D01*
X59674Y150991D01*
X59701Y150955D01*
X59732Y150920D01*
X59767Y150891D01*
X59768D01*
X59772Y150888D01*
X59778Y150884D01*
X59785Y150880D01*
X59794Y150875D01*
X59805Y150867D01*
X59832Y150855D01*
X59863Y150842D01*
X59899Y150829D01*
X59941Y150822D01*
X59983Y150818D01*
X59985D01*
X59989D01*
X59994D01*
X60003Y150820D01*
X60014D01*
X60025Y150822D01*
X60054Y150827D01*
X60085Y150835D01*
X60120Y150847D01*
X60154Y150866D01*
X60189Y150889D01*
X60191D01*
X60193Y150893D01*
X60203Y150902D01*
X60220Y150920D01*
X60231Y150931D01*
X60242Y150944D01*
X60253Y150959D01*
X60265Y150975D01*
X60278Y150993D01*
X60291Y151015D01*
X60304Y151037D01*
X60316Y151062D01*
X60327Y151088D01*
X60340Y151117D01*
Y151119D01*
X60342Y151122D01*
X60344Y151128D01*
X60347Y151139D01*
X60351Y151151D01*
X60356Y151166D01*
X60362Y151186D01*
X60369Y151210D01*
X60378Y151239D01*
X60387Y151270D01*
X60396Y151306D01*
X60407Y151348D01*
X60420Y151393D01*
X60433Y151446D01*
X60447Y151503D01*
X60462Y151565D01*
Y151566D01*
X60464Y151568D01*
Y151574D01*
X60466Y151579D01*
X60471Y151597D01*
X60476Y151621D01*
X60484Y151648D01*
X60493Y151681D01*
X60502Y151717D01*
X60513Y151754D01*
X60536Y151834D01*
X60564Y151914D01*
X60578Y151952D01*
X60593Y151989D01*
X60606Y152020D01*
X60620Y152049D01*
X60622Y152050D01*
X60624Y152056D01*
X60629Y152065D01*
X60637Y152078D01*
X60646Y152092D01*
X60659Y152111D01*
X60671Y152129D01*
X60686Y152151D01*
X60719Y152194D01*
X60759Y152238D01*
X60804Y152282D01*
X60830Y152300D01*
X60855Y152318D01*
X60857Y152320D01*
X60862Y152322D01*
X60870Y152325D01*
X60881Y152331D01*
X60893Y152338D01*
X60908Y152345D01*
X60926Y152353D01*
X60946Y152362D01*
X60970Y152369D01*
X60993Y152378D01*
X61046Y152391D01*
X61104Y152402D01*
X61135Y152403D01*
X61168Y152405D01*
X61170D01*
X61177D01*
X61186D01*
X61201Y152403D01*
X61217Y152402D01*
X61237Y152400D01*
X61259Y152396D01*
X61285Y152393D01*
X61312Y152385D01*
X61339Y152380D01*
X61368Y152371D01*
X61399Y152360D01*
X61430Y152347D01*
X61461Y152333D01*
X61494Y152316D01*
X61525Y152298D01*
X61527Y152296D01*
X61532Y152293D01*
X61541Y152287D01*
X61552Y152278D01*
X61567Y152267D01*
X61581Y152252D01*
X61599Y152236D01*
X61618Y152218D01*
X61638Y152198D01*
X61659Y152174D01*
X61680Y152149D01*
X61701Y152120D01*
X61721Y152089D01*
X61741Y152056D01*
X61760Y152021D01*
X61776Y151983D01*
X61778Y151981D01*
X61780Y151974D01*
X61783Y151963D01*
X61791Y151947D01*
X61796Y151927D01*
X61803Y151905D01*
X61812Y151878D01*
X61820Y151847D01*
X61829Y151814D01*
X61836Y151779D01*
X61843Y151741D01*
X61851Y151701D01*
X61856Y151657D01*
X61860Y151614D01*
X61861Y151568D01*
X61863Y151521D01*
Y151494D01*
X61861Y151473D01*
Y151450D01*
X61858Y151421D01*
X61856Y151390D01*
X61852Y151353D01*
X61847Y151317D01*
X61841Y151277D01*
X61825Y151195D01*
X61814Y151151D01*
X61803Y151110D01*
X61789Y151068D01*
X61772Y151028D01*
X61770Y151026D01*
X61769Y151019D01*
X61763Y151008D01*
X61756Y150993D01*
X61747Y150975D01*
X61734Y150955D01*
X61721Y150931D01*
X61705Y150908D01*
X61689Y150880D01*
X61669Y150855D01*
X61647Y150827D01*
X61623Y150800D01*
X61598Y150773D01*
X61568Y150747D01*
X61539Y150722D01*
X61507Y150700D01*
X61505Y150698D01*
X61499Y150695D01*
X61488Y150689D01*
X61476Y150682D01*
X61459Y150673D01*
X61439Y150662D01*
X61417Y150653D01*
X61392Y150640D01*
X61365Y150629D01*
X61334Y150618D01*
X61301Y150607D01*
X61266Y150598D01*
X61230Y150589D01*
X61192Y150582D01*
X61152Y150578D01*
X61112Y150574D01*
X61088Y150895D01*
X61092D01*
X61099Y150897D01*
X61112Y150898D01*
X61128Y150902D01*
X61146Y150906D01*
X61170Y150911D01*
X61195Y150918D01*
X61223Y150927D01*
X61252Y150937D01*
X61281Y150949D01*
X61310Y150964D01*
X61341Y150980D01*
X61370Y150998D01*
X61397Y151020D01*
X61425Y151044D01*
X61448Y151069D01*
X61450Y151071D01*
X61454Y151077D01*
X61459Y151084D01*
X61468Y151097D01*
X61478Y151113D01*
X61487Y151131D01*
X61497Y151153D01*
X61510Y151179D01*
X61521Y151208D01*
X61532Y151241D01*
X61541Y151277D01*
X61552Y151315D01*
X61559Y151359D01*
X61565Y151404D01*
X61568Y151453D01*
X61570Y151506D01*
Y151535D01*
X61568Y151555D01*
X61567Y151581D01*
X61565Y151608D01*
X61561Y151641D01*
X61556Y151674D01*
X61543Y151746D01*
X61534Y151783D01*
X61523Y151819D01*
X61510Y151854D01*
X61496Y151889D01*
X61479Y151919D01*
X61459Y151947D01*
X61457Y151948D01*
X61454Y151952D01*
X61448Y151960D01*
X61439Y151969D01*
X61428Y151978D01*
X61416Y151990D01*
X61401Y152001D01*
X61385Y152014D01*
X61366Y152027D01*
X61345Y152040D01*
X61299Y152061D01*
X61275Y152070D01*
X61248Y152078D01*
X61221Y152081D01*
X61192Y152083D01*
X61190D01*
X61186D01*
X61179D01*
X61170Y152081D01*
X61157Y152080D01*
X61144Y152078D01*
X61114Y152070D01*
X61077Y152060D01*
X61041Y152043D01*
X61021Y152032D01*
X61002Y152018D01*
X60984Y152003D01*
X60968Y151987D01*
X60966Y151985D01*
X60964Y151981D01*
X60959Y151976D01*
X60953Y151965D01*
X60944Y151952D01*
X60935Y151934D01*
X60924Y151914D01*
X60911Y151889D01*
X60899Y151857D01*
X60884Y151823D01*
X60870Y151781D01*
X60853Y151736D01*
X60837Y151683D01*
X60820Y151625D01*
X60804Y151559D01*
X60786Y151486D01*
Y151484D01*
X60784Y151481D01*
Y151475D01*
X60782Y151468D01*
X60780Y151459D01*
X60777Y151448D01*
X60771Y151421D01*
X60762Y151388D01*
X60753Y151350D01*
X60744Y151308D01*
X60731Y151264D01*
X60708Y151171D01*
X60695Y151126D01*
X60680Y151080D01*
X60668Y151037D01*
X60653Y150997D01*
X60640Y150960D01*
X60628Y150929D01*
X60626Y150927D01*
X60622Y150920D01*
X60617Y150908D01*
X60609Y150893D01*
X60598Y150875D01*
X60588Y150855D01*
X60573Y150831D01*
X60557Y150806D01*
X60540Y150780D01*
X60520Y150753D01*
X60476Y150698D01*
X60426Y150647D01*
X60398Y150625D01*
X60369Y150604D01*
X60367Y150602D01*
X60362Y150598D01*
X60353Y150594D01*
X60342Y150587D01*
X60327Y150580D01*
X60309Y150571D01*
X60289Y150560D01*
X60267Y150551D01*
X60242Y150542D01*
X60214Y150531D01*
X60185Y150522D01*
X60153Y150514D01*
X60120Y150507D01*
X60085Y150502D01*
X60051Y150500D01*
X60012Y150498D01*
X60010D01*
X60003D01*
X59992D01*
X59978Y150500D01*
X59960Y150502D01*
X59940Y150504D01*
X59916Y150507D01*
X59889Y150513D01*
X59861Y150518D01*
X59830Y150527D01*
X59799Y150536D01*
X59767Y150547D01*
X59734Y150560D01*
X59699Y150576D01*
X59667Y150594D01*
X59632Y150615D01*
X59630Y150616D01*
X59625Y150620D01*
X59616Y150627D01*
X59603Y150636D01*
X59588Y150647D01*
X59570Y150662D01*
X59552Y150678D01*
X59532Y150698D01*
X59510Y150720D01*
X59488Y150745D01*
X59465Y150773D01*
X59441Y150802D01*
X59419Y150833D01*
X59397Y150867D01*
X59377Y150904D01*
X59357Y150944D01*
X59355Y150946D01*
X59354Y150953D01*
X59348Y150966D01*
X59343Y150982D01*
X59335Y151002D01*
X59326Y151026D01*
X59317Y151053D01*
X59308Y151084D01*
X59299Y151119D01*
X59290Y151157D01*
X59282Y151197D01*
X59273Y151239D01*
X59268Y151282D01*
X59263Y151330D01*
X59261Y151379D01*
X59259Y151428D01*
Y151461D01*
X59261Y151484D01*
X59263Y151514D01*
X59264Y151548D01*
X59268Y151586D01*
X59272Y151628D01*
X59277Y151672D01*
X59282Y151717D01*
X59301Y151814D01*
X59312Y151863D01*
X59324Y151910D01*
X59341Y151958D01*
X59357Y152001D01*
X59359Y152003D01*
X59363Y152012D01*
X59368Y152023D01*
X59375Y152040D01*
X59386Y152060D01*
X59399Y152081D01*
X59415Y152107D01*
X59432Y152132D01*
X59452Y152162D01*
X59474Y152191D01*
X59499Y152222D01*
X59526Y152251D01*
X59556Y152282D01*
X59587Y152311D01*
X59621Y152338D01*
X59658Y152364D01*
X59659Y152365D01*
X59667Y152369D01*
X59677Y152376D01*
X59692Y152383D01*
X59712Y152394D01*
X59734Y152405D01*
X59759Y152418D01*
X59789Y152429D01*
X59821Y152442D01*
X59856Y152454D01*
X59894Y152465D01*
X59932Y152476D01*
X59974Y152485D01*
X60018Y152493D01*
X60063Y152498D01*
X60111Y152500D01*
X60138Y152185D01*
D02*
G37*
G36*
X61820Y149930D02*
X60167Y149548D01*
X60163D01*
X60156Y149544D01*
X60142Y149542D01*
X60123Y149537D01*
X60100Y149532D01*
X60072Y149526D01*
X60040Y149519D01*
X60005Y149512D01*
X59969Y149503D01*
X59929Y149495D01*
X59885Y149486D01*
X59841Y149477D01*
X59749Y149459D01*
X59652Y149441D01*
X59654D01*
X59658Y149439D01*
X59663D01*
X59670Y149437D01*
X59679Y149433D01*
X59690Y149432D01*
X59716Y149426D01*
X59749Y149417D01*
X59783Y149410D01*
X59821Y149400D01*
X59861Y149390D01*
X59943Y149370D01*
X59983Y149361D01*
X60020Y149351D01*
X60052Y149342D01*
X60080Y149337D01*
X60103Y149330D01*
X60111Y149328D01*
X60118Y149326D01*
X61820Y148849D01*
Y148447D01*
X60544Y148087D01*
X60542D01*
X60538Y148085D01*
X60531Y148083D01*
X60522Y148081D01*
X60511Y148077D01*
X60496Y148074D01*
X60482Y148070D01*
X60464Y148065D01*
X60444Y148059D01*
X60422Y148054D01*
X60371Y148041D01*
X60316Y148026D01*
X60254Y148012D01*
X60187Y147995D01*
X60118Y147979D01*
X60043Y147963D01*
X59967Y147946D01*
X59810Y147915D01*
X59652Y147890D01*
X59656D01*
X59663Y147888D01*
X59676Y147885D01*
X59694Y147881D01*
X59718Y147875D01*
X59743Y147870D01*
X59776Y147863D01*
X59810Y147855D01*
X59849Y147846D01*
X59890Y147837D01*
X59936Y147828D01*
X59983Y147815D01*
X60034Y147804D01*
X60087Y147792D01*
X60143Y147779D01*
X60200Y147764D01*
X61820Y147369D01*
Y147033D01*
X59301Y147724D01*
Y148048D01*
X61219Y148574D01*
X61223D01*
X61230Y148578D01*
X61241Y148582D01*
X61257Y148585D01*
X61277Y148591D01*
X61297Y148596D01*
X61321Y148603D01*
X61346Y148611D01*
X61397Y148625D01*
X61421Y148631D01*
X61445Y148638D01*
X61466Y148643D01*
X61485Y148649D01*
X61501Y148653D01*
X61514Y148656D01*
X61512D01*
X61507Y148658D01*
X61497Y148660D01*
X61485Y148663D01*
X61470Y148667D01*
X61452Y148671D01*
X61434Y148676D01*
X61412Y148682D01*
X61366Y148693D01*
X61317Y148705D01*
X61266Y148718D01*
X61219Y148731D01*
X59301Y149260D01*
Y149606D01*
X61820Y150270D01*
Y149930D01*
D02*
G37*
G36*
X61197Y146609D02*
X61201Y146601D01*
X61208Y146587D01*
X61217Y146569D01*
X61228Y146547D01*
X61243Y146519D01*
X61259Y146490D01*
X61277Y146459D01*
X61299Y146425D01*
X61321Y146388D01*
X61372Y146312D01*
X61428Y146234D01*
X61490Y146159D01*
X61492Y146157D01*
X61497Y146150D01*
X61507Y146141D01*
X61519Y146128D01*
X61536Y146112D01*
X61554Y146094D01*
X61576Y146074D01*
X61598Y146052D01*
X61623Y146030D01*
X61650Y146006D01*
X61707Y145961D01*
X61767Y145919D01*
X61798Y145901D01*
X61829Y145884D01*
Y145684D01*
X59301D01*
Y145993D01*
X61270D01*
X61268Y145995D01*
X61264Y145999D01*
X61259Y146004D01*
X61252Y146013D01*
X61243Y146024D01*
X61230Y146039D01*
X61217Y146055D01*
X61203Y146072D01*
X61188Y146094D01*
X61170Y146115D01*
X61154Y146139D01*
X61133Y146165D01*
X61115Y146194D01*
X61095Y146223D01*
X61055Y146288D01*
X61053Y146290D01*
X61050Y146296D01*
X61044Y146307D01*
X61039Y146319D01*
X61030Y146334D01*
X61019Y146352D01*
X61008Y146374D01*
X60995Y146396D01*
X60970Y146447D01*
X60944Y146501D01*
X60919Y146558D01*
X60897Y146612D01*
X61195D01*
X61197Y146609D01*
D02*
G37*
G36*
X60138Y82185D02*
X60136D01*
X60129Y82183D01*
X60120D01*
X60107Y82180D01*
X60091Y82178D01*
X60071Y82174D01*
X60051Y82169D01*
X60027Y82163D01*
X59978Y82151D01*
X59925Y82132D01*
X59874Y82111D01*
X59825Y82083D01*
X59823Y82081D01*
X59819Y82080D01*
X59814Y82074D01*
X59805Y82067D01*
X59794Y82060D01*
X59783Y82049D01*
X59770Y82036D01*
X59756Y82021D01*
X59741Y82005D01*
X59725Y81985D01*
X59708Y81965D01*
X59692Y81941D01*
X59676Y81918D01*
X59659Y81890D01*
X59645Y81861D01*
X59630Y81830D01*
Y81828D01*
X59627Y81823D01*
X59623Y81812D01*
X59619Y81799D01*
X59614Y81783D01*
X59606Y81765D01*
X59599Y81741D01*
X59594Y81717D01*
X59587Y81690D01*
X59579Y81659D01*
X59574Y81628D01*
X59566Y81594D01*
X59559Y81521D01*
X59556Y81443D01*
Y81424D01*
X59557Y81410D01*
Y81393D01*
X59559Y81375D01*
X59561Y81353D01*
X59563Y81330D01*
X59570Y81277D01*
X59579Y81221D01*
X59594Y81164D01*
X59612Y81108D01*
Y81106D01*
X59614Y81100D01*
X59617Y81093D01*
X59623Y81084D01*
X59628Y81071D01*
X59636Y81059D01*
X59652Y81026D01*
X59674Y80991D01*
X59701Y80955D01*
X59732Y80920D01*
X59767Y80891D01*
X59768D01*
X59772Y80888D01*
X59778Y80884D01*
X59785Y80880D01*
X59794Y80875D01*
X59805Y80867D01*
X59832Y80855D01*
X59863Y80842D01*
X59899Y80829D01*
X59941Y80822D01*
X59983Y80818D01*
X59985D01*
X59989D01*
X59994D01*
X60003Y80820D01*
X60014D01*
X60025Y80822D01*
X60054Y80827D01*
X60085Y80835D01*
X60120Y80847D01*
X60154Y80866D01*
X60189Y80889D01*
X60191D01*
X60193Y80893D01*
X60203Y80902D01*
X60220Y80920D01*
X60231Y80931D01*
X60242Y80944D01*
X60253Y80958D01*
X60265Y80975D01*
X60278Y80993D01*
X60291Y81015D01*
X60304Y81037D01*
X60316Y81062D01*
X60327Y81088D01*
X60340Y81117D01*
Y81119D01*
X60342Y81122D01*
X60344Y81128D01*
X60347Y81139D01*
X60351Y81151D01*
X60356Y81166D01*
X60362Y81186D01*
X60369Y81210D01*
X60378Y81239D01*
X60387Y81270D01*
X60396Y81306D01*
X60407Y81348D01*
X60420Y81393D01*
X60433Y81446D01*
X60447Y81503D01*
X60462Y81564D01*
Y81566D01*
X60464Y81568D01*
Y81574D01*
X60466Y81579D01*
X60471Y81597D01*
X60476Y81621D01*
X60484Y81648D01*
X60493Y81681D01*
X60502Y81717D01*
X60513Y81754D01*
X60536Y81834D01*
X60564Y81914D01*
X60578Y81952D01*
X60593Y81989D01*
X60606Y82020D01*
X60620Y82049D01*
X60622Y82051D01*
X60624Y82056D01*
X60629Y82065D01*
X60637Y82078D01*
X60646Y82092D01*
X60659Y82111D01*
X60671Y82129D01*
X60686Y82151D01*
X60719Y82194D01*
X60759Y82238D01*
X60804Y82282D01*
X60830Y82300D01*
X60855Y82318D01*
X60857Y82320D01*
X60862Y82322D01*
X60870Y82325D01*
X60881Y82331D01*
X60893Y82338D01*
X60908Y82345D01*
X60926Y82353D01*
X60946Y82362D01*
X60970Y82369D01*
X60993Y82378D01*
X61046Y82391D01*
X61104Y82402D01*
X61135Y82403D01*
X61168Y82405D01*
X61170D01*
X61177D01*
X61186D01*
X61201Y82403D01*
X61217Y82402D01*
X61237Y82400D01*
X61259Y82396D01*
X61285Y82393D01*
X61312Y82385D01*
X61339Y82380D01*
X61368Y82371D01*
X61399Y82360D01*
X61430Y82347D01*
X61461Y82333D01*
X61494Y82316D01*
X61525Y82298D01*
X61527Y82296D01*
X61532Y82292D01*
X61541Y82287D01*
X61552Y82278D01*
X61567Y82267D01*
X61581Y82253D01*
X61599Y82236D01*
X61618Y82218D01*
X61638Y82198D01*
X61659Y82174D01*
X61680Y82149D01*
X61701Y82120D01*
X61721Y82089D01*
X61741Y82056D01*
X61760Y82021D01*
X61776Y81983D01*
X61778Y81981D01*
X61780Y81974D01*
X61783Y81963D01*
X61791Y81947D01*
X61796Y81927D01*
X61803Y81905D01*
X61812Y81878D01*
X61820Y81847D01*
X61829Y81814D01*
X61836Y81779D01*
X61843Y81741D01*
X61851Y81701D01*
X61856Y81657D01*
X61860Y81614D01*
X61861Y81568D01*
X61863Y81521D01*
Y81494D01*
X61861Y81473D01*
Y81450D01*
X61858Y81421D01*
X61856Y81390D01*
X61852Y81353D01*
X61847Y81317D01*
X61841Y81277D01*
X61825Y81195D01*
X61814Y81151D01*
X61803Y81109D01*
X61789Y81068D01*
X61772Y81028D01*
X61770Y81026D01*
X61769Y81019D01*
X61763Y81008D01*
X61756Y80993D01*
X61747Y80975D01*
X61734Y80955D01*
X61721Y80931D01*
X61705Y80907D01*
X61689Y80880D01*
X61669Y80855D01*
X61647Y80827D01*
X61623Y80800D01*
X61598Y80773D01*
X61568Y80747D01*
X61539Y80722D01*
X61507Y80700D01*
X61505Y80698D01*
X61499Y80695D01*
X61488Y80689D01*
X61476Y80682D01*
X61459Y80673D01*
X61439Y80662D01*
X61417Y80653D01*
X61392Y80640D01*
X61365Y80629D01*
X61334Y80618D01*
X61301Y80607D01*
X61266Y80598D01*
X61230Y80589D01*
X61192Y80582D01*
X61152Y80578D01*
X61112Y80574D01*
X61088Y80895D01*
X61092D01*
X61099Y80897D01*
X61112Y80898D01*
X61128Y80902D01*
X61146Y80906D01*
X61170Y80911D01*
X61195Y80918D01*
X61223Y80927D01*
X61252Y80937D01*
X61281Y80949D01*
X61310Y80964D01*
X61341Y80980D01*
X61370Y80998D01*
X61397Y81020D01*
X61425Y81044D01*
X61448Y81069D01*
X61450Y81071D01*
X61454Y81077D01*
X61459Y81084D01*
X61468Y81097D01*
X61478Y81113D01*
X61487Y81131D01*
X61497Y81153D01*
X61510Y81179D01*
X61521Y81208D01*
X61532Y81241D01*
X61541Y81277D01*
X61552Y81315D01*
X61559Y81359D01*
X61565Y81404D01*
X61568Y81454D01*
X61570Y81506D01*
Y81535D01*
X61568Y81555D01*
X61567Y81581D01*
X61565Y81608D01*
X61561Y81641D01*
X61556Y81674D01*
X61543Y81747D01*
X61534Y81783D01*
X61523Y81819D01*
X61510Y81854D01*
X61496Y81889D01*
X61479Y81919D01*
X61459Y81947D01*
X61457Y81949D01*
X61454Y81952D01*
X61448Y81959D01*
X61439Y81969D01*
X61428Y81978D01*
X61416Y81990D01*
X61401Y82001D01*
X61385Y82014D01*
X61366Y82027D01*
X61345Y82039D01*
X61299Y82061D01*
X61275Y82070D01*
X61248Y82078D01*
X61221Y82081D01*
X61192Y82083D01*
X61190D01*
X61186D01*
X61179D01*
X61170Y82081D01*
X61157Y82080D01*
X61144Y82078D01*
X61114Y82070D01*
X61077Y82060D01*
X61041Y82043D01*
X61021Y82032D01*
X61002Y82018D01*
X60984Y82003D01*
X60968Y81987D01*
X60966Y81985D01*
X60964Y81981D01*
X60959Y81976D01*
X60953Y81965D01*
X60944Y81952D01*
X60935Y81934D01*
X60924Y81914D01*
X60911Y81889D01*
X60899Y81858D01*
X60884Y81823D01*
X60870Y81781D01*
X60853Y81736D01*
X60837Y81683D01*
X60820Y81625D01*
X60804Y81559D01*
X60786Y81486D01*
Y81484D01*
X60784Y81481D01*
Y81475D01*
X60782Y81468D01*
X60780Y81459D01*
X60777Y81448D01*
X60771Y81421D01*
X60762Y81388D01*
X60753Y81350D01*
X60744Y81308D01*
X60731Y81264D01*
X60708Y81171D01*
X60695Y81126D01*
X60680Y81080D01*
X60668Y81037D01*
X60653Y80997D01*
X60640Y80960D01*
X60628Y80929D01*
X60626Y80927D01*
X60622Y80920D01*
X60617Y80907D01*
X60609Y80893D01*
X60598Y80875D01*
X60588Y80855D01*
X60573Y80831D01*
X60557Y80806D01*
X60540Y80780D01*
X60520Y80753D01*
X60476Y80698D01*
X60426Y80647D01*
X60398Y80625D01*
X60369Y80604D01*
X60367Y80602D01*
X60362Y80598D01*
X60353Y80594D01*
X60342Y80587D01*
X60327Y80580D01*
X60309Y80571D01*
X60289Y80560D01*
X60267Y80551D01*
X60242Y80542D01*
X60214Y80531D01*
X60185Y80522D01*
X60153Y80514D01*
X60120Y80507D01*
X60085Y80502D01*
X60051Y80500D01*
X60012Y80498D01*
X60010D01*
X60003D01*
X59992D01*
X59978Y80500D01*
X59960Y80502D01*
X59940Y80503D01*
X59916Y80507D01*
X59889Y80513D01*
X59861Y80518D01*
X59830Y80527D01*
X59799Y80536D01*
X59767Y80547D01*
X59734Y80560D01*
X59699Y80576D01*
X59667Y80594D01*
X59632Y80615D01*
X59630Y80616D01*
X59625Y80620D01*
X59616Y80627D01*
X59603Y80636D01*
X59588Y80647D01*
X59570Y80662D01*
X59552Y80678D01*
X59532Y80698D01*
X59510Y80720D01*
X59488Y80746D01*
X59465Y80773D01*
X59441Y80802D01*
X59419Y80833D01*
X59397Y80867D01*
X59377Y80904D01*
X59357Y80944D01*
X59355Y80946D01*
X59354Y80953D01*
X59348Y80966D01*
X59343Y80982D01*
X59335Y81002D01*
X59326Y81026D01*
X59317Y81053D01*
X59308Y81084D01*
X59299Y81119D01*
X59290Y81157D01*
X59282Y81197D01*
X59273Y81239D01*
X59268Y81282D01*
X59263Y81330D01*
X59261Y81379D01*
X59259Y81428D01*
Y81461D01*
X59261Y81484D01*
X59263Y81514D01*
X59264Y81548D01*
X59268Y81586D01*
X59272Y81628D01*
X59277Y81672D01*
X59282Y81717D01*
X59301Y81814D01*
X59312Y81863D01*
X59324Y81910D01*
X59341Y81958D01*
X59357Y82001D01*
X59359Y82003D01*
X59363Y82012D01*
X59368Y82023D01*
X59375Y82039D01*
X59386Y82060D01*
X59399Y82081D01*
X59415Y82107D01*
X59432Y82132D01*
X59452Y82161D01*
X59474Y82191D01*
X59499Y82222D01*
X59526Y82251D01*
X59556Y82282D01*
X59587Y82311D01*
X59621Y82338D01*
X59658Y82363D01*
X59659Y82365D01*
X59667Y82369D01*
X59677Y82376D01*
X59692Y82384D01*
X59712Y82394D01*
X59734Y82405D01*
X59759Y82418D01*
X59789Y82429D01*
X59821Y82442D01*
X59856Y82455D01*
X59894Y82465D01*
X59932Y82476D01*
X59974Y82485D01*
X60018Y82493D01*
X60063Y82498D01*
X60111Y82500D01*
X60138Y82185D01*
D02*
G37*
G36*
X61820Y79930D02*
X60167Y79548D01*
X60163D01*
X60156Y79544D01*
X60142Y79542D01*
X60123Y79537D01*
X60100Y79532D01*
X60072Y79526D01*
X60040Y79519D01*
X60005Y79512D01*
X59969Y79502D01*
X59929Y79495D01*
X59885Y79486D01*
X59841Y79477D01*
X59749Y79459D01*
X59652Y79441D01*
X59654D01*
X59658Y79439D01*
X59663D01*
X59670Y79437D01*
X59679Y79433D01*
X59690Y79431D01*
X59716Y79426D01*
X59749Y79417D01*
X59783Y79410D01*
X59821Y79400D01*
X59861Y79390D01*
X59943Y79370D01*
X59983Y79361D01*
X60020Y79351D01*
X60052Y79342D01*
X60080Y79337D01*
X60103Y79330D01*
X60111Y79328D01*
X60118Y79326D01*
X61820Y78849D01*
Y78447D01*
X60544Y78087D01*
X60542D01*
X60538Y78085D01*
X60531Y78083D01*
X60522Y78081D01*
X60511Y78077D01*
X60496Y78074D01*
X60482Y78070D01*
X60464Y78065D01*
X60444Y78059D01*
X60422Y78054D01*
X60371Y78041D01*
X60316Y78026D01*
X60254Y78012D01*
X60187Y77996D01*
X60118Y77979D01*
X60043Y77963D01*
X59967Y77946D01*
X59810Y77915D01*
X59652Y77890D01*
X59656D01*
X59663Y77888D01*
X59676Y77885D01*
X59694Y77881D01*
X59718Y77875D01*
X59743Y77870D01*
X59776Y77863D01*
X59810Y77855D01*
X59849Y77846D01*
X59890Y77837D01*
X59936Y77828D01*
X59983Y77815D01*
X60034Y77804D01*
X60087Y77792D01*
X60143Y77779D01*
X60200Y77764D01*
X61820Y77369D01*
Y77033D01*
X59301Y77724D01*
Y78048D01*
X61219Y78574D01*
X61223D01*
X61230Y78578D01*
X61241Y78582D01*
X61257Y78585D01*
X61277Y78591D01*
X61297Y78596D01*
X61321Y78603D01*
X61346Y78611D01*
X61397Y78625D01*
X61421Y78631D01*
X61445Y78638D01*
X61466Y78643D01*
X61485Y78649D01*
X61501Y78653D01*
X61514Y78656D01*
X61512D01*
X61507Y78658D01*
X61497Y78660D01*
X61485Y78663D01*
X61470Y78667D01*
X61452Y78671D01*
X61434Y78676D01*
X61412Y78682D01*
X61366Y78693D01*
X61317Y78705D01*
X61266Y78718D01*
X61219Y78731D01*
X59301Y79260D01*
Y79606D01*
X61820Y80270D01*
Y79930D01*
D02*
G37*
G36*
X59341Y76885D02*
X59370Y76884D01*
X59401Y76880D01*
X59437Y76874D01*
X59475Y76865D01*
X59514Y76853D01*
X59516D01*
X59521Y76849D01*
X59530Y76845D01*
X59543Y76840D01*
X59559Y76834D01*
X59577Y76825D01*
X59597Y76814D01*
X59619Y76803D01*
X59645Y76791D01*
X59670Y76774D01*
X59727Y76740D01*
X59787Y76698D01*
X59849Y76649D01*
X59850Y76647D01*
X59856Y76641D01*
X59865Y76634D01*
X59878Y76623D01*
X59894Y76609D01*
X59912Y76591D01*
X59934Y76570D01*
X59958Y76545D01*
X59985Y76518D01*
X60014Y76489D01*
X60045Y76456D01*
X60080Y76419D01*
X60114Y76379D01*
X60151Y76337D01*
X60189Y76292D01*
X60229Y76245D01*
X60231Y76243D01*
X60233Y76239D01*
X60238Y76234D01*
X60243Y76227D01*
X60253Y76217D01*
X60262Y76206D01*
X60285Y76179D01*
X60313Y76145D01*
X60347Y76108D01*
X60384Y76066D01*
X60424Y76023D01*
X60466Y75975D01*
X60509Y75930D01*
X60553Y75883D01*
X60598Y75839D01*
X60642Y75795D01*
X60684Y75757D01*
X60726Y75721D01*
X60764Y75691D01*
X60766Y75690D01*
X60773Y75686D01*
X60784Y75679D01*
X60797Y75668D01*
X60815Y75657D01*
X60835Y75646D01*
X60859Y75631D01*
X60884Y75619D01*
X60911Y75606D01*
X60941Y75591D01*
X61004Y75568D01*
X61037Y75559D01*
X61070Y75551D01*
X61102Y75548D01*
X61135Y75546D01*
X61137D01*
X61144D01*
X61154D01*
X61166Y75548D01*
X61183Y75549D01*
X61201Y75553D01*
X61221Y75557D01*
X61243Y75562D01*
X61266Y75569D01*
X61292Y75578D01*
X61317Y75590D01*
X61343Y75602D01*
X61370Y75617D01*
X61396Y75635D01*
X61421Y75655D01*
X61445Y75679D01*
X61446Y75681D01*
X61450Y75684D01*
X61456Y75691D01*
X61465Y75702D01*
X61474Y75715D01*
X61485Y75731D01*
X61497Y75750D01*
X61508Y75770D01*
X61521Y75793D01*
X61532Y75819D01*
X61543Y75848D01*
X61552Y75877D01*
X61561Y75910D01*
X61567Y75944D01*
X61570Y75981D01*
X61572Y76019D01*
Y76041D01*
X61570Y76055D01*
X61568Y76075D01*
X61565Y76097D01*
X61561Y76121D01*
X61556Y76148D01*
X61548Y76175D01*
X61539Y76205D01*
X61528Y76234D01*
X61516Y76265D01*
X61499Y76294D01*
X61481Y76323D01*
X61461Y76352D01*
X61437Y76377D01*
X61436Y76379D01*
X61432Y76383D01*
X61423Y76390D01*
X61414Y76398D01*
X61399Y76408D01*
X61383Y76419D01*
X61363Y76432D01*
X61341Y76443D01*
X61317Y76456D01*
X61288Y76468D01*
X61259Y76479D01*
X61226Y76490D01*
X61190Y76498D01*
X61152Y76505D01*
X61112Y76509D01*
X61068Y76510D01*
X61101Y76829D01*
X61102D01*
X61104D01*
X61110Y76827D01*
X61117D01*
X61135Y76825D01*
X61159Y76820D01*
X61188Y76814D01*
X61223Y76807D01*
X61261Y76798D01*
X61301Y76787D01*
X61345Y76772D01*
X61388Y76756D01*
X61434Y76736D01*
X61479Y76712D01*
X61523Y76687D01*
X61565Y76656D01*
X61605Y76623D01*
X61641Y76585D01*
X61643Y76583D01*
X61648Y76576D01*
X61659Y76563D01*
X61670Y76547D01*
X61685Y76525D01*
X61701Y76499D01*
X61718Y76468D01*
X61736Y76434D01*
X61752Y76394D01*
X61769Y76352D01*
X61785Y76305D01*
X61800Y76254D01*
X61812Y76199D01*
X61821Y76141D01*
X61827Y76079D01*
X61829Y76013D01*
Y75997D01*
X61827Y75979D01*
X61825Y75954D01*
X61823Y75923D01*
X61818Y75888D01*
X61812Y75848D01*
X61803Y75806D01*
X61792Y75761D01*
X61780Y75715D01*
X61763Y75666D01*
X61743Y75619D01*
X61720Y75571D01*
X61694Y75526D01*
X61663Y75482D01*
X61627Y75440D01*
X61625Y75438D01*
X61618Y75431D01*
X61607Y75420D01*
X61590Y75407D01*
X61572Y75391D01*
X61548Y75373D01*
X61521Y75353D01*
X61490Y75333D01*
X61456Y75315D01*
X61417Y75295D01*
X61375Y75276D01*
X61332Y75260D01*
X61285Y75247D01*
X61235Y75236D01*
X61183Y75229D01*
X61128Y75227D01*
X61126D01*
X61121D01*
X61114D01*
X61102D01*
X61088Y75229D01*
X61073Y75231D01*
X61055Y75233D01*
X61035Y75235D01*
X60990Y75242D01*
X60939Y75253D01*
X60886Y75269D01*
X60831Y75289D01*
X60830D01*
X60824Y75293D01*
X60817Y75296D01*
X60806Y75302D01*
X60793Y75307D01*
X60777Y75317D01*
X60759Y75326D01*
X60738Y75338D01*
X60717Y75351D01*
X60693Y75366D01*
X60640Y75402D01*
X60613Y75422D01*
X60584Y75444D01*
X60555Y75469D01*
X60524Y75495D01*
X60522Y75497D01*
X60517Y75502D01*
X60507Y75509D01*
X60495Y75522D01*
X60478Y75538D01*
X60458Y75559D01*
X60435Y75580D01*
X60407Y75608D01*
X60378Y75639D01*
X60345Y75675D01*
X60309Y75713D01*
X60269Y75757D01*
X60227Y75804D01*
X60182Y75855D01*
X60132Y75912D01*
X60081Y75972D01*
X60080Y75975D01*
X60071Y75984D01*
X60060Y75997D01*
X60043Y76015D01*
X60025Y76039D01*
X60003Y76063D01*
X59980Y76090D01*
X59954Y76119D01*
X59901Y76181D01*
X59874Y76210D01*
X59849Y76239D01*
X59823Y76266D01*
X59801Y76290D01*
X59781Y76312D01*
X59763Y76328D01*
X59759Y76332D01*
X59749Y76341D01*
X59732Y76356D01*
X59712Y76374D01*
X59687Y76394D01*
X59659Y76416D01*
X59628Y76438D01*
X59597Y76458D01*
Y75224D01*
X59301D01*
Y76887D01*
X59303D01*
X59306D01*
X59312D01*
X59319D01*
X59330D01*
X59341Y76885D01*
D02*
G37*
D11*
X80866Y144862D02*
Y160138D01*
X39134Y144862D02*
X80866D01*
X39134D02*
Y160138D01*
X80866D01*
X39134Y90138D02*
X80866D01*
X39134Y74862D02*
Y90138D01*
Y74862D02*
X80866D01*
Y90138D01*
M02*
