G04*
G04 #@! TF.GenerationSoftware,Altium Limited,Altium Designer,20.2.6 (244)*
G04*
G04 Layer_Physical_Order=2*
G04 Layer_Color=16711680*
%FSLAX25Y25*%
%MOIN*%
G70*
G04*
G04 #@! TF.SameCoordinates,3ADD8469-B8FD-440E-8261-352D89208680*
G04*
G04*
G04 #@! TF.FilePolarity,Positive*
G04*
G01*
G75*
%ADD12C,0.01575*%
%ADD34R,0.06299X0.06299*%
%ADD35C,0.06299*%
%ADD36C,0.06000*%
%ADD37R,0.06000X0.06000*%
%ADD38C,0.12598*%
%ADD39C,0.02362*%
G36*
X259197Y199668D02*
Y160000D01*
X259258Y159693D01*
X259432Y159432D01*
X269197Y149668D01*
Y15333D01*
X259432Y5568D01*
X259432Y5568D01*
X259258Y5307D01*
X259197Y5000D01*
X259197Y5000D01*
Y803D01*
X803D01*
Y209197D01*
X249668D01*
X259197Y199668D01*
D02*
G37*
%LPC*%
G36*
X104250Y203497D02*
Y200250D01*
X107497D01*
X107410Y200914D01*
X107057Y201765D01*
X106496Y202496D01*
X105765Y203057D01*
X104914Y203410D01*
X104250Y203497D01*
D02*
G37*
G36*
X103750D02*
X103086Y203410D01*
X102235Y203057D01*
X101504Y202496D01*
X100943Y201765D01*
X100590Y200914D01*
X100503Y200250D01*
X103750D01*
Y203497D01*
D02*
G37*
G36*
X107497Y199750D02*
X104250D01*
Y196503D01*
X104914Y196590D01*
X105765Y196943D01*
X106496Y197504D01*
X107057Y198235D01*
X107410Y199086D01*
X107497Y199750D01*
D02*
G37*
G36*
X103750D02*
X100503D01*
X100590Y199086D01*
X100943Y198235D01*
X101504Y197504D01*
X102235Y196943D01*
X103086Y196590D01*
X103750Y196503D01*
Y199750D01*
D02*
G37*
G36*
X253500Y203500D02*
X246500D01*
Y196500D01*
X253500D01*
Y203500D01*
D02*
G37*
G36*
X167500D02*
X160500D01*
Y196500D01*
X167500D01*
Y203500D01*
D02*
G37*
G36*
X240000Y203530D02*
X239086Y203410D01*
X238235Y203057D01*
X237504Y202496D01*
X236943Y201765D01*
X236590Y200914D01*
X236470Y200000D01*
X236590Y199086D01*
X236943Y198235D01*
X237504Y197504D01*
X238235Y196943D01*
X239086Y196590D01*
X240000Y196470D01*
X240914Y196590D01*
X241765Y196943D01*
X242496Y197504D01*
X243057Y198235D01*
X243410Y199086D01*
X243530Y200000D01*
X243410Y200914D01*
X243057Y201765D01*
X242496Y202496D01*
X241765Y203057D01*
X240914Y203410D01*
X240000Y203530D01*
D02*
G37*
G36*
X230000D02*
X229086Y203410D01*
X228235Y203057D01*
X227504Y202496D01*
X226943Y201765D01*
X226590Y200914D01*
X226470Y200000D01*
X226590Y199086D01*
X226943Y198235D01*
X227504Y197504D01*
X228235Y196943D01*
X229086Y196590D01*
X230000Y196470D01*
X230914Y196590D01*
X231765Y196943D01*
X232496Y197504D01*
X233057Y198235D01*
X233410Y199086D01*
X233530Y200000D01*
X233410Y200914D01*
X233057Y201765D01*
X232496Y202496D01*
X231765Y203057D01*
X230914Y203410D01*
X230000Y203530D01*
D02*
G37*
G36*
X220000D02*
X219086Y203410D01*
X218235Y203057D01*
X217504Y202496D01*
X216943Y201765D01*
X216590Y200914D01*
X216470Y200000D01*
X216590Y199086D01*
X216943Y198235D01*
X217504Y197504D01*
X218235Y196943D01*
X219086Y196590D01*
X220000Y196470D01*
X220914Y196590D01*
X221765Y196943D01*
X222496Y197504D01*
X223057Y198235D01*
X223410Y199086D01*
X223530Y200000D01*
X223410Y200914D01*
X223057Y201765D01*
X222496Y202496D01*
X221765Y203057D01*
X220914Y203410D01*
X220000Y203530D01*
D02*
G37*
G36*
X210000D02*
X209086Y203410D01*
X208235Y203057D01*
X207504Y202496D01*
X206943Y201765D01*
X206590Y200914D01*
X206470Y200000D01*
X206590Y199086D01*
X206943Y198235D01*
X207504Y197504D01*
X208235Y196943D01*
X209086Y196590D01*
X210000Y196470D01*
X210914Y196590D01*
X211765Y196943D01*
X212496Y197504D01*
X213057Y198235D01*
X213410Y199086D01*
X213530Y200000D01*
X213410Y200914D01*
X213057Y201765D01*
X212496Y202496D01*
X211765Y203057D01*
X210914Y203410D01*
X210000Y203530D01*
D02*
G37*
G36*
X200000D02*
X199086Y203410D01*
X198235Y203057D01*
X197504Y202496D01*
X196943Y201765D01*
X196590Y200914D01*
X196470Y200000D01*
X196590Y199086D01*
X196943Y198235D01*
X197504Y197504D01*
X198235Y196943D01*
X199086Y196590D01*
X200000Y196470D01*
X200914Y196590D01*
X201765Y196943D01*
X202496Y197504D01*
X203057Y198235D01*
X203410Y199086D01*
X203530Y200000D01*
X203410Y200914D01*
X203057Y201765D01*
X202496Y202496D01*
X201765Y203057D01*
X200914Y203410D01*
X200000Y203530D01*
D02*
G37*
G36*
X190000D02*
X189086Y203410D01*
X188235Y203057D01*
X187504Y202496D01*
X186943Y201765D01*
X186590Y200914D01*
X186470Y200000D01*
X186590Y199086D01*
X186943Y198235D01*
X187504Y197504D01*
X188235Y196943D01*
X189086Y196590D01*
X190000Y196470D01*
X190914Y196590D01*
X191765Y196943D01*
X192496Y197504D01*
X193057Y198235D01*
X193410Y199086D01*
X193530Y200000D01*
X193410Y200914D01*
X193057Y201765D01*
X192496Y202496D01*
X191765Y203057D01*
X190914Y203410D01*
X190000Y203530D01*
D02*
G37*
G36*
X180000D02*
X179086Y203410D01*
X178235Y203057D01*
X177504Y202496D01*
X176943Y201765D01*
X176590Y200914D01*
X176470Y200000D01*
X176590Y199086D01*
X176943Y198235D01*
X177504Y197504D01*
X178235Y196943D01*
X179086Y196590D01*
X180000Y196470D01*
X180914Y196590D01*
X181765Y196943D01*
X182496Y197504D01*
X183057Y198235D01*
X183410Y199086D01*
X183530Y200000D01*
X183410Y200914D01*
X183057Y201765D01*
X182496Y202496D01*
X181765Y203057D01*
X180914Y203410D01*
X180000Y203530D01*
D02*
G37*
G36*
X154000D02*
X153086Y203410D01*
X152235Y203057D01*
X151504Y202496D01*
X150943Y201765D01*
X150590Y200914D01*
X150470Y200000D01*
X150590Y199086D01*
X150943Y198235D01*
X151504Y197504D01*
X152235Y196943D01*
X153086Y196590D01*
X154000Y196470D01*
X154914Y196590D01*
X155765Y196943D01*
X156496Y197504D01*
X157057Y198235D01*
X157410Y199086D01*
X157530Y200000D01*
X157410Y200914D01*
X157057Y201765D01*
X156496Y202496D01*
X155765Y203057D01*
X154914Y203410D01*
X154000Y203530D01*
D02*
G37*
G36*
X144000D02*
X143086Y203410D01*
X142235Y203057D01*
X141504Y202496D01*
X140943Y201765D01*
X140590Y200914D01*
X140470Y200000D01*
X140590Y199086D01*
X140943Y198235D01*
X141504Y197504D01*
X142235Y196943D01*
X143086Y196590D01*
X144000Y196470D01*
X144914Y196590D01*
X145765Y196943D01*
X146496Y197504D01*
X147057Y198235D01*
X147410Y199086D01*
X147530Y200000D01*
X147410Y200914D01*
X147057Y201765D01*
X146496Y202496D01*
X145765Y203057D01*
X144914Y203410D01*
X144000Y203530D01*
D02*
G37*
G36*
X134000D02*
X133086Y203410D01*
X132235Y203057D01*
X131504Y202496D01*
X130943Y201765D01*
X130590Y200914D01*
X130470Y200000D01*
X130590Y199086D01*
X130943Y198235D01*
X131504Y197504D01*
X132235Y196943D01*
X133086Y196590D01*
X134000Y196470D01*
X134914Y196590D01*
X135765Y196943D01*
X136496Y197504D01*
X137057Y198235D01*
X137410Y199086D01*
X137530Y200000D01*
X137410Y200914D01*
X137057Y201765D01*
X136496Y202496D01*
X135765Y203057D01*
X134914Y203410D01*
X134000Y203530D01*
D02*
G37*
G36*
X124000D02*
X123086Y203410D01*
X122235Y203057D01*
X121504Y202496D01*
X120943Y201765D01*
X120590Y200914D01*
X120470Y200000D01*
X120590Y199086D01*
X120943Y198235D01*
X121504Y197504D01*
X122235Y196943D01*
X123086Y196590D01*
X124000Y196470D01*
X124914Y196590D01*
X125765Y196943D01*
X126496Y197504D01*
X127057Y198235D01*
X127410Y199086D01*
X127530Y200000D01*
X127410Y200914D01*
X127057Y201765D01*
X126496Y202496D01*
X125765Y203057D01*
X124914Y203410D01*
X124000Y203530D01*
D02*
G37*
G36*
X114000D02*
X113086Y203410D01*
X112235Y203057D01*
X111504Y202496D01*
X110943Y201765D01*
X110590Y200914D01*
X110470Y200000D01*
X110590Y199086D01*
X110943Y198235D01*
X111504Y197504D01*
X112235Y196943D01*
X113086Y196590D01*
X114000Y196470D01*
X114914Y196590D01*
X115765Y196943D01*
X116496Y197504D01*
X117057Y198235D01*
X117410Y199086D01*
X117530Y200000D01*
X117410Y200914D01*
X117057Y201765D01*
X116496Y202496D01*
X115765Y203057D01*
X114914Y203410D01*
X114000Y203530D01*
D02*
G37*
G36*
X94000D02*
X93086Y203410D01*
X92235Y203057D01*
X91504Y202496D01*
X90943Y201765D01*
X90590Y200914D01*
X90470Y200000D01*
X90590Y199086D01*
X90943Y198235D01*
X91504Y197504D01*
X92235Y196943D01*
X93086Y196590D01*
X94000Y196470D01*
X94914Y196590D01*
X95765Y196943D01*
X96496Y197504D01*
X97057Y198235D01*
X97410Y199086D01*
X97530Y200000D01*
X97410Y200914D01*
X97057Y201765D01*
X96496Y202496D01*
X95765Y203057D01*
X94914Y203410D01*
X94000Y203530D01*
D02*
G37*
G36*
X84000D02*
X83086Y203410D01*
X82235Y203057D01*
X81504Y202496D01*
X80943Y201765D01*
X80590Y200914D01*
X80470Y200000D01*
X80590Y199086D01*
X80943Y198235D01*
X81504Y197504D01*
X82235Y196943D01*
X83086Y196590D01*
X84000Y196470D01*
X84914Y196590D01*
X85765Y196943D01*
X86496Y197504D01*
X87057Y198235D01*
X87410Y199086D01*
X87530Y200000D01*
X87410Y200914D01*
X87057Y201765D01*
X86496Y202496D01*
X85765Y203057D01*
X84914Y203410D01*
X84000Y203530D01*
D02*
G37*
G36*
X74000D02*
X73086Y203410D01*
X72235Y203057D01*
X71504Y202496D01*
X70943Y201765D01*
X70590Y200914D01*
X70470Y200000D01*
X70590Y199086D01*
X70943Y198235D01*
X71504Y197504D01*
X72235Y196943D01*
X73086Y196590D01*
X74000Y196470D01*
X74914Y196590D01*
X75765Y196943D01*
X76496Y197504D01*
X77057Y198235D01*
X77410Y199086D01*
X77530Y200000D01*
X77410Y200914D01*
X77057Y201765D01*
X76496Y202496D01*
X75765Y203057D01*
X74914Y203410D01*
X74000Y203530D01*
D02*
G37*
G36*
X60000Y207319D02*
X58572Y207178D01*
X57199Y206762D01*
X55934Y206085D01*
X54825Y205175D01*
X53915Y204066D01*
X53238Y202801D01*
X52822Y201428D01*
X52681Y200000D01*
X52822Y198572D01*
X53238Y197199D01*
X53915Y195934D01*
X54825Y194825D01*
X55934Y193915D01*
X57199Y193238D01*
X58572Y192822D01*
X60000Y192681D01*
X61428Y192822D01*
X62801Y193238D01*
X64066Y193915D01*
X65175Y194825D01*
X66085Y195934D01*
X66762Y197199D01*
X67178Y198572D01*
X67319Y200000D01*
X67178Y201428D01*
X66762Y202801D01*
X66085Y204066D01*
X65175Y205175D01*
X64066Y206085D01*
X62801Y206762D01*
X61428Y207178D01*
X60000Y207319D01*
D02*
G37*
G36*
X21150Y158335D02*
X13850D01*
Y151035D01*
X21150D01*
Y158335D01*
D02*
G37*
G36*
X57138Y153820D02*
X56482Y153690D01*
X55926Y153318D01*
X55554Y152762D01*
X55424Y152106D01*
X55554Y151450D01*
X55926Y150894D01*
X56482Y150523D01*
X56936Y150433D01*
X68316Y139052D01*
X68416Y138549D01*
X68788Y137993D01*
X69344Y137621D01*
X70000Y137491D01*
X70656Y137621D01*
X71212Y137993D01*
X71584Y138549D01*
X71714Y139205D01*
X71584Y139861D01*
X71212Y140417D01*
X70656Y140788D01*
X70202Y140878D01*
X58821Y152259D01*
X58722Y152762D01*
X58350Y153318D01*
X57794Y153690D01*
X57138Y153820D01*
D02*
G37*
G36*
X260000Y147319D02*
X258572Y147178D01*
X257199Y146762D01*
X255934Y146085D01*
X254825Y145175D01*
X253915Y144066D01*
X253238Y142801D01*
X252822Y141428D01*
X252681Y140000D01*
X252822Y138572D01*
X253238Y137199D01*
X253915Y135934D01*
X254825Y134825D01*
X255934Y133915D01*
X257199Y133238D01*
X258572Y132822D01*
X260000Y132681D01*
X261428Y132822D01*
X262801Y133238D01*
X264066Y133915D01*
X265175Y134825D01*
X266085Y135934D01*
X266762Y137199D01*
X267178Y138572D01*
X267319Y140000D01*
X267178Y141428D01*
X266762Y142801D01*
X266085Y144066D01*
X265175Y145175D01*
X264066Y146085D01*
X262801Y146762D01*
X261428Y147178D01*
X260000Y147319D01*
D02*
G37*
G36*
X17500Y138681D02*
X16547Y138556D01*
X15660Y138188D01*
X14897Y137603D01*
X14312Y136840D01*
X13944Y135953D01*
X13819Y135000D01*
X13944Y134047D01*
X14312Y133159D01*
X14897Y132397D01*
X15660Y131812D01*
X16547Y131444D01*
X17500Y131319D01*
X18453Y131444D01*
X19341Y131812D01*
X20103Y132397D01*
X20688Y133159D01*
X21056Y134047D01*
X21181Y135000D01*
X21056Y135953D01*
X20688Y136840D01*
X20103Y137603D01*
X19341Y138188D01*
X18453Y138556D01*
X17500Y138681D01*
D02*
G37*
G36*
X21150Y91150D02*
X13850D01*
Y83850D01*
X21150D01*
Y91150D01*
D02*
G37*
G36*
X62500Y84214D02*
X61844Y84084D01*
X61288Y83712D01*
X60916Y83156D01*
X60786Y82500D01*
X60916Y81844D01*
X61288Y81288D01*
X61844Y80916D01*
X62322Y80821D01*
X68687Y74456D01*
Y71061D01*
X68416Y70656D01*
X68286Y70000D01*
X68416Y69344D01*
X68788Y68788D01*
X69344Y68416D01*
X70000Y68286D01*
X70656Y68416D01*
X71212Y68788D01*
X71584Y69344D01*
X71714Y70000D01*
X71584Y70656D01*
X71313Y71061D01*
Y75000D01*
X71213Y75502D01*
X70928Y75928D01*
X64179Y82678D01*
X64084Y83156D01*
X63712Y83712D01*
X63156Y84084D01*
X62500Y84214D01*
D02*
G37*
G36*
X17500Y71496D02*
X16547Y71371D01*
X15660Y71003D01*
X14897Y70418D01*
X14312Y69656D01*
X13944Y68768D01*
X13819Y67815D01*
X13944Y66862D01*
X14312Y65974D01*
X14897Y65212D01*
X15660Y64627D01*
X16547Y64259D01*
X17500Y64134D01*
X18453Y64259D01*
X19341Y64627D01*
X20103Y65212D01*
X20688Y65974D01*
X21056Y66862D01*
X21181Y67815D01*
X21056Y68768D01*
X20688Y69656D01*
X20103Y70418D01*
X19341Y71003D01*
X18453Y71371D01*
X17500Y71496D01*
D02*
G37*
G36*
X260000Y37319D02*
X258572Y37178D01*
X257199Y36762D01*
X255934Y36085D01*
X254825Y35175D01*
X253915Y34066D01*
X253238Y32801D01*
X252822Y31428D01*
X252681Y30000D01*
X252822Y28572D01*
X253238Y27199D01*
X253915Y25934D01*
X254825Y24825D01*
X255934Y23915D01*
X257199Y23238D01*
X258572Y22822D01*
X260000Y22681D01*
X261428Y22822D01*
X262801Y23238D01*
X264066Y23915D01*
X265175Y24825D01*
X266085Y25934D01*
X266762Y27199D01*
X267178Y28572D01*
X267319Y30000D01*
X267178Y31428D01*
X266762Y32801D01*
X266085Y34066D01*
X265175Y35175D01*
X264066Y36085D01*
X262801Y36762D01*
X261428Y37178D01*
X260000Y37319D01*
D02*
G37*
G36*
X170250Y13497D02*
Y10250D01*
X173497D01*
X173410Y10914D01*
X173057Y11765D01*
X172496Y12496D01*
X171765Y13057D01*
X170914Y13410D01*
X170250Y13497D01*
D02*
G37*
G36*
X160250D02*
Y10250D01*
X163497D01*
X163410Y10914D01*
X163057Y11765D01*
X162496Y12496D01*
X161765Y13057D01*
X160914Y13410D01*
X160250Y13497D01*
D02*
G37*
G36*
X169750D02*
X169086Y13410D01*
X168235Y13057D01*
X167504Y12496D01*
X166943Y11765D01*
X166590Y10914D01*
X166503Y10250D01*
X169750D01*
Y13497D01*
D02*
G37*
G36*
X159750D02*
X159086Y13410D01*
X158235Y13057D01*
X157504Y12496D01*
X156943Y11765D01*
X156590Y10914D01*
X156503Y10250D01*
X159750D01*
Y13497D01*
D02*
G37*
G36*
X173497Y9750D02*
X170250D01*
Y6503D01*
X170914Y6590D01*
X171765Y6943D01*
X172496Y7504D01*
X173057Y8235D01*
X173410Y9086D01*
X173497Y9750D01*
D02*
G37*
G36*
X163497D02*
X160250D01*
Y6503D01*
X160914Y6590D01*
X161765Y6943D01*
X162496Y7504D01*
X163057Y8235D01*
X163410Y9086D01*
X163497Y9750D01*
D02*
G37*
G36*
X169750D02*
X166503D01*
X166590Y9086D01*
X166943Y8235D01*
X167504Y7504D01*
X168235Y6943D01*
X169086Y6590D01*
X169750Y6503D01*
Y9750D01*
D02*
G37*
G36*
X159750D02*
X156503D01*
X156590Y9086D01*
X156943Y8235D01*
X157504Y7504D01*
X158235Y6943D01*
X159086Y6590D01*
X159750Y6503D01*
Y9750D01*
D02*
G37*
G36*
X203500Y13500D02*
X196500D01*
Y6500D01*
X203500D01*
Y13500D01*
D02*
G37*
G36*
X183500D02*
X176500D01*
Y6500D01*
X183500D01*
Y13500D01*
D02*
G37*
G36*
X250000Y13530D02*
X249086Y13410D01*
X248235Y13057D01*
X247504Y12496D01*
X246943Y11765D01*
X246590Y10914D01*
X246470Y10000D01*
X246590Y9086D01*
X246943Y8235D01*
X247504Y7504D01*
X248235Y6943D01*
X249086Y6590D01*
X250000Y6470D01*
X250914Y6590D01*
X251765Y6943D01*
X252496Y7504D01*
X253057Y8235D01*
X253410Y9086D01*
X253530Y10000D01*
X253410Y10914D01*
X253057Y11765D01*
X252496Y12496D01*
X251765Y13057D01*
X250914Y13410D01*
X250000Y13530D01*
D02*
G37*
G36*
X240000D02*
X239086Y13410D01*
X238235Y13057D01*
X237504Y12496D01*
X236943Y11765D01*
X236590Y10914D01*
X236470Y10000D01*
X236590Y9086D01*
X236943Y8235D01*
X237504Y7504D01*
X238235Y6943D01*
X239086Y6590D01*
X240000Y6470D01*
X240914Y6590D01*
X241765Y6943D01*
X242496Y7504D01*
X243057Y8235D01*
X243410Y9086D01*
X243530Y10000D01*
X243410Y10914D01*
X243057Y11765D01*
X242496Y12496D01*
X241765Y13057D01*
X240914Y13410D01*
X240000Y13530D01*
D02*
G37*
G36*
X230000D02*
X229086Y13410D01*
X228235Y13057D01*
X227504Y12496D01*
X226943Y11765D01*
X226590Y10914D01*
X226470Y10000D01*
X226590Y9086D01*
X226943Y8235D01*
X227504Y7504D01*
X228235Y6943D01*
X229086Y6590D01*
X230000Y6470D01*
X230914Y6590D01*
X231765Y6943D01*
X232496Y7504D01*
X233057Y8235D01*
X233410Y9086D01*
X233530Y10000D01*
X233410Y10914D01*
X233057Y11765D01*
X232496Y12496D01*
X231765Y13057D01*
X230914Y13410D01*
X230000Y13530D01*
D02*
G37*
G36*
X220000D02*
X219086Y13410D01*
X218235Y13057D01*
X217504Y12496D01*
X216943Y11765D01*
X216590Y10914D01*
X216470Y10000D01*
X216590Y9086D01*
X216943Y8235D01*
X217504Y7504D01*
X218235Y6943D01*
X219086Y6590D01*
X220000Y6470D01*
X220914Y6590D01*
X221765Y6943D01*
X222496Y7504D01*
X223057Y8235D01*
X223410Y9086D01*
X223530Y10000D01*
X223410Y10914D01*
X223057Y11765D01*
X222496Y12496D01*
X221765Y13057D01*
X220914Y13410D01*
X220000Y13530D01*
D02*
G37*
G36*
X210000D02*
X209086Y13410D01*
X208235Y13057D01*
X207504Y12496D01*
X206943Y11765D01*
X206590Y10914D01*
X206470Y10000D01*
X206590Y9086D01*
X206943Y8235D01*
X207504Y7504D01*
X208235Y6943D01*
X209086Y6590D01*
X210000Y6470D01*
X210914Y6590D01*
X211765Y6943D01*
X212496Y7504D01*
X213057Y8235D01*
X213410Y9086D01*
X213530Y10000D01*
X213410Y10914D01*
X213057Y11765D01*
X212496Y12496D01*
X211765Y13057D01*
X210914Y13410D01*
X210000Y13530D01*
D02*
G37*
G36*
X150000D02*
X149086Y13410D01*
X148235Y13057D01*
X147504Y12496D01*
X146943Y11765D01*
X146590Y10914D01*
X146470Y10000D01*
X146590Y9086D01*
X146943Y8235D01*
X147504Y7504D01*
X148235Y6943D01*
X149086Y6590D01*
X150000Y6470D01*
X150914Y6590D01*
X151765Y6943D01*
X152496Y7504D01*
X153057Y8235D01*
X153410Y9086D01*
X153530Y10000D01*
X153410Y10914D01*
X153057Y11765D01*
X152496Y12496D01*
X151765Y13057D01*
X150914Y13410D01*
X150000Y13530D01*
D02*
G37*
G36*
X140000D02*
X139086Y13410D01*
X138235Y13057D01*
X137504Y12496D01*
X136943Y11765D01*
X136590Y10914D01*
X136470Y10000D01*
X136590Y9086D01*
X136943Y8235D01*
X137504Y7504D01*
X138235Y6943D01*
X139086Y6590D01*
X140000Y6470D01*
X140914Y6590D01*
X141765Y6943D01*
X142496Y7504D01*
X143057Y8235D01*
X143410Y9086D01*
X143530Y10000D01*
X143410Y10914D01*
X143057Y11765D01*
X142496Y12496D01*
X141765Y13057D01*
X140914Y13410D01*
X140000Y13530D01*
D02*
G37*
G36*
X130000D02*
X129086Y13410D01*
X128235Y13057D01*
X127504Y12496D01*
X126943Y11765D01*
X126590Y10914D01*
X126470Y10000D01*
X126590Y9086D01*
X126943Y8235D01*
X127504Y7504D01*
X128235Y6943D01*
X129086Y6590D01*
X130000Y6470D01*
X130914Y6590D01*
X131765Y6943D01*
X132496Y7504D01*
X133057Y8235D01*
X133410Y9086D01*
X133530Y10000D01*
X133410Y10914D01*
X133057Y11765D01*
X132496Y12496D01*
X131765Y13057D01*
X130914Y13410D01*
X130000Y13530D01*
D02*
G37*
G36*
X120000D02*
X119086Y13410D01*
X118235Y13057D01*
X117504Y12496D01*
X116943Y11765D01*
X116590Y10914D01*
X116470Y10000D01*
X116590Y9086D01*
X116943Y8235D01*
X117504Y7504D01*
X118235Y6943D01*
X119086Y6590D01*
X120000Y6470D01*
X120914Y6590D01*
X121765Y6943D01*
X122496Y7504D01*
X123057Y8235D01*
X123410Y9086D01*
X123530Y10000D01*
X123410Y10914D01*
X123057Y11765D01*
X122496Y12496D01*
X121765Y13057D01*
X120914Y13410D01*
X120000Y13530D01*
D02*
G37*
G36*
X110000D02*
X109086Y13410D01*
X108235Y13057D01*
X107504Y12496D01*
X106943Y11765D01*
X106590Y10914D01*
X106470Y10000D01*
X106590Y9086D01*
X106943Y8235D01*
X107504Y7504D01*
X108235Y6943D01*
X109086Y6590D01*
X110000Y6470D01*
X110914Y6590D01*
X111765Y6943D01*
X112496Y7504D01*
X113057Y8235D01*
X113410Y9086D01*
X113530Y10000D01*
X113410Y10914D01*
X113057Y11765D01*
X112496Y12496D01*
X111765Y13057D01*
X110914Y13410D01*
X110000Y13530D01*
D02*
G37*
G36*
X55000Y17319D02*
X53572Y17178D01*
X52199Y16762D01*
X50934Y16085D01*
X49825Y15175D01*
X48915Y14066D01*
X48238Y12801D01*
X47822Y11428D01*
X47681Y10000D01*
X47822Y8572D01*
X48238Y7199D01*
X48915Y5934D01*
X49825Y4825D01*
X50934Y3915D01*
X52199Y3238D01*
X53572Y2822D01*
X55000Y2681D01*
X56428Y2822D01*
X57801Y3238D01*
X59066Y3915D01*
X60175Y4825D01*
X61085Y5934D01*
X61762Y7199D01*
X62178Y8572D01*
X62319Y10000D01*
X62178Y11428D01*
X61762Y12801D01*
X61085Y14066D01*
X60175Y15175D01*
X59066Y16085D01*
X57801Y16762D01*
X56428Y17178D01*
X55000Y17319D01*
D02*
G37*
%LPD*%
D12*
X57138Y152087D02*
Y152106D01*
X70000Y139205D02*
Y139225D01*
X57138Y152087D02*
X70000Y139225D01*
Y70000D02*
Y75000D01*
X62500Y82500D02*
X70000Y75000D01*
D34*
X17500Y154685D02*
D03*
Y87500D02*
D03*
D35*
Y135000D02*
D03*
Y67815D02*
D03*
D36*
X160000Y10000D02*
D03*
X170000D02*
D03*
X110000D02*
D03*
X120000D02*
D03*
X130000D02*
D03*
X140000D02*
D03*
X150000D02*
D03*
X230000Y200000D02*
D03*
X240000D02*
D03*
X180000D02*
D03*
X190000D02*
D03*
X200000D02*
D03*
X210000D02*
D03*
X220000D02*
D03*
X74000D02*
D03*
X84000D02*
D03*
X94000D02*
D03*
X104000D02*
D03*
X114000D02*
D03*
X124000D02*
D03*
X134000D02*
D03*
X144000D02*
D03*
X154000D02*
D03*
X250000Y10000D02*
D03*
X240000D02*
D03*
X230000D02*
D03*
X220000D02*
D03*
X210000D02*
D03*
D37*
X180000D02*
D03*
X250000Y200000D02*
D03*
X164000D02*
D03*
X200000Y10000D02*
D03*
D38*
X60000Y200000D02*
D03*
X55000Y10000D02*
D03*
X260000Y140000D02*
D03*
Y30000D02*
D03*
D39*
X70000Y139205D02*
D03*
X57138Y152106D02*
D03*
X132500Y90000D02*
D03*
X147500Y142500D02*
D03*
X70000Y70000D02*
D03*
X62500Y82500D02*
D03*
X100833Y58120D02*
D03*
X109118Y125775D02*
D03*
X132500Y75000D02*
D03*
Y142500D02*
D03*
X190000Y120000D02*
D03*
X180000D02*
D03*
X95000Y47500D02*
D03*
X67500D02*
D03*
M02*
