G04*
G04 #@! TF.GenerationSoftware,Altium Limited,Altium Designer,20.2.6 (244)*
G04*
G04 Layer_Color=8388736*
%FSLAX25Y25*%
%MOIN*%
G70*
G04*
G04 #@! TF.SameCoordinates,3ADD8469-B8FD-440E-8261-352D89208680*
G04*
G04*
G04 #@! TF.FilePolarity,Negative*
G04*
G01*
G75*
%ADD19R,0.05906X0.04331*%
%ADD22R,0.02959X0.02762*%
%ADD23R,0.02762X0.02959*%
%ADD24R,0.04449X0.04252*%
%ADD25O,0.07677X0.03347*%
%ADD26R,0.06890X0.06890*%
%ADD27C,0.06890*%
%ADD28C,0.06591*%
%ADD29R,0.06591X0.06591*%
%ADD30C,0.13189*%
%ADD31C,0.02953*%
D19*
X77520Y152500D02*
D03*
X42480D02*
D03*
Y82500D02*
D03*
X77520D02*
D03*
D22*
X132500Y83563D02*
D03*
Y80216D02*
D03*
X77500Y141673D02*
D03*
Y138327D02*
D03*
X105000Y58327D02*
D03*
Y61673D02*
D03*
Y125827D02*
D03*
Y129173D02*
D03*
X190000Y136673D02*
D03*
Y133327D02*
D03*
X180000Y136673D02*
D03*
Y133327D02*
D03*
X95000Y41673D02*
D03*
Y38327D02*
D03*
X67500Y38327D02*
D03*
Y41673D02*
D03*
X77500Y68327D02*
D03*
Y71673D02*
D03*
D23*
X143405Y142500D02*
D03*
X140059D02*
D03*
D24*
X190000Y153563D02*
D03*
Y147500D02*
D03*
X180000Y153563D02*
D03*
Y147500D02*
D03*
X67500Y11969D02*
D03*
Y18032D02*
D03*
X95000D02*
D03*
Y11969D02*
D03*
D25*
X105000Y85000D02*
D03*
Y80000D02*
D03*
Y75000D02*
D03*
Y70000D02*
D03*
X125472Y85000D02*
D03*
Y80000D02*
D03*
Y75000D02*
D03*
Y70000D02*
D03*
X104764Y152500D02*
D03*
Y147500D02*
D03*
Y142500D02*
D03*
Y137500D02*
D03*
X125236Y152500D02*
D03*
Y147500D02*
D03*
Y142500D02*
D03*
Y137500D02*
D03*
D26*
X17500Y154685D02*
D03*
Y87500D02*
D03*
D27*
Y135000D02*
D03*
Y67815D02*
D03*
D28*
X160000Y10000D02*
D03*
X170000D02*
D03*
X110000D02*
D03*
X120000D02*
D03*
X130000D02*
D03*
X140000D02*
D03*
X150000D02*
D03*
X230000Y200000D02*
D03*
X240000D02*
D03*
X180000D02*
D03*
X190000D02*
D03*
X200000D02*
D03*
X210000D02*
D03*
X220000D02*
D03*
X74000D02*
D03*
X84000D02*
D03*
X94000D02*
D03*
X104000D02*
D03*
X114000D02*
D03*
X124000D02*
D03*
X134000D02*
D03*
X144000D02*
D03*
X154000D02*
D03*
X250000Y10000D02*
D03*
X240000D02*
D03*
X230000D02*
D03*
X220000D02*
D03*
X210000D02*
D03*
D29*
X180000D02*
D03*
X250000Y200000D02*
D03*
X164000D02*
D03*
X200000Y10000D02*
D03*
D30*
X60000Y200000D02*
D03*
X55000Y10000D02*
D03*
X260000Y140000D02*
D03*
Y30000D02*
D03*
D31*
X70000Y139205D02*
D03*
X57138Y152106D02*
D03*
X132500Y90000D02*
D03*
X147500Y142500D02*
D03*
X70000Y70000D02*
D03*
X62500Y82500D02*
D03*
X100833Y58120D02*
D03*
X109118Y125775D02*
D03*
X132500Y75000D02*
D03*
Y142500D02*
D03*
X190000Y120000D02*
D03*
X180000D02*
D03*
X95000Y47500D02*
D03*
X67500D02*
D03*
M02*
