M48
;Layer_Color=9474304
;FILE_FORMAT=2:5
INCH,LZ
;TYPE=PLATED
T1F00S00C0.01181
T2F00S00C0.03000
T3F00S00C0.04331
T4F00S00C0.12598
%
T01
X00675Y00475
X007Y007
X00625Y00825
X0100833Y005812
X0095Y00475
X01325Y0075
Y009
Y01425
X01475
X018Y012
X019
X0109118Y0125775
X007Y0139205
X0057138Y0152106
T02
X011Y001
X012
X013
X014
X015
X016
X017
X018
X02
X021
X022
X023
X024
X025
X019Y02
X018
X0164
X0154
X0144
X0134
X0124
X0114
X0104
X0094
X0084
X0074
X02
X021
X022
X023
X024
X025
T03
X00175Y0067815
Y00875
Y0135
Y0154685
T04
X0055Y001
X026Y003
Y014
X006Y02
M30
