G04*
G04 #@! TF.GenerationSoftware,Altium Limited,Altium Designer,19.1.9 (167)*
G04*
G04 Layer_Physical_Order=2*
G04 Layer_Color=16711680*
%FSLAX25Y25*%
%MOIN*%
G70*
G01*
G75*
%ADD25R,0.05906X0.05906*%
%ADD26C,0.05906*%
%ADD27C,0.02500*%
G36*
X403645Y308697D02*
X404717Y308484D01*
X405726Y308066D01*
X406635Y307459D01*
X407408Y306686D01*
X408015Y305777D01*
X408433Y304768D01*
X408646Y303696D01*
Y303150D01*
X408646Y228346D01*
X408646Y227604D01*
X408356Y226146D01*
X407787Y224773D01*
X406962Y223538D01*
X405911Y222487D01*
X404676Y221661D01*
X403303Y221093D01*
X401845Y220803D01*
X401102Y220803D01*
X401102D01*
D01*
X331181Y220803D01*
X330438D01*
X328981Y221093D01*
X327608Y221661D01*
X326372Y222487D01*
X325322Y223538D01*
X324496Y224773D01*
X323927Y226146D01*
X323637Y227603D01*
X323637Y228346D01*
Y228346D01*
D01*
X323637Y303150D01*
Y303150D01*
D01*
X323637Y303696D01*
X323851Y304768D01*
X324269Y305777D01*
X324876Y306686D01*
X325649Y307459D01*
X326557Y308066D01*
X327567Y308484D01*
X328639Y308697D01*
X329185Y308697D01*
X329185D01*
D01*
X403098Y308697D01*
X403645Y308697D01*
D02*
G37*
%LPC*%
G36*
X364453Y305453D02*
X357547D01*
Y298547D01*
X364453D01*
Y305453D01*
D02*
G37*
G36*
X371000Y305483D02*
X370099Y305364D01*
X369259Y305016D01*
X368537Y304463D01*
X367984Y303741D01*
X367636Y302901D01*
X367517Y302000D01*
X367636Y301099D01*
X367984Y300259D01*
X368537Y299537D01*
X369259Y298984D01*
X370099Y298636D01*
X371000Y298517D01*
X371901Y298636D01*
X372741Y298984D01*
X373463Y299537D01*
X374016Y300259D01*
X374364Y301099D01*
X374482Y302000D01*
X374364Y302901D01*
X374016Y303741D01*
X373463Y304463D01*
X372741Y305016D01*
X371901Y305364D01*
X371000Y305483D01*
D02*
G37*
G36*
X384453Y237453D02*
X377547D01*
Y230547D01*
X384453D01*
Y237453D01*
D02*
G37*
G36*
X361000Y237483D02*
X360099Y237364D01*
X359259Y237016D01*
X358538Y236462D01*
X357984Y235741D01*
X357636Y234901D01*
X357518Y234000D01*
X357636Y233099D01*
X357984Y232259D01*
X358538Y231538D01*
X359259Y230984D01*
X360099Y230636D01*
X361000Y230518D01*
X361901Y230636D01*
X362741Y230984D01*
X363462Y231538D01*
X364016Y232259D01*
X364364Y233099D01*
X364482Y234000D01*
X364364Y234901D01*
X364016Y235741D01*
X363462Y236462D01*
X362741Y237016D01*
X361901Y237364D01*
X361000Y237483D01*
D02*
G37*
G36*
X351000D02*
X350099Y237364D01*
X349259Y237016D01*
X348537Y236462D01*
X347984Y235741D01*
X347636Y234901D01*
X347517Y234000D01*
X347636Y233099D01*
X347984Y232259D01*
X348537Y231538D01*
X349259Y230984D01*
X350099Y230636D01*
X351000Y230518D01*
X351901Y230636D01*
X352741Y230984D01*
X353463Y231538D01*
X354016Y232259D01*
X354364Y233099D01*
X354483Y234000D01*
X354364Y234901D01*
X354016Y235741D01*
X353463Y236462D01*
X352741Y237016D01*
X351901Y237364D01*
X351000Y237483D01*
D02*
G37*
%LPD*%
D25*
X361000Y302000D02*
D03*
X381000Y234000D02*
D03*
D26*
X371000Y302000D02*
D03*
X351000Y234000D02*
D03*
X361000D02*
D03*
X371000D02*
D03*
D27*
X346000Y252500D02*
D03*
X364250Y243250D02*
D03*
M02*
