G04*
G04 #@! TF.GenerationSoftware,Altium Limited,Altium Designer,19.1.9 (167)*
G04*
G04 Layer_Physical_Order=1*
G04 Layer_Color=255*
%FSLAX25Y25*%
%MOIN*%
G70*
G01*
G75*
%ADD13C,0.01000*%
%ADD14R,0.02559X0.02362*%
%ADD15R,0.02362X0.02559*%
%ADD16O,0.02756X0.07087*%
%ADD23C,0.00800*%
%ADD24C,0.00500*%
%ADD25R,0.05906X0.05906*%
%ADD26C,0.05906*%
%ADD27C,0.02500*%
G36*
X346500Y254396D02*
X346504Y254271D01*
X346515Y254152D01*
X346534Y254039D01*
X346560Y253930D01*
X346594Y253827D01*
X346635Y253730D01*
X346684Y253637D01*
X346740Y253550D01*
X346804Y253469D01*
X346875Y253393D01*
X345125Y253393D01*
X345196Y253469D01*
X345260Y253550D01*
X345316Y253637D01*
X345365Y253730D01*
X345406Y253827D01*
X345440Y253930D01*
X345466Y254039D01*
X345485Y254152D01*
X345496Y254271D01*
X345500Y254396D01*
X346500Y254396D01*
D02*
G37*
G36*
X364750Y245146D02*
X364754Y245021D01*
X364765Y244902D01*
X364784Y244789D01*
X364810Y244680D01*
X364844Y244577D01*
X364885Y244480D01*
X364934Y244387D01*
X364990Y244300D01*
X365054Y244219D01*
X365125Y244143D01*
X363375D01*
X363446Y244219D01*
X363510Y244300D01*
X363566Y244387D01*
X363615Y244480D01*
X363656Y244577D01*
X363690Y244680D01*
X363716Y244789D01*
X363735Y244902D01*
X363746Y245021D01*
X363750Y245146D01*
X364750D01*
D02*
G37*
D13*
X348780Y261673D02*
X356177Y269071D01*
X358689D01*
X359500Y269882D01*
Y270736D01*
X346000Y261673D02*
X348780D01*
X346000Y252500D02*
X346000Y252500D01*
Y258327D01*
X361000Y234000D02*
Y235327D01*
X359500Y236827D02*
X361000Y235327D01*
X359500Y236827D02*
Y250264D01*
X366000Y232586D02*
Y235500D01*
X363207Y229793D02*
X366000Y232586D01*
X354707Y229793D02*
X363207D01*
X351000Y233500D02*
X354707Y229793D01*
X374500Y244000D02*
Y250264D01*
X366000Y235500D02*
X374500Y244000D01*
X364250Y243250D02*
Y250014D01*
X364500Y250264D01*
X378500Y257500D02*
X381000Y255000D01*
X370086Y257500D02*
X378500D01*
X369500Y256914D02*
X370086Y257500D01*
X381000Y234000D02*
Y255000D01*
X369500Y250264D02*
Y256914D01*
D14*
X346000Y261673D02*
D03*
Y258327D02*
D03*
D15*
X368673Y281500D02*
D03*
X365327D02*
D03*
D16*
X374500Y270736D02*
D03*
X369500D02*
D03*
X364500D02*
D03*
X359500D02*
D03*
X374500Y250264D02*
D03*
X369500D02*
D03*
X364500D02*
D03*
X359500D02*
D03*
D23*
X366200Y282848D02*
Y291387D01*
X366108Y282756D02*
X366200Y282848D01*
X365200Y292387D02*
Y301531D01*
Y292387D02*
X366200Y291387D01*
X366108Y282281D02*
Y282756D01*
X365327Y281500D02*
X366108Y282281D01*
X361000Y302000D02*
X364731D01*
X365200Y301531D01*
X367800Y282848D02*
X367892Y282756D01*
Y282281D02*
Y282756D01*
Y282281D02*
X368673Y281500D01*
X366800Y301531D02*
X367269Y302000D01*
X371000D01*
X366800Y293050D02*
Y301531D01*
X367800Y282848D02*
Y292050D01*
X366800Y293050D02*
X367800Y292050D01*
X367892Y280719D02*
X368673Y281500D01*
X367892Y280244D02*
Y280719D01*
X367800Y280152D02*
X367892Y280244D01*
X367800Y274185D02*
Y280152D01*
Y274185D02*
X369500Y272485D01*
Y270736D02*
Y272485D01*
X365327Y281500D02*
X366108Y280719D01*
Y280244D02*
Y280719D01*
Y280244D02*
X366200Y280152D01*
Y274185D02*
Y280152D01*
X364500Y272485D02*
X366200Y274185D01*
X364500Y270736D02*
Y272485D01*
D24*
X351000Y233500D02*
Y234000D01*
D25*
X361000Y302000D02*
D03*
X381000Y234000D02*
D03*
D26*
X371000Y302000D02*
D03*
X351000Y234000D02*
D03*
X361000D02*
D03*
X371000D02*
D03*
D27*
X346000Y252500D02*
D03*
X364250Y243250D02*
D03*
M02*
