G04*
G04 #@! TF.GenerationSoftware,Altium Limited,Altium Designer,19.1.9 (167)*
G04*
G04 Layer_Color=65535*
%FSLAX25Y25*%
%MOIN*%
G70*
G01*
G75*
%ADD10C,0.01575*%
%ADD11C,0.01181*%
%ADD12C,0.00787*%
%ADD13C,0.01000*%
D10*
X361094Y257744D02*
X360550Y258493D01*
X359670Y258207D01*
Y257281D01*
X360550Y256995D01*
X361094Y257744D01*
D11*
X356764Y249083D02*
X356173Y249673D01*
X355583Y249083D01*
X356173Y248492D01*
X356764Y249083D01*
D12*
X343736Y256161D02*
Y258819D01*
Y261181D02*
Y263839D01*
X348264Y256161D02*
Y258819D01*
Y261181D02*
Y263839D01*
X343736Y256161D02*
X348264D01*
X343736Y263839D02*
X348264D01*
X376000Y297000D02*
Y307000D01*
X356000Y297000D02*
X376000D01*
X356000D02*
Y307000D01*
X376000D01*
X363161Y283764D02*
X365819D01*
X368181D02*
X370839D01*
X363161Y279236D02*
X365819D01*
X368181D02*
X370839D01*
X363161D02*
Y283764D01*
X370839Y279236D02*
Y283764D01*
X386000Y229000D02*
Y239000D01*
X346000Y229000D02*
X386000D01*
X346000Y239000D02*
X386000D01*
X346000Y229000D02*
Y239000D01*
D13*
X376449Y254988D02*
Y266012D01*
X357551Y254988D02*
Y266012D01*
X376449D01*
X357551Y254988D02*
X376449D01*
X379000Y226999D02*
X379500Y227499D01*
X380500D01*
X380999Y226999D01*
Y226499D01*
X380500Y225999D01*
X380000D01*
X380500D01*
X380999Y225500D01*
Y225000D01*
X380500Y224500D01*
X379500D01*
X379000Y225000D01*
X381999Y224500D02*
Y225000D01*
X382499D01*
Y224500D01*
X381999D01*
X384498Y226999D02*
X384998Y227499D01*
X385998D01*
X386498Y226999D01*
Y226499D01*
X385998Y225999D01*
X385498D01*
X385998D01*
X386498Y225500D01*
Y225000D01*
X385998Y224500D01*
X384998D01*
X384498Y225000D01*
X387497Y227499D02*
Y225500D01*
X388497Y224500D01*
X389497Y225500D01*
Y227499D01*
X369499Y226999D02*
X369000Y227499D01*
X368000D01*
X367500Y226999D01*
Y225000D01*
X368000Y224500D01*
X369000D01*
X369499Y225000D01*
Y225999D01*
X368500D01*
X370499Y224500D02*
Y227499D01*
X372498Y224500D01*
Y227499D01*
X373498D02*
Y224500D01*
X374998D01*
X375497Y225000D01*
Y226999D01*
X374998Y227499D01*
X373498D01*
X358500D02*
X360499D01*
X359500D01*
Y224500D01*
X361499Y227499D02*
X363498Y224500D01*
Y227499D02*
X361499Y224500D01*
X348000D02*
Y227499D01*
X349500D01*
X349999Y226999D01*
Y225999D01*
X349500Y225500D01*
X348000D01*
X349000D02*
X349999Y224500D01*
X350999Y227499D02*
X352998Y224500D01*
Y227499D02*
X350999Y224500D01*
X362500Y286500D02*
Y292498D01*
X365499D01*
X366499Y291498D01*
Y289499D01*
X365499Y288499D01*
X362500D01*
X364499D02*
X366499Y286500D01*
X372497D02*
X368498D01*
X372497Y290499D01*
Y291498D01*
X371497Y292498D01*
X369498D01*
X368498Y291498D01*
X344000Y267673D02*
Y273671D01*
X346999D01*
X347999Y272672D01*
Y270672D01*
X346999Y269673D01*
X344000D01*
X345999D02*
X347999Y267673D01*
X349998D02*
X351997D01*
X350998D01*
Y273671D01*
X349998Y272672D01*
M02*
